/* XPM */
static char *result[] = {
/* columns rows colors chars-per-pixel */
"39 64 214 2 ",
"   c #1E1711",
".  c #211913",
"X  c #201A15",
"o  c #211A15",
"O  c #231A14",
"+  c #201A16",
"@  c #251C15",
"#  c #261D17",
"$  c #221C18",
"%  c #211E18",
"&  c #251E19",
"*  c #381710",
"=  c #301C14",
"-  c #331E15",
";  c #331F16",
":  c #361E15",
">  c #1D231B",
",  c #222019",
"<  c #2A2119",
"1  c #2A261F",
"2  c #24281E",
"3  c #352016",
"4  c #372117",
"5  c #392117",
"6  c #32221A",
"7  c #3A2318",
"8  c #3C2418",
"9  c #3D2418",
"0  c #3D241B",
"q  c #272E24",
"w  c #262F24",
"e  c #2C2B23",
"r  c #2B2F25",
"t  c #2C2D27",
"y  c #312520",
"u  c #342B24",
"i  c #3A2923",
"p  c #293027",
"a  c #293227",
"s  c #2C3629",
"d  c #2C372C",
"f  c #2E392B",
"g  c #2E392C",
"h  c #2E392D",
"j  c #2F3C2D",
"k  c #3F3025",
"l  c #373128",
"z  c #3D352B",
"x  c #313A2F",
"c  c #313C2F",
"v  c #3A392E",
"b  c #323F30",
"n  c #363F31",
"m  c #353E34",
"M  c #411710",
"N  c #4B1811",
"B  c #4B1C13",
"V  c #531B13",
"C  c #571C12",
"Z  c #501D16",
"A  c #5C1D13",
"S  c #621F13",
"D  c #442016",
"F  c #58221B",
"G  c #652015",
"H  c #692114",
"J  c #6D2215",
"K  c #432921",
"L  c #472822",
"P  c #4E2A24",
"I  c #552721",
"U  c #5C2820",
"Y  c #592B25",
"T  c #532F28",
"R  c #403127",
"E  c #44392C",
"W  c #4F3B2D",
"Q  c #57332E",
"!  c #5A312C",
"~  c #5E322D",
"^  c #5F342F",
"/  c #5C3D29",
"(  c #443830",
")  c #5A3730",
"_  c #5F3831",
"`  c #64362F",
"'  c #673832",
"]  c #633F34",
"[  c #6B3A34",
"{  c #6C3A35",
"}  c #6F3B35",
"|  c #6C3E37",
" . c #723E37",
".. c #733E37",
"X. c #763F38",
"o. c #324030",
"O. c #344332",
"+. c #3E4235",
"@. c #454136",
"#. c #4B4133",
"$. c #4C4035",
"%. c #524332",
"&. c #564132",
"*. c #594533",
"=. c #5D4833",
"-. c #56473D",
";. c #504D39",
":. c #5D483A",
">. c #754D27",
",. c #70482A",
"<. c #794636",
"1. c #70443C",
"2. c #77443D",
"3. c #77463D",
"4. c #78403A",
"5. c #7A423B",
"6. c #7E433C",
"7. c #7B443C",
"8. c #7A443E",
"9. c #7F453C",
"0. c #7F453D",
"q. c #685037",
"w. c #72553D",
"e. c #544E4B",
"r. c #5F5045",
"t. c #5D5F57",
"y. c #585758",
"u. c #694A40",
"i. c #6B5A4C",
"p. c #705944",
"a. c #775E44",
"s. c #7D5248",
"d. c #7E5C52",
"f. c #756151",
"g. c #766355",
"h. c #7E6451",
"j. c #535D69",
"k. c #6F6A65",
"l. c #686A6E",
"z. c #7E6D60",
"x. c #74716E",
"c. c #626D7D",
"v. c #717271",
"b. c #76797E",
"n. c #82463D",
"m. c #85483F",
"M. c #854F45",
"N. c #884940",
"B. c #8A4A41",
"V. c #896E5D",
"C. c #8B7467",
"Z. c #84746B",
"A. c #847B6F",
"S. c #937860",
"D. c #9B7C66",
"F. c #977F6B",
"G. c #96816F",
"H. c #988373",
"J. c #9D8875",
"K. c #9F8875",
"L. c #A58370",
"P. c #A18975",
"I. c #AC8E73",
"U. c #A58C78",
"Y. c #A98F7F",
"T. c #AE947D",
"R. c #6E7C8B",
"E. c #758393",
"W. c #7E8B99",
"Q. c #808D9A",
"!. c #969699",
"~. c #AE9789",
"^. c #B79982",
"/. c #B89C85",
"(. c #B99E86",
"). c #B89E88",
"_. c #BEA188",
"`. c #BEA48B",
"'. c #8894A2",
"]. c #8895A2",
"[. c #8998A9",
"{. c #8EA3B8",
"}. c #95A1B1",
"|. c #94A2B0",
" X c #97A4B1",
".X c #A1B0BF",
"XX c #C0A288",
"oX c #C6A88F",
"OX c #C8AB90",
"+X c #CAAB91",
"@X c #CFB197",
"#X c #CFB298",
"$X c #D1B295",
"%X c #D1B399",
"&X c #D3B499",
"*X c #D8B89B",
"=X c #DDBC9D",
"-X c #DEBDA0",
";X c #D7C1B0",
":X c #E3C1A2",
">X c #E3C2A4",
",X c #E9C5A6",
"<X c #ECC8A9",
"1X c #F2CDAC",
"2X c #F6D0AF",
"3X c #F9D4B2",
"4X c #FDD6B3",
"5X c #FFD9B6",
"6X c #FFDBB8",
"7X c #91A8C0",
"8X c #A1B7CE",
"9X c #A7B9CB",
"0X c #ADB9C9",
"qX c None",
/* pixels */
"qXqXqXqXqXqXqXqXqXqXqXqXqXqXqXqXqXqXqXqXqXqXqXqXqXqXqXqXqXqXqXqXqXqXqXqXqXqXqX",
"qXqXqXqXqXqXqXqXqXqXqXqXqXqXqXqXqXqXqXqXqXqXqXqX, o qXqXqXqXqXqXqXqXqXqXqXqXqX",
"qXqXqXqXqXqXqXqXqXqXqXqXqXqXqXqXqXqXqX$ o . O @ O O # o qXqXqXqXqXqXqXqXqXqXqX",
"qXqXqXqXqXqXqXqXqXqXqXqXqXqXqXqXqXqXqX. O O < < O O   O qXqXqXqXqXqXqXqXqXqXqX",
"qXqXqXqXqXqXqXqXqXqXqXqXqXqXqXqXqXqXqX. O @ V.E   O O O X + qXqXqXqXqXqXqXqXqX",
"qXqXqXqXqXqXqXqXqXqXqXqXqXqXqXqXqXqX& @ O O T.F.#.#.  O O # qXqXqXqXqXqXqXqXqX",
"qXqXqXqXqXqXqXqXqXqXqXqXqXqXqXqXqXqXK.E y z.*X:XT.F.  y -.o qXqXqXqXqXqXqXqXqX",
"qXqXqXqXqXqXqXqXqXqXqXqXqXqXqXqXqXqX_.l i.3X1X4X2XXXF.-.i.X qXqXqXqXqXqXqXqXqX",
"qXqXqXqXqXqXqXqXqXqXqXqXqXqXqXqXqX+ g.l i.1X$X4X<X+X3XP.-.% qXqXqXqXqXqXqXqXqX",
"qXqXqXqXqXqXqXqXqXqXqXqXqXqXqXqXqX& O   g.3X4X4X+X1X1Xi.@ $ qXqXqXqXqXqXqXqXqX",
"qXqXqXqXqXqXqXqXqXqXqXqXqXqXqXqXqX,     -.1X5X4X,X4X:Xl   o qXqXqXqXqXqXqXqXqX",
"qXqXqXqXqXqXqXqXqXqXqXqXqXqXqXqXqXqX$ # 1 T.6X=X=X6XXX< @ qXqXqXqXqXqXqXqXqXqX",
"qXqXqXqXqXqXqXqXqXqXqXqXqXqXqXqXqXqXqXm g z.$X=X,X*Xz.t.t qXqXqXqXqXqXqXqXqXqX",
"qXqXqXqXqXqXqXqXqXqXqXqXqXqXqXqXqXqXqXg a T.:X$XXX;.n n x qXqXqXqXqXqXqXqXqXqX",
"qX|.qXqXqXqXqXqXqXqXqXqXqXqXqXqXqXm b a > r.^.$XoX+.w s b x qXqXqXqXqXqXqXqXqX",
"qX X.XqXqXqXqXqXqXqXqXqXqXqXqXqXqXj o.w w a s c +.c c o.o.s h qXqXqXqXqXqXqXqX",
"qX|.9X}.qXqXqXqXqXqXqXqXqXqXqXqXv f a 2 > > a @.@.@.@ > a f j p qXqXqXqXqXqXqX",
"qX[.9X0XqXqXqXqXqXqXqXqXqXqXqXqXg c f s a < L ~.;Xd.V C 0 l f g qXqXqXqXqXqXqX",
"qXW.8X9X}.qXqXqXqXqXqXqXqXqXqXh o.f j l D S M u.Y.Y G J F 4._ &.v qXqXqXqXqXqX",
"qXqX8X9X XqXqXqXqXqXqXqXqXqXd f f c E ' F J A Z Y A J J F 0.[ n.7.Q qXqXqXqXqX",
"qXqX7X8X].qXqXqXqXqXqXqXqXp a j O.z | 4.Z J J V N S J J U 6.[ N.B.9.qXqXqXqXqX",
"qXqX[.8XQ.qXqXqXqXqXqXqXqXg o.n W | } ..V J J A C A A V I 7.} B.m.6.^ qXqXqXqX",
"qXqXqX{.Q.W.qXqXqXqXqXqXqXb n ] n...0.} Z J J A C V N N I 5...5.} [ 4.2.qXqXqX",
"qXqXqXR.Q.[.qXqXqXqXqXqXm n ] N.n.} n.' Z J J S N C J H U 0.[ 4.4.6.m.m.3.qXqX",
"qXqXqXqXE. XqXqXqXqXqXqXq ) X.0.6.} N.' Z J J S C C J H U m.} 5.m.M.M.N.8.qXqX",
"qXqXqXqXj.].qXqXqXqXqXqXu 7.7.6.5.} B.} Z J J S V A J H U m.n.[ 1.L.^.|  .qXqX",
"qXqXqXqXc.E.qXqXqXqXqXQ _ 4.B.B.4.X.B.4.Z J H A * N H H U m.N.s.oX,X3Xh.Y qXqX",
"qXqXqXqXqX}.}.b.y.qXqX8.X.! ..N.X.0.B.0.F G A V M M A G U n.N.7.L.2X5XD.{ qXqX",
"qXqXqXqXqX'.W.l.x.C.u.{ 6.~ ' 7.' n.N.n.F J J G V V S J F 5.m...V.1X3XL.{ qXqX",
"qXqXqXqXy.l.e.g.#XK.7.' 5...0.X.~ } n.m.F J J H N N V G V ' ..} 1.i.r.w.^ qXqX",
"qXqXqXqXqX$.R +X<X<Xs.4.[ N.m.` X.[ n.m.P C A A C * Z V V I 4.} 4.W #.e qXqXqX",
"qXqXqXqXqX).P.T.g.$XD.6.[ 0.| ! 7.[ m.N.P N B B D 7 : M * : ....m.] ;.b qXqXqX",
"qXqXqXqXqXqXJ.P.r.T.^...P z s _ N.[ m.B.T - 4 7 8 9 8 8 - = ` 7...1.;.o.qXqXqX",
"qXqXqXqXqXqXqX^.V.Z.A.z a o.j T ' [ m.N.P = 7 8 8 8 8 8 7 = P N.m.7.;.c qXqXqX",
"qXqXqXqXqXqXqXH.u.k.t.j w o.s ! X.5.6.m.P : 8 8 8 8 8 9 8 7 0 n.B.0.&.f t qXqX",
"qXqXqXqXqXqXqXqXb.!.n f w O.z 5.6.n.N.N.P 7 8 8 9 8 4 - - : 7 4.B.<./ l p qXqX",
"qXqXqXqXqXqXqXqXqXv.c s s O.E n.N.N.N.m.P 7 8 4 = @ O = 4 8 7 } B.<.>.E , qXqX",
"qXqXqXqXqXqXqXqXqXp O.s o.c ] N.N.N.N.m.K 8 4 = - L 4 8 8 8 5 ` B.n.,./ r qXqX",
"qXqXqXqXqXqXqXqXqXh o.a o.R n.N.N.N.N.6.0 8 8 9 0 T 4 8 8 8 4 ! N.N.m.| 6 qXqX",
"qXqXqXqXqXqXqXqXqXg s f f ' B.N.N.N.B.X.5 9 8 8 0 ~ 4 8 8 8 8 P N.5.) l g qXqX",
"qXqXqXqXqXqXqXqXqXo.a o.z n.B.B.B.B.B.[ 4 8 8 8 0 ` 5 8 8 8 7 0 P l a f g qXqX",
"qXqXqXqXqXqXqXqXqXg s o.i ~ [ ..} ` ` P 4 8 8 8 K [ 5 8 8 8 8 5 - s j s b qXqX",
"qXqXqXqXqXqXqXqXqXp s O.f e i i y = 5 5 8 8 8 8 4 K - 9 8 8 8 8 7 e j s o.qXqX",
"qXqXqXqXqXqXqXqXqXqXb O.O.O.o.o.2 - 0 9 8 8 8 8 < a < 8 8 8 8 8 7 1 o.j o.qXqX",
"qXqXqXqXqXqXqXqXqXqXg O.O.O.O.O.2 - 9 9 8 8 8 8 < a < 8 8 8 8 8 7 1 o.r qXqXqX",
"qXqXqXqXqXqXqXqXqXqXqXq g o.O.O.2 4 9 9 8 8 8 8 < s 2 7 8 8 8 8 9 # % qXqXqXqX",
"qXqXqXqXqXqXqXqXqXqXqXqXqXp g O.2 4 9 8 8 8 8 8 < c w 4 8 8 8 8 8 ; qXqXqXqXqX",
"qXqXqXqXqXqXqXqXqXqXqXqXqXqXqXp # 5 9 8 8 8 8 8 6 qXt 3 8 8 8 9 9 6 qXqXqXqXqX",
"qXqXqXqXqXqXqXqXqXqXqXqXqXqXqXqX% 5 9 8 8 8 8 8 ; qXqX6 7 4 5 : 7 k qXqXqXqXqX",
"qXqXqXqXqXqXqXqXqXqXqXqXqXqXqXqXqX# 4 0 K 0 i 6 qXqXqXqX@.:.:.h.U.qXqXqXqXqXqX",
"qXqXqXqXqXqXqXqXqXqXqXqXqXqXqXqXqXqX( ^.$X+XoXqXqXqXqXqX@X2X1X5X>XqXqXqXqXqXqX",
"qXqXqXqXqXqXqXqXqXqXqXqXqXqXqXqXqXqXqX=X6X6X&XqXqXqXqXqX`.3X5X5X&XqXqXqXqXqXqX",
"qXqXqXqXqXqXqXqXqXqXqXqXqXqXqXqXqXqXqX_.4X5X(.qXqXqXqXqXqX<X5X5XOXqXqXqXqXqXqX",
"qXqXqXqXqXqXqXqXqXqXqXqXqXqXqXqXqXqXqXp.I.2X).qXqXqXqXqXqX@X4X4XOXqXqXqXqXqXqX",
"qXqXqXqXqXqXqXqXqXqXqXqXqXqXqXqXqXqXk q.a.:X@XqXqXqXqXqXqXqX2X=XS.qXqXqXqXqXqX",
"qXqXqXqXqXqXqXqXqXqXqXqXqXqXqXqXqXqX*.w.a.=X%XqXqXqXqXqXqXqX1XI.&.qXqXqXqXqXqX",
"qXqXqXqXqXqXqXqXqXqXqXqXqXqXqXqXqXqX=.w.q.XX:XqXqXqXqXqXqXqX,XD.q.*.qXqXqXqXqX",
"qXqXqXqXqXqXqXqXqXqXqXqXqXqXqXqXqX$.W q.a.:X+XqXqXqXqXqXqX`.$Xh.w.w.*.qXqXqXqX",
"qXqXqXqXqXqXqXqXqXqXqXqXqXqXqXqXqX%.q.q.D.2XG.qXqXqXqXqXqX).:XF.w.q.q.qXqXqXqX",
"qXqXqXqXqXqXqXqXqXqXqXqXqXqXqXqXqX=.q.D.1X2XC.qXqXqXqXqXqXqXoX:Xh.V.:.f.qXqXqX",
"qXqXqXqXqXqXqXqXqXqXqXqXqXqXqXqX/.XXI.<X5X2XC.qXqXqXqXqXqXqXqX>X$X*XXX-X/.qXqX",
"qXqXqXqXqXqXqXqXqXqXqXqXqXqXqXqXJ.oX:X-X-X=XqXqXqXqXqXqXqXqXqX`.4X=X&X%XH.qXqX",
"qXqXqXqXqXqXqXqXqXqXqXqXqXqXqXqXqXqXqXqXH.U.qXqXqXqXqXqXqXqXqXqX%XY.qXqXqXqXqX",
"qXqXqXqXqXqXqXqXqXqXqXqXqXqXqXqXqXqXqXqXqXqXqXqXqXqXqXqXqXqXqXqXqXqXqXqXqXqXqX"
};
