/* XPM */
static char *_a9f0a4752fc4bb2b27a1554458d69feizX5xdGSTUblIWzz[] = {
/* columns rows colors chars-per-pixel */
"64 64 229 2 ",
"   c None",
".  c #140E06",
"X  c #190E07",
"o  c #150E09",
"O  c #190E08",
"+  c #141507",
"@  c #191106",
"#  c #141409",
"$  c #1B130A",
"%  c #161909",
"&  c #1C1B0D",
"*  c #151807",
"=  c #1D1B15",
"-  c #0F0B09",
";  c #23150A",
":  c #28160B",
">  c #251A0D",
",  c #2B1B0D",
"<  c #321E0F",
"1  c #241C13",
"2  c #2A1D11",
"3  c #221B18",
"4  c #331F11",
"5  c #1E220D",
"6  c #1F2114",
"7  c #2E210E",
"8  c #24280F",
"9  c #34240F",
"0  c #232513",
"q  c #2E2013",
"w  c #262912",
"e  c #2A2C14",
"r  c #2C241B",
"t  c #2A2C1B",
"y  c #27241A",
"u  c #342512",
"i  c #3B2514",
"p  c #392914",
"a  c #322519",
"s  c #342A1B",
"d  c #3B2C1B",
"f  c #362916",
"g  c #2D3215",
"h  c #2F321A",
"j  c #303517",
"k  c #343917",
"l  c #32351A",
"z  c #363B1A",
"x  c #393D1B",
"c  c #3C3219",
"v  c #2C2621",
"b  c #2B2B24",
"n  c #272925",
"m  c #332B24",
"M  c #382E25",
"N  c #3D3124",
"B  c #393C2C",
"V  c #343428",
"C  c #383C34",
"Z  c #2E342A",
"A  c #432B16",
"S  c #492F17",
"D  c #442D1A",
"F  c #492F18",
"G  c #402715",
"H  c #43311D",
"J  c #4A331A",
"K  c #473819",
"L  c #50381C",
"P  c #433423",
"I  c #4A3724",
"U  c #4C3925",
"Y  c #4B3B2B",
"T  c #453728",
"R  c #513C28",
"E  c #4D3E32",
"W  c #3D431D",
"Q  c #3C4123",
"!  c #3F4331",
"~  c #40471E",
"^  c #41481F",
"/  c #4C481D",
"(  c #56491D",
")  c #434A21",
"_  c #494521",
"`  c #59452B",
"'  c #4C5623",
"]  c #4B4134",
"[  c #5A4A36",
"{  c #5D552E",
"}  c #61452D",
"|  c #67592A",
" . c #644B34",
".. c #674C33",
"X. c #6B533B",
"o. c #75593D",
"O. c #4C6523",
"+. c #75662B",
"@. c #776734",
"#. c #6C612D",
"$. c #44661F",
"%. c #364544",
"&. c #394A5A",
"*. c #3C5456",
"=. c #38506A",
"-. c #495259",
";. c #4E514F",
":. c #665644",
">. c #735E49",
",. c #7A5F44",
"<. c #7A6246",
"1. c #746C58",
"2. c #4A5C70",
"3. c #476366",
"4. c #566678",
"5. c #4D6A71",
"6. c #696869",
"7. c #786D62",
"8. c #68787B",
"9. c #6B7273",
"0. c #836344",
"q. c #8B6B4B",
"w. c #866847",
"e. c #96734F",
"r. c #836D56",
"t. c #8B7359",
"y. c #9B7B5B",
"u. c #977554",
"i. c #946543",
"p. c #A67D57",
"a. c #AE734B",
"s. c #867769",
"d. c #937D65",
"f. c #778979",
"g. c #9C9033",
"h. c #BAAC35",
"j. c #AC845A",
"k. c #A7825B",
"l. c #B5875B",
"z. c #BB905F",
"x. c #9E856B",
"c. c #978879",
"v. c #A58360",
"b. c #AD8C6A",
"n. c #AC8A66",
"m. c #B48C63",
"M. c #BA8C65",
"N. c #BA936A",
"B. c #A68D73",
"V. c #BD9972",
"C. c #BD9E7A",
"Z. c #B49775",
"A. c #AD9173",
"S. c #BEA07D",
"D. c #CA8458",
"F. c #CB9966",
"G. c #C39A6C",
"H. c #CD9D6A",
"J. c #C39666",
"K. c #D49A68",
"L. c #C39C73",
"P. c #C89E74",
"I. c #D2A16C",
"U. c #DBA66D",
"Y. c #CAA378",
"T. c #DDAD7B",
"R. c #D8A875",
"E. c #D1A574",
"W. c #E2AC73",
"Q. c #E6A874",
"!. c #E9B47A",
"~. c #F1B676",
"^. c #F3BA7C",
"/. c #F2B877",
"(. c #E0A86F",
"). c #5D7A81",
"_. c #667689",
"`. c #738589",
"'. c #668D98",
"]. c #718F98",
"[. c #6C98A5",
"{. c #7C9CA4",
"}. c #73A7B2",
"|. c #7CB2BE",
" X c #7EB6C3",
".X c #90908F",
"XX c #ACA29A",
"oX c #BAA286",
"OX c #A9A5A2",
"+X c #BEB8B3",
"@X c #959B9B",
"#X c #C8A884",
"$X c #D1AD83",
"%X c #DAB284",
"&X c #D9B58B",
"*X c #DEBC91",
"=X c #CEB18C",
"-X c #EBBD8B",
";X c #E5B987",
":X c #F4BF83",
">X c #F1BA8D",
",X c #E3BE91",
"<X c #EDC18D",
"1X c #F4C38C",
"2X c #F6C185",
"3X c #EAC394",
"4X c #EAC699",
"5X c #F3C592",
"6X c #F6C994",
"7X c #F5CD9C",
"8X c #F9CE9B",
"9X c #F8C994",
"0X c #F6D09F",
"qX c #F9D09F",
"wX c #F7D0A0",
"eX c #F9D2A1",
"rX c #F7CFA0",
"tX c #85BDC9",
"yX c #94B8C1",
"uX c #8AC3CE",
"iX c #92C6D1",
"pX c #98C9D3",
"aX c #92C4CF",
"sX c #A5CCD5",
"dX c #ADD2D9",
"fX c #ACD0D7",
"gX c #B2D3DB",
"hX c #A0C4CE",
"jX c #CECCCB",
/* pixels */
"                                                                                                                                ",
"                                                            n               d a s p u a a u s q r                               ",
"                                          T d d d d u a s   y 1     N s s p p p p p p p p p p p q r                             ",
"                                    P K D p p p p p p p p p p a p p p p p p p p p p p p p p p p p 1                             ",
"                                  I J p p p p p p p p p p p p p p p p p p p p p p p p p p p p p u 2                             ",
"                                T L p p p p p p p p p p p p p p p p p p p p p p p p p p p p p p u r                             ",
"                                Y p 7 q q u p p p p p p p p p p p p 7 a p p p p p p p p u 2 p p u 1                             ",
"                              T N u u u p p p p p u p p p p p p p p , u p p p a p p p p u ; u p p , # 3                         ",
"                          I J c p p p p p p p p u 2 p p p p p p p p 9 p p p p > p p p p u O u p p u , $ ; v                     ",
"                      P J H p p p p p p p p p 7 > u p p p p p p u p p p i p , 1 p p p u , I s p u , p p u 2 b                   ",
"                    T L D p p p p p p p p u 2 q p p p p p p p p p u u 9 u f T u p u 4 H o.w.a u P X.f p p > b                   ",
"                    N D u p p p p p p p p u p p p i p u p p p u q Y ,.q.v.<.d u D :.v.w.U 2  .n.$Xt.u p 2 1                     ",
"                  T H u 7 2 q u u p p p p p p p p u 2 u p p p > w.-X8XeX#Xa , ..R.8X*XY 2 a R.eXA.a p 9 ;                       ",
"                P J p p p p p p p p p p p p p u , 2 u p p p p ; q.8XeXeX$X>.[  .N.rX7X&X1.u P.eXC.N u 9 1                       ",
"              P L p p p p p p p p p f u p u a H 2 u u p p p p u u v.C.A.:.>.3X#X,.4XwXwX,XX.N.rXeXY.X.u , =                     ",
"            E L J p p p p p p p p p i p u D o.d d d 1 p p p u > $ 2 2 2 2 X.~.5X$X7X8XwX5X[ r :.t.b.K.f 2 $ - 3                 ",
"            T H D p p p p p p u 7 p p 9 H k.U ..k.H u u f H U X.n.L.V.G.P.!.~.^.6XwXwX7X>XK.q...[ 0.W. .O 1 o v                 ",
"              m D d p p u 9 u , u p p u l.l.w.!.w.` e.m.E.%X-X5X-X%XY.L.!.^.:X7X7XqX0X2X^.>X8X>X1X:X^.0.@ @ =                   ",
"                d p f I  .<.r.P p p u ..~.W.^.!.I.<XqXeXqX<XL.x.s.6.6.7.v.~.:X8XwXwX<XW.1X8X;XP.L.m.F.o.@ 1                     ",
"                <.u.b.G.Y.G.V.` D p 7 <.:X7X7X8X0X0X0X0XR.c.XX9.jXXX&.4.c.F.^.8XwX0XR.F.H.q.s.;.6.OX7.2 ; T e.y.                ",
"                L.5X;XW.W.U.(.N.R p 9 R T.8XqX7X0X0XwX%Xt.jXOX&._.-.=.=..Xz.^.8XwX8Xm.d.7.-.jX9.&.4.OX1 a j.K.U.p.              ",
"                Y t.<X8X1X2X:X2Xy.D p q X.;XqXqX0X0X0X3Xx.XXXX9.=.2.)..X.XM.1XeXwX9Xy.XX.X=.).&.2.4.+Xv R ~./.H.                ",
"              H p p  .P.7XqX8X8Xm.D p p 2 o.1XrXwX0XwXwX7X,X#XS.B.x.c.B.k.R.9XwXeX9Xu.y.B.6.-.-.4..Xc.1 a J.K.r.                ",
"            H D p p p d X.m.&X<XX.A p p p 2 N.wXwX0XwXwXwXwX3XY.G.G.M.v.;X8X8XwXqX2Xe.I.5X3X&XY.C.A.0.1 ; I                     ",
"            P p u p p p p p U [ c u , p p > u.eXwXqX0XwX0X0X0X4X,X*X,X7XwXwX0X7X>X>XD.i.!.5X7X$XN.y.1 ; u r                     ",
"                2 q p p p p u ; > > u p u 2 N.wXwXwX0X0X0X0X0X0XrXrXwXwX0X0XwX;XK.Q.D.i.(.:X8X7X1Xo.@ , u r                     ",
"                T p u p p p u o 7 p p p 2 0.5XwX0X0X0X0X0X0X0X0XrXwXwXwXeXeXwX,XM.a.l.U.^.6XrX9Xl.2 ; u q                       ",
"    s a M     Y H D p p p p p q u p u @ a I.6XwX0X0X0X0X0X0X0X0XrX7X0X7X*XL.M.I.T.U.K.K.~.:X>XW.I X 2 q                         ",
"      N M u p p u u f p p p p p p 7 @ . @ ` U.6X0XwXwXwX0X0X0X0X0X0X0X0X4X,XK.M.p.a.a.K.!.~.^.w.@ $ 2 m                         ",
"          N s v b     s i p p p u o @ @ @ O R F.-X6X8XrXwXwX0X0X0X0X0X0XeXeX>XA.m.p.K./.~./.J.2 @ ; 1 m                         ",
"                      f u u r u > . @ . $ w w j ` @.p.J.T.;X5X8X8X0XqX0XwXeXeXrX7X5X9X^.~.Q.} o @ v r m                         ",
"                      a r     d , @ & t Q Q W z g w w e c ` X.e.J.I.T.;X-X>X>X6X8X8X9X^./.j.$ = V m                             ",
"                      V         t k ^ ) ^ ~ W ^ ~ ~ W W k k e l w.J.j.p.l.l.J.F.G.H.N.j.w.K 5 & B                               ",
"                              B W ) ) ^ ^ ~ ~ ~ ~ ~ W ~ ~ W x l g o.o.| 0.z.I.w.d e j l k x k 8 5                               ",
"                              W ~ ~ ~ ~ ~ ~ ^ ~ ~ ~ ~ ~ W x g w e x ' ' $.{ | p 5 k W ^ ) ^ ^ k 5 m                             ",
"                            B W ~ ~ ^ ~ ~ ~ ^ W ~ ~ ^ W z g c ~ ' O.O.O.$./ K e & l ~ ) ^ ) ^ W 8 t                             ",
"                            Q ~ ) ) ) ^ ~ ~ ~ W x j 8 8 ; > / L _ _ [ _ / c 0 ; ; > w g l W ~ ~ g 8 B                           ",
"                          B ~ ) ) ) ) ~ W l w > $ ; , u G G u < a s ] :.9 9 H u G i , ; $ $ > 7 e 5 t                           ",
"                          W ) ) W W g 0 $ O o ; < F F F S F F F D D a 3 4 D c G S S S < : o ; ; $ @ =                           ",
"                        B W W g 0 $ @ , , : O : i F S S S S S S D u d 3 : d u A S S S i : O ; < p ; # b                         ",
"                        l e & ; , p A S i , O : i F F S S S S S d f u I K +./ A S S S G : ; O < G 2 1                           ",
"                      V 5 ; 4 A S S S S G : O : i F F F S S S F A i c g./ +.h./ A S S G : ; X : G i 2                           ",
"                      Z 1 A S F S S S S G : O , i A G G A F F F S J D g.+.| h.K i S G G : : X ; i G 2                           ",
"                        r S S S S S S F 4 ; X , A F F A A G A F A D p u | | K 4 A G G G : ; X ; 4 A , v                         ",
"                        G S S S S S S F 4 ; X : A F F F S S S D u f 2 ; 4 G A F S S S A < ; X ; < G , v                         ",
"                        i S G S S A S A < ; O ; 2 f A F S J S D f i ; 4 F F F F S A p u ; . $ 9 D ..0.:.                        ",
"                        >.u.,.X.} } } } P '  .{ n y r u p D I U R E n C T M a ; ; @ @ X . . o.K.!.;X^.p.                        ",
"                    #.| V.qX7X5X1X-X;X;X@.+.1.{.].`.`.8.8._.`..X@X@X].].`._.3.-.B r 2 > X . o.2XT.P.:XH.                        ",
"                    | | #XwXwXwXwXqXqX;X#.@.f.aXfXdXdXgXgXgXgXgXgXgXgXdXdXdXhXyX{.9.;.l @ . I F.p.J.!.p.                        ",
"                      ;.Y.7XwXeXeXwXeXT.+.@.f.uXaXaXiXiXiXiXpXsXsXsXsXdXdXdXdXgXfXhX{.-.b $ 1 o.q.q.` m                         ",
"                        ] X.<.A.A.Z.;XG.+.+.f.'.'.[.}.|.tXuXuXuXuXuXuXuXuXiXiXiXiXpXaX[.*.1 . + & % w 0                         ",
"                        j z = % = % s s K ( K t n Z C ;.5.).'.[.}. X XtXtXtXtX X}.'.5.%.b $ + + % # g w                         ",
"                        z W % + * + $ 7 , > , 9 u 7 7 e 2 y n Z %.*.3.5.5.5.5.*.%.Z r , ; @ @ - % # g w                         ",
"                        Q z 5 + + @ 7 9 9 9 9 9 9 9 9 9 ; @ + + 5 % % = s p t a 7 9 9 9 > @ @ . # # e g !                       ",
"                      b W z * + * + 9 p 9 9 9 9 9 9 9 9 $ @ @ + * * * - 9 9 9 9 9 9 9 9 > @ @ . * + 0 j t                       ",
"                      w z h * + + $ 9 9 9 9 9 u p 9 9 7 $ @ @ * * * * * 9 9 p p 9 9 9 9 , @ . . + + 5 l t                       ",
"                      h W g * * + $ p q 7 7 9 7 9 9 9 7 @ @ # 1 6 6 y 6 r 9 7 7 u u p D I ` ,.[ t n y z t                       ",
"                      V W e 0 b b N v.N.e.o. ._ H H p p q q 3           ] e.u.p.j.M.J.E.T.U.U.m.    B l B                       ",
"                      ! V l       7.3XwX8X6X-XR.G.N.H.I.I.k.              3XqX8X8X8XrX8X&X%XY.H.H.J.y.                          ",
"                                  t.4XwX0X4X&X&X#XC.*X9X^.I.            t.4XqXqXwXrXrXwX7X=XZ.A.Y.!.U.N.:.:.[                   ",
"                                s.;X7XwXwXwXwX7X4X*X4X0X8X;XA.7.        A.wXwX7XwXwXwXeX=XoX#XV.<.b.y.y.v.X.>.                  ",
"                                <.3XeXeX3X#X*X#XB.Y.Z.x.V.&X=X$Xm.      d.Z.Z.b.Y.%X$XY.;X;XU.m.e.P.e.w.v.                      ",
"                                  b.V.%XY.t.r.L.t.y.Y.b.,.E.E.I.p.                                                              ",
"                                                    q.                                                                          "
};
