/* XPM */
static char *result[] = {
/* columns rows colors chars-per-pixel */
"43 50 201 2 ",
"   c #070602",
".  c #0A0C07",
"X  c #0E0F09",
"o  c #100F09",
"O  c #12130C",
"+  c #12160F",
"@  c #1B1810",
"#  c #1C1E17",
"$  c #1E1E16",
"%  c #231F17",
"&  c #23201B",
"*  c #22211F",
"=  c #282419",
"-  c #2A251C",
";  c #2E281D",
":  c #322C1F",
">  c #2B2820",
",  c #2B2A23",
"<  c #2E2920",
"1  c #312920",
"2  c #342920",
"3  c #362E22",
"4  c #372F27",
"5  c #373226",
"6  c #3B3023",
"7  c #3A3025",
"8  c #37342F",
"9  c #3C3429",
"0  c #3F3729",
"q  c #3C352C",
"w  c #3D372C",
"e  c #2E2D30",
"r  c #44372D",
"t  c #42392D",
"y  c #42382E",
"u  c #473F2F",
"i  c #403A30",
"p  c #4A3C31",
"a  c #4C3F35",
"s  c #443F39",
"d  c #4E4432",
"f  c #4A433C",
"g  c #4D483F",
"h  c #534335",
"j  c #554536",
"k  c #584734",
"l  c #564839",
"z  c #55493E",
"x  c #544D3C",
"c  c #5D493A",
"v  c #5E4F3F",
"b  c #63523D",
"n  c #464447",
"m  c #554E40",
"M  c #514E4C",
"N  c #5B5145",
"B  c #5E584A",
"V  c #5F594D",
"C  c #604D40",
"Z  c #645944",
"A  c #6F5C45",
"S  c #675748",
"D  c #66584B",
"F  c #645A4D",
"G  c #655B4F",
"H  c #6C5A4B",
"J  c #6B5F4D",
"K  c #756249",
"L  c #71604D",
"P  c #76614C",
"I  c #75664F",
"U  c #786149",
"Y  c #656052",
"T  c #6B6255",
"R  c #65625D",
"E  c #756052",
"W  c #756654",
"Q  c #776855",
"!  c #776956",
"~  c #756A59",
"^  c #71685D",
"/  c #7F6C58",
"(  c #7B705F",
")  c #80694B",
"_  c #836D53",
"`  c #8A7756",
"'  c #80715A",
"]  c #867258",
"[  c #85705A",
"{  c #89735B",
"}  c #957556",
"|  c #917B5E",
" . c #9A7D5B",
".. c #817260",
"X. c #827663",
"o. c #8D7660",
"O. c #8F7B62",
"+. c #8E7F67",
"@. c #89796B",
"#. c #8D7F6C",
"$. c #937C70",
"%. c #948062",
"&. c #9A8061",
"*. c #9E8463",
"=. c #928468",
"-. c #94846B",
";. c #95856D",
":. c #94886F",
">. c #9C886C",
",. c #888070",
"<. c #8E8673",
"1. c #978573",
"2. c #928675",
"3. c #988B75",
"4. c #92867C",
"5. c #9B8E7C",
"6. c #AF8F65",
"7. c #A58E68",
"8. c #AA9068",
"9. c #AF926F",
"0. c #AF956D",
"q. c #B4956C",
"w. c #BA9769",
"e. c #A58F77",
"r. c #A89374",
"t. c #A7967D",
"y. c #B19672",
"u. c #B09B71",
"i. c #B79976",
"p. c #BE9D76",
"a. c #B09C78",
"s. c #B0997F",
"d. c #B7A171",
"f. c #B6A17F",
"g. c #BAA578",
"h. c #BEA67A",
"j. c #C3A16D",
"k. c #C4AF7E",
"l. c #C9A979",
"z. c #A49782",
"x. c #A39982",
"c. c #AB9980",
"v. c #AD9C85",
"b. c #B2A586",
"n. c #BDA180",
"m. c #B4A389",
"M. c #B7A68F",
"N. c #B8A589",
"B. c #BEB185",
"V. c #B4AB92",
"C. c #BEAC90",
"Z. c #B7AB99",
"A. c #BDB7AF",
"S. c #C5A984",
"D. c #C8B383",
"F. c #CEB684",
"G. c #CDB18F",
"H. c #C7B88D",
"J. c #D8BA85",
"K. c #D2B58C",
"L. c #D1BC8A",
"P. c #DABB8D",
"I. c #C3AC91",
"U. c #C2AE90",
"Y. c #CBB394",
"T. c #CFB897",
"R. c #C7B498",
"E. c #C7B59B",
"W. c #D0BE92",
"Q. c #C6BCA0",
"!. c #CDBFA1",
"~. c #D2BFA3",
"^. c #DCC18E",
"/. c #D9C191",
"(. c #DFC493",
"). c #DAC795",
"_. c #DFCD9F",
"`. c #E4C893",
"'. c #EACD9C",
"]. c #CEC2A8",
"[. c #C8C1AF",
"{. c #D8C9A9",
"}. c #DBC9A9",
"|. c #DFCDAA",
" X c #D6CDB7",
".X c #D9CBB6",
"XX c #DDD2B7",
"oX c #D4D3BE",
"OX c #DAD1BA",
"+X c #E0D2A4",
"@X c #E2D2A8",
"#X c #EFDAA9",
"$X c #E6D7B6",
"%X c #E9DCB1",
"&X c #EEE4C6",
"*X c #E5E1CB",
"=X c #E5E2D3",
"-X c #E6E5D5",
";X c #EFEEE2",
":X c #F4F2E2",
">X c None",
/* pixels */
">X>X>X>X>X>X>X>X>X>X>X>X>X>X>X>X>X>X>X>X>X>X>X>X>X>X>X>X>X>X>X>X>Xt.<.V.>X>X>X>X>X>X>X",
">X>X>X>X>X>X>X>X>X>X>X>X>X>X>X>X>X>X>X>X>X>X>X>X>X>X>X>X>X>Xx.:.X.+.3.z.4.Z.{.>X>X>X>X",
">X>X>X>X>X>X>X>X>X>X>X>X>X>X>X>X>X>X>X>X>X>X>X>X>X>X>X>X>X5.T ~ ;.f.N.N.v.E.OXXX>X>X>X",
">X>X>X>X>X>X>X>X>X>X>X>X>X>X>X>X>X>X>X>X>X>X>X>X>X>X>X>Xb.Y T ;.H.H.a.f.Y.Y.E.OXoX>X>X",
">X>X>X>X>X>X>X>X>X>X>X>X>X>X>X>X>X>X>X>X>X>X>X>X>X>X>XQ.,.B +.U.H.B.W.(.P.G.U. X X>X>X",
">X>X>X>X>X>X>X>X>X>X>X>X>X>X>X>X>X>X>X>X>X>X>X>X>X>X{.C.B Q r.B.B.W.+X).W.T.U.}.OXQ.>X",
">X>X>X>X>X>X>X>X>X>X>X>X>X>X>X>X>X>XR.^.(.P.P.|.XXe.&.=.g ( r.D.L.W.H.k.k.S.n.OX=X].>X",
">X>X>X>X>X>X>X>X>X>X>X>X>X>X>X>Xc.9.l.'.#X%X%X&X&X;.k X.T X.f.).F.g.f.a.u.y.9.!.;XoX>X",
">X>X>X>X>X>X>X>X>X>X>X>X>X>X>X<.*.S.K./._.%X%X+X}.i.k B ( ;.W./.k.h.d.a.u.q.q.T.;XoX>X",
">X>X>X>X>X>X>X>X>X>X>X>X>X>X..] 9.J.`.'.P.l.l.l.S.p.L X.3.3.a.u.g.d.u.d.d.d.q.E.;X*X>X",
">X>X>X>X>X>X>X>X>X>X>X>Xc.>.L +.p.J.`.l.6.} U A A A L ~ z.+.I v L ] ` *.8.7.8.Y.=X5.>X",
">X>X>X>X>X>X>X>X>X>X>Xb.=.( x +.h.J.J.q. ._ h u u ; , g +.X.( g 8 2 6 d c A ] v.A.C >X",
">X>X>X>X>X>X>X>X>X>Xb.a.( Y s 3.g.).F.q.) A b u u = $ 8 ~ o.L v 0 $ u 2 @ ; 8 Q 4.q >X",
">X>X>X>X>X>X>X>X>X1.*.%.~ g f =.g.D.d.` d h Z d 3 = $ e M J v 6 h _ a.Z = g T @.$.>X>X",
">X>X>X>X>X>X>X2.-.| o.I N 8 f | 9.7.` k ; ; 3 0 = @ $ e n s 0 u A i.G.] c p k / >X>X>X",
">X>X>X>X>X>X#.+.r.7.` T i $ f ] 9.a.%.0 2 0 6 = % = % , n f d +.] A o.c h k j >X>X>X>X",
">X>X>X>X>X<.~ ] u.7.I J u $ f %.h.L.>.3 0 0 : ; : : 3 ; s T N ~ | h 2 6 6 4 >X>X>X>X>X",
">X>X>X>X>XR s i d b I Z 3 = N r.k.H.=.; = ; : u x d 0 ; w R X.D z u d h 1 >X>X>X>X>X>X",
">X>X>X>X>XM 8 , $ @ d Z = , Z g.K.f.,.% $ % 3 d m 9 < > >X>X! v h r c $.>X>X>X>X>X>X>X",
">X>X>X>X>X8 : 0 0 o @ 0 $ , ' K.S.s.1.X O O 1 >X>X>X>X>X>X>Xq u 3 2 E >X>X>X>X>X>X>X>X",
">X>X>X>XG Q ' A 0 o   o o i >.K.n.M.>X>X>X>X>X>X>X>X>X>X>X>X>X; 2 J >X>X>X>X>X>X>X>X>X",
">X>X>X>XF %.r.%.r o     o f y.K.r.c.>X>X>X>X>X>X>X>X>X>X>X>X>X$ h M.>X>X>X>X>X>X>X>X>X",
">X>X>X>X! 7.n.9.v % o   @ N h.K.e.>X>X>X>X>X>X>X>X>X>X>X>X>X+ @ u m.>X>X>X>X>X>X>X>X>X",
">X>X>X>X` h.K.p.U i o . % Z g.D.I.>X>X>X>X>X>X>X>X>X>X>X>X>X# : h N.>X>X>X>X>X>X>X>X>X",
">X>X>XG u./.(.l.| H >X>X> f =.S.n.R.>X>X>X>X>X>X>X>X>X>X>X>X# u I U.:X>X>X>X>X>X>X>X>X",
">X>X>X/ k.#X`.j.>.>X>X>X* 8 v 7.i.m.>X>X>X>X>X>X>X>X>X>X>X>X- D %.G.:X>X>X>X>X>X>X>X>X",
">X>X>X#.L.#X'.j.s.>X>X>X>Xe s Z *.a.].>X>X>X>X>X>X>X>X>X>X>X5 Q &.G.:X>X>X>X>X>X>X>X>X",
">X>X>X-./.#X`.j.C.>X>X>X>X* 8 z Q *.C.>X>X>X>X>X>X>X>X>X>X>Xq Z } G.>X>X>X>X>X>X>X>X>X",
">X>X>X:.P.'.J.w.Q.>X>X>X>X>X> i Q | f.>X>X>X>X>X>X>X>X>X>X>X>Xj ) Y.>X>X>X>X>X>X>X>X>X",
">X>X>X=.l.J.w.8.>X>X>X>X>X>X>X> v &.i..X>X>X>X>X>X>X>X>X>X>X>X5 A U.>X>X>X>X>X>X>X>X>X",
">X>X>X@.w.j.6.s.>X>X>X>X>X>X>X>X< I y.~.>X>X>X>X>X>X>X>X>X>X>X>Xk i.*X>X>X>X>X>X>X>X>X",
">X>X>X..&.6.f.5.>X>X>X>X>X>X>X>X>Xw o.G.>X>X>X>X>X>X>X>X>X>X>X>X9 *.$X>X>X>X>X>X>X>X>X",
">X>X>X^ z b J t >X>X>X>X>X>X>X>X>X* h y.@X>X>X>X>X>X>X>X>X>X>X>X-  .{.>X>X>X>X>X>X>X>X",
">X>X>X>Xe = % : G >X>X>X>X>X>X>X>X>X9 ) K.>X>X>X>X>X>X>X>X>X>X>X5 %.].>X>X>X>X>X>X>X>X",
">X>X>X>Xf x v I { >X>X>X>X>X>X>X>X>X& h 9.XX>X>X>X>X>X>X>X>X>X>X> U b.>X>X>X>X>X>X>X>X",
">X>X>XF D ( I +.h @.>X>X>X>X>X>X>X>X>X4 U Y.>X>X>X>X>X>X>X>X>X>Xw k 0.>X>X>X>X>X>X>X>X",
">X>X>Xm J L J 3.I D V.>X>X>X>X>X>X>X>X>Xp &.XX>X>X>X>X>X>X>X>X>Xv.z.!.XX>X>X>X>X>X>X>X",
">X>X>XV Y D N X.W p >.>X>X>X>X>X>X>X>X>X> b S.*X>X>X>X>X>X>X>Xx.U.v.S.G.C.V.>X>X>X>X>X",
">X>X>X>XV F F F ^ > ..>X>X>X>X>X>X>X>X>X>X7 | |.>X>X>X>X>X>X>Xx.! t K { 3.3.z.5.Z.>X>X",
">X>X>X>X>X>X>X>X>X>X>X>X>X>X>X>X>X>X>X>X>X- h r.~.>X>X>X>X>X>X5.2.>X>X>X>Xl W a _ c.>X",
">X>X>X>X>X>X>X>X>X>X>X>X>X>X>X>X>X>X>X>X>X>X7 _ n.I.XX-X*X>X>Xl >X>X>X>X>X>XO.l C #.>X",
">X>X>X>X>X>X>X>X>X>X>X>X>X>X>X>X>X>X>X>X>X>Xt _ S.T.!.!. X[.V.-.>X>X>X>X>X>X/ C 9 H >X",
">X>X>X>X>X>X>X>X>X>X>X>X>X>X>X>X>X>X>X>X>X>X1 Z s.T.n.r.s.#.@.f.t.>X>X>X>X>Xy 7 p S >X",
">X>X>X>X>X>X>X>X>X>X>X>X>X>X>X>X>X>X>X>X>X>X>X5 a W =.;.' t.S %.O.>X>X>X>X>Xy 4 q >X>X",
">X>X>X>X>X>X>X>X>X>X>X>X>X>X>X>X>X>X>X>X>X>X>X>X>X>Xl o.h 1.>X..P t.>X>X>X>X>X>X>X>X>X",
">X>X>X>X>X>X>X>X>X>X>X>X>X>X>X>X>X>X>X>X>X>X>X>X>X>X>X..b P >X^ U H >X>X>X>X>X>X>X>X>X",
">X>X>X>X>X>X>X>X>X>X>X>X>X>X>X>X>X>X>X>X>X>X>X>X>X>X>X>XL d [ >XH l >X>X>X>X>X>X>X>X>X",
">X>X>X>X>X>X>X>X>X>X>X>X>X>X>X>X>X>X>X>X>X>X>X>X>X>X>X>Xw < y >X>X>X>X>X>X>X>X>X>X>X>X",
">X>X>X>X>X>X>X>X>X>X>X>X>X>X>X>X>X>X>X>X>X>X>X>X>X>X>X>Xq >X>X>X>X>X>X>X>X>X>X>X>X>X>X",
">X>X>X>X>X>X>X>X>X>X>X>X>X>X>X>X>X>X>X>X>X>X>X>X>X>X>X>X>X>X>X>X>X>X>X>X>X>X>X>X>X>X>X"
};
