/* XPM */
static char *Z2dnKyUyODElMjku[] = {
/* columns rows colors chars-per-pixel */
"64 64 175 2 ",
"   c #2D1500",
".  c #2D1800",
"X  c #331D02",
"o  c #381E04",
"O  c #331D08",
"+  c #391F0E",
"@  c #362105",
"#  c #3B2305",
"$  c #3C250B",
"%  c #3E280A",
"&  c #3C2512",
"*  c #3E2911",
"=  c #402805",
"-  c #41270C",
";  c #432B0D",
":  c #47300E",
">  c #48310F",
",  c #442D13",
"<  c #492F15",
"1  c #442D1B",
"2  c #482E1D",
"3  c #463113",
"4  c #4B3315",
"5  c #46311A",
"6  c #4C341A",
"7  c #4E391C",
"8  c #503615",
"9  c #513A15",
"0  c #50361B",
"q  c #533B1D",
"w  c #593F1E",
"e  c #4C3622",
"r  c #4E3A22",
"t  c #513722",
"y  c #543D23",
"u  c #593F23",
"i  c #543D29",
"p  c #593E29",
"a  c #574123",
"s  c #5B4325",
"d  c #5F4826",
"f  c #57422A",
"g  c #5C442B",
"h  c #5E492B",
"j  c #554231",
"k  c #5D4531",
"l  c #5F4931",
"z  c #614726",
"x  c #614926",
"c  c #6A4D26",
"v  c #61472A",
"b  c #634B2D",
"n  c #694E2B",
"m  c #66512E",
"M  c #6B532E",
"N  c #6F582E",
"B  c #71562E",
"V  c #725A2E",
"C  c #614631",
"Z  c #644C32",
"A  c #684E32",
"S  c #644C3B",
"D  c #6C4F3D",
"F  c #665133",
"G  c #6C5434",
"H  c #6E5935",
"J  c #66513A",
"K  c #6D553A",
"L  c #6F5939",
"P  c #715635",
"I  c #735B35",
"U  c #785D36",
"Y  c #71573A",
"T  c #745C3B",
"R  c #795E3B",
"E  c #776037",
"W  c #796135",
"Q  c #76613B",
"!  c #7A623D",
"~  c #7F683F",
"^  c #6D5740",
"/  c #6D5942",
"(  c #755D42",
")  c #795E42",
"_  c #765F49",
"`  c #795F48",
"'  c #766141",
"]  c #7B6344",
"[  c #7E6946",
"{  c #76614A",
"}  c #7D654A",
"|  c #7E694A",
" . c #7E6953",
".. c #81653E",
"X. c #80673F",
"o. c #836543",
"O. c #846546",
"+. c #806545",
"@. c #806842",
"#. c #816946",
"$. c #806749",
"%. c #816A4A",
"&. c #83684D",
"*. c #80684E",
"=. c #846B4C",
"-. c #816D4C",
";. c #816C4D",
":. c #866F4F",
">. c #836B4C",
",. c #886E4D",
"<. c #86704E",
"1. c #89714D",
"2. c #89714F",
"3. c #89734E",
"4. c #89724E",
"5. c #816E50",
"6. c #816D52",
"7. c #846C50",
"8. c #866E52",
"9. c #866E54",
"0. c #846E56",
"q. c #846D52",
"w. c #8B6E50",
"e. c #886F52",
"r. c #836D58",
"t. c #857055",
"y. c #867051",
"u. c #887054",
"i. c #8D7654",
"p. c #8B7354",
"a. c #8E7856",
"s. c #877159",
"d. c #8A7258",
"f. c #8D735A",
"g. c #8C745A",
"h. c #8E765A",
"j. c #8A745D",
"k. c #8C755A",
"l. c #8F795A",
"z. c #917754",
"x. c #907854",
"c. c #907957",
"v. c #907C57",
"b. c #917956",
"n. c #90755A",
"m. c #90775A",
"M. c #967B5D",
"N. c #917D5C",
"B. c #937B5C",
"V. c #987D5F",
"C. c #987D5E",
"Z. c #8C7563",
"A. c #8A7860",
"S. c #947F62",
"D. c #947D62",
"F. c #987F62",
"G. c #947F6B",
"H. c #97815F",
"J. c #988158",
"K. c #9A805B",
"L. c #99815D",
"P. c #968261",
"I. c #9B8062",
"U. c #9B8263",
"Y. c #9D8360",
"T. c #9B8363",
"R. c #9E8867",
"E. c #9D8569",
"W. c #9C846B",
"Q. c #9F8869",
"!. c #9F8869",
"~. c #A18965",
"^. c #A08769",
"/. c #A28A6A",
"(. c #A99071",
/* pixels */
"L h j.L v V.C.M.z.n 5 5 j / f a b ] d ( ;.Z T L R I R ..o.O...o.O.p p ,.U U Y P G ) g h r.1 % f q m T ( J f i e * ( ) A Y P I R ",
"' s } K Y V...B W i.g (  .$ { l.a.9 3 h 8.K Y ( I T ..U P ....^ D 2 P w.U U I R ( T 6 { { ;  .P.<.m 7 e e * f  .C Z Y A Y T ! T ",
"( y g f n.P c B M ~ a Z h L J.Q [ 1.[ m R | ] I U W U I U R R R C p f.) T ] R R Y v $ p y 3  .<.Y =.;.Z r J s. .f v A +.L G T ! ",
"J K   &.w.n B c B @.F X a | H Q U M [ G b ] ] ] W ! U W R P Y P t - D O.) T ] ] v 0 u.d.Z 6 | | F F ( t.r 5 ^ a p G q s H ! L T ",
"I w I L.P c B V U E G 6  .' Q G T T ! ] 4 7 h Q [ I I ! ! R T u p { C { ) R J n 4 ) n.&.^.a G %.n Y ` K 7 J @ K !.U.C.x w M R G ",
"E 9 z.i.c B P U N ] F a  .' T ' R ] [ ( s a.y a ] } ' Y ] T v y t ` i , s , v 4 y /.K T ] G F +.G Y Y s J y.3 | ] [ ] M.%.9 F R ",
"a h !.Y z P P U R T ' 7 ' ] F Q ` R 7.( 6 7 5 * , h ( R Z 0 , 0 y ^ Z v . G H.v =.;.T Y $.G G +.G K Y K 7 7 ;.| Q ! G I p.%.6 q ",
"h Z s.K P A U R Y ' ' 7 f L ] ' $.&.A 0 $ l s.W.Z $ r f $ 6 } G.;.} i.y.y L ] d D.R ) ) $.b 4 &.Y Y ) Z 4 | <.Q T I T ! R y.8.4 ",
"W.l ^ J G J T { T { l h * a f L ] s 8 b e.k.|  .' f a   { P.y.H L F H ' F 4 q T p.Q T ] ] u # s L ' ! 7 L l.Q Q L I ~ T ] ] ] 6 ",
"i 6 / L K T ( l f r $ / J j.h 5 4 G $.p.] G m G f @ h l.M.L G I H E N H #.v X :.%.T Y } R - P ( d q q % H { L L T Q T ' b %.Y 6 ",
"/ S Z ' R | ( y { e r e & J 5 O G v.U m G G L H f s /.<.G M Q H E m Q ~ #.M b v.] Y [ ] 0 G F.z.C.$.s a  .] ] L T T [ R T L J s ",
"/ A.6 Q } G l 6 k * J A.{ e 1 { y.x P T N T I m d a a.H H I N V E E Q ! :.9 a ,.L T [ x 8 ^.+.A Y ,.(.4 a | ' [ ] [ [ R ' ] b y ",
"1 j   $ 9 6 y Z.5 J l.' P.F f l.v n T E ~ H T R 9 Q y.G L U I V E E R ] J q J J T [ M > ] y.J T T P $.M.# y J L $.%.Y b a h a 7 ",
"S j |  .<.] q v f j.L x h H h <.G R ] ] [ T R d : F q.Q P P I W E ~ T Y v Z r.r ] Y q s C.T T L P ! R %.( a 7 3 3 4 ; u G 6 3 L ",
"s.| [ Q U [ G ; s.L F I F G h } A f G Y H L v p ( Z / { ) R I I Q L K K C e ( * 3 3 s H.1.I ] Q R T T ) 8.h a B.;.) d T v.L L !.",
"F G E H U ~ u ] y.H F G T ) A i i q.i i a 4 6 - / C 2 7.( ] ( T T L ( f 6 i h Z | F q !.T ] T R R R ) ] { Z ] D.) ] i.b Y f l.] ",
"H L H F ] R q ) ,.A M I K K / 1 f g % L Z v ] ] v K < v &.) R ( ( K s 4 R /.L.v.v.U.d b y.Q ] ] +.) R ` ] u =.=.n G o.[ 8 n p.A ",
"H H L ' T J u +.,.G G G L ( } r f / | 5 a v.Y.B.V.B.n., i } J L K s 6 <.Y.X.E ! G ] a.a L y.[ Q T ) ) G R 0 ,.] n ! R 1.n T +.T ",
"G L L Q v b < ,.,.n G G G ' | Z *  .| f b.L.[ n P G ] L ; d g F y 6 H.1.m I N H R U ] ' $ T { L Y Y R Y v y M.Q M R R Y v ) Y K ",
"H L L d p < q R z.M B I I E ~ T 7 J L 7 /.! M I P ! M | v X 9 % , B.v.H B N H I G G } T @ 6 g Z A A A C q d u.R Y ] G G A ] K Y ",
"G v , v ` ` w.b m.I I E U U R R h * 7 F M.I V V I I U T T 4 Z s B.B.n G G I U ! [ [ ] K h } * e 6 p s 0 T Y ] %.Q L T v q 7 } ( ",
"4 z q d s e.&.v %.R T I U U ..R Q a . l.3.V V M H W U R ] F # T /.T G I W T W R ] Y } K i C C g f Z J g g , 6 %.] { L d ;.K 5 g ",
",.p.B.s g d.{ F Y ( Y Y U P ..P L l a H.#.N V V U N I I ' [ v d S.T Q M [ W [ ] T T K v 6 Z G.( ` f u Y ,.-.x q v } ] y s | 6 h ",
"=.) ] b Z q.;.i _ ) Y ) R P P P J e h R.~ N N N E I W Y L ] } , F | H Q R Y I P ( R u , K G.L { , A p.] Y ] 3.-.d q A f 6 % G M.",
"P ] ] J % g a 5 f ( / ( Y D P D Z * i R.Q H I V N T I Y ] ] ( b 7 ;.T G Y C F Y Y w v d l.{ ( F u p.T M n M I ! a.Z q M.K 0 z.G ",
") Y ] s F | |  .f r ^ _ ` A D A i _ } Q ] I I I I Y ' R Y Y K C @ X G F A Y b n d q s w y.Q } h R &.G G G P I ! R Y u C q m.T Y ",
"L } R 3 | { / _ _ 2 2 k S D l i t r.K v ;.F ! G Y ] G K Y K 0 0 A Y 3 i h A Y v 4 I [ s p.} ] s m.R N P B U R ! ] ] 0 - M.] P ! ",
"{ ' q q F H / ' { / + t e 1 e f y r.( a F ] Q Y R Y T J v 3 u 8.B.u.q.K < u z 3 ! /.L.G 9 G g { z.G P N P W ] W ] K o v G.T [ I ",
"6.Z l a.a @ s s t $ _ G.f i h L C < 6 ' q q b ' T F h y , Y a.] L T ( u.) < < =.B.T [ T 9 y f 7.&.n Y M I ~ ! ] ) v / J ] } R ] ",
"{ j , 5 L [ m 6 K p 5 i 6  ./ . y B.L x s 4 ; , y h 3 y w.i.Y M T R [ R e., P B.L I H ~ J ] K { $.C M G W [ ! ] K f d./ v u.[ <.",
"e e * Z.s.p.<.x ] K | s.f { l f l.] ' -.i.R.a.T 6 g T R h.n U U E ! [ ! ] 4 $.&.Y T I L Y 6 $ j.] A n G E E ] T h & f f @ F d.H ",
" .* { A.L T ] R v y k.} l K a  .Q b M H I Q | i.M.] 7 ;.%.T x H E E R T Y t e.T T Y T Y ] v + D.K F F T L Q [ L 6 g j.A.{ s 5 r ",
"G a N.T Y T R +.T 4 m.J K $ J | L M P N G U Y ! [ ] 3 l.;.L I Y Q I L R s C m.Y P P Y R ! Y 0 G.T G F G Y K ' d u ^.y.] j.U.f D ",
"4 h.;.v Y T Y $.) b ` D ( 1 { J m W P N N G ! T [ L q M.T L T Y G H K ( e ` f.Y T N R I I ) q p.=.G F Y Z K G 4 [ ,.N T T ] K , ",
"G l.n R T P T Y G Y } _ _ 6 l ( c L I L I L R ) ] ) 9 %.( ( G Y F T T Z o F.$.Y U U I W T T y C u.( K L L ^ g v L.T U P U =.Y 6 ",
"Q i.F ! R T R ! A z w.( ( s 9 J L P I G Y R Y ] ] P X y w.J ( C L F F 7 b F.` Y P ! I E R T i p Z ` ( ( Y v < 8.1.I I I ! R ] q ",
"T v.Y I T T P [ T # = n > ;.T s I T ] Y R ] Y } } A y y y } _ K K K 3 y p p.) I U I W H R ` t D g   y 6 u u R ' 1.L W E T ] ] 9 ",
"Q y.m R I T P T G = Y ) q w s 3 b %.] ,.%.Y ] Y } K y K $ h K ( f t , v v w.R P U U I U ) ( 2 k - 0 G Y u v v Y y.T R T ! ] K % ",
"w y.G R T ) T ] b w U.i.<.] ! y.v q n F ) =.] w.w.v b w.&.0 , y b p.M.} < %.] P T W P ! T u y v C.L.z.C.M.B.] Z | ] { ( ;.( g G ",
"4 { T ] ` T T T w b n.G M L Y ' y.G o q b y T A a < q C q g v =.D.U.B.D.w.Y 1.Y W T ! R u 0 G U.,.! U o.#.=.i.R F <.T &.} 6 _ P.",
"v p.` ] ( G ] Y 9 ] h.K A F P G T ] 3 v.M.T - q L :.U.F.B.M.M.y.T G M G ] p y F T ] ] v 4 [ !.[ I U U I [ [ Q ' 4 ' } ( h v _ v ",
"g w.) ) } ` ] J 3 T M.G Y P P J T %.a m R q b Y.M.i.:.] ( I b x c m m R R u i < s 6 g 4 ] H.! T R I B P I L ' <.f # y % , G 4 v ",
"9.0 < v Z ( A s 4 b i.G P F P I R ] Y ; 4 R B.] G n z x b z x n N c I T ] y f { ^ Z ; ( T.! L E R Y F G G G [ ] q 7 y i.x.M.L.z.",
"` Y D < 6 0 s ; A J G ] G P R G G ] G q a.i.M z v M M b M M m N H P T ] [ u K G.} k.v F P.I ! m A Y A G F ] [ h Z l.m !.3.E W V ",
") ' 7 3 } 4 4 d b = ;.] T F F R R T 6 K i.a z b M G M m G I G H I G [ Y ] 4 3 Z Z ( g h B.T H M A K A A H [ | q Z } b M.I E V W ",
"T ] ' q ; ( M.h.a.L Z +.G I P I T G 7 B.L v G F T Y L P T I U I I R P R M = F m 7 6 @ Z y.' G G Y P G Y L [ { 7 L t.s u.! U B W ",
"R ] ] q s T.' L ] Y w #.R R T U ] 7 4 B.v F b G G G Y T I I T T T Y T T ; ] H.a.P.l.' 3 Z ! ( T R I T ! ~ [ L 3 { K g =.T R ..V ",
"] } G > a.[ v T Q ] 4 ! %.W R ] s h v Y J Z G G G I T I L Y R T ( ) G ; T p.H Q ' [ P.q.6 y Y %.] Y Q W ! [ F @ 5 % K f.) T R U ",
"] ( 9 T 3.G Q L ' L % * a 7 4 7 . 1 6 l J F K Y I I I I I T R K ( / @ h l.L T ! Q T ! ,.M.u 6 ( 7.] ' Y ,.] a 9 F.h ] :.) ! I R ",
"( ( 9 K 3.H Q ] ' a Z  .G Q L E / ( f * / L K L R L L H W T ( ' J 5 f l F ' T Y ! ! W ! ` f.y 6 y K Z T J A w F D.K K } Y ] U T ",
"( 4 v Z d [ ' [ h r H.| } y.] -.j.q.t.6 f ] ] Y G T W E [ +.] Z 6 5 j./ r ' } ! T [ T ! T ] 7.i / < 6 6 < q ; i ` p i w.` T ] T ",
"- f T b h > h s * r | F J x F T G T { g O i K } } Q ] | +.I F 9 * 7 7 5 f y.Y T ! ! +.P Y $.Z } $.0 T b R +.T K p # g t Z n b y ",
"$.f.+.p.i.,.q q D.Z ;.v F G R Y ' | } J C } , A ( ] $.) b ; 0 ) j.W.f K v _ 7.] ] ] ) Y T ( g T 0 #.~.~.~.J.K.J.C.Y u A w.d = 9 ",
") v J P Q #.' q y b 7.n G P L T Q H ] J Z q.t 6 y u w 4 ; T Y.B.' H [ { K , } 7.=.T P F T Z , q b.J.X.W W ..! ! T ] - $.y.w U v.",
"Y P Y G G ! R > > i.F G I T I I ! E Y [ i 6 f._ p < # F C.C.Y b m F  .h y { $ 6 h R Y R K v r U.z.I U I V U R ] Y ) A , q n M.F ",
"G P b I Y ! L ; 1.] F G P G I R I I T Y p 6 _ t 4 A w.F.R F n F F / | Q Z } f 7.C 6 7 b h 4 ( a.R ! I W I U R R ) ) ) 0 , Y p.F ",
"m U M G T ] d s v.M M L H I U I U H H Q s 3 2 ( M.p.R F G G F G L L y.Z ] y ( W.D.e.v , 6 7 J q.~ U E X.! P P T ) O.( t ` Y p.A ",
"N M P I H Q d d y.M M M I E P U I H P m s 6 e.B.A J A F T T G Y ' | %.a g 6 G.7.( ;.u.,  .| g <.U U W W ! U P T +.] P < - u w.G ",
"I P G L G G s w i.G I I U I H E W G I y v ^.e.v A A G I R P G R [ [ ' h $ e.=.+.} ' [ f h G 5 { U U W W W W W ! R R F 4 P b :.T ",
"T U G G T b y h :.d E ! I T Q U G I n 9 y.y.Z A Y I L U T Y I [ [ Q ' ; D M.$.) Q | L L 1 @ 5 J U I U V U W ! R R K s u :.G =.T ",
"! G Y T ^ i , , ;.F Y Q L R ' L G n q ] M.v F G M B I U U T Q ] T ] b : p.=.] ] ' ' Q J r k _ i L Y T R E Q T Y ( K s f ` s } } ",
"d b F K p p 6.S L G L Q ] Q Y Z w 4 w U.G F P M G I E E T E ! ] ] ] u w n.+.R ] [ L Q H r / e / ( R R T Y T T / K h < , 6   6 q ",
"u 6 6 f e j Z.5 f L ( ] ( g s 4 $.w.a B.] F m I N V I I W W ..] ] Y 3 ] :.! ] T Q I L h 5 / e f ) ! T P P I I I C q J l.' Q Y F ",
"B.l K C & & i 5 * g F F s 6 K K ) +.q w.] M M I E W W ! ! ~ o.[ [ v 0 w.] I R ! M ! m 7 a.f k f G T I P G P F v y d t.[ | y.<.a."
};
