/* XPM */
static char *result[] = {
/* columns rows colors chars-per-pixel */
"40 40 207 2 ",
"   c #110500",
".  c #190701",
"X  c #150901",
"o  c #190901",
"O  c #1A0901",
"+  c #1B0802",
"@  c #1D0B01",
"#  c #180C00",
"$  c #1A0D00",
"%  c #1D0E01",
"&  c #1E0E01",
"*  c #1F0F01",
"=  c #1C0D02",
"-  c #1D0C03",
";  c #1F0D03",
":  c #200902",
">  c #220D02",
",  c #200E03",
"<  c #240F01",
"1  c #240F04",
"2  c #2A0901",
"3  c #2A0C03",
"4  c #390C03",
"5  c #241101",
"6  c #221104",
"7  c #261306",
"8  c #2A1201",
"9  c #2F1202",
"0  c #2D1602",
"q  c #2F1702",
"w  c #2A1405",
"e  c #2D1405",
"r  c #2E1804",
"t  c #331302",
"y  c #3F1302",
"u  c #3A1404",
"i  c #311903",
"p  c #371903",
"a  c #361E04",
"s  c #3A1B03",
"d  c #3C1B05",
"f  c #3E2403",
"g  c #3A2204",
"h  c #401505",
"j  c #411D03",
"k  c #461C02",
"l  c #4B1803",
"z  c #4E1F04",
"x  c #561403",
"c  c #501304",
"v  c #531504",
"b  c #531E02",
"n  c #591E04",
"m  c #511F08",
"M  c #591F09",
"N  c #671E02",
"B  c #422004",
"V  c #4A2202",
"C  c #482705",
"Z  c #4C2605",
"A  c #4E2706",
"S  c #412805",
"D  c #462D05",
"F  c #4D2E05",
"G  c #4F2D08",
"H  c #5B2402",
"J  c #5F2004",
"K  c #5C2206",
"L  c #542903",
"P  c #552D03",
"I  c #512F05",
"U  c #582D06",
"Y  c #503107",
"T  c #523406",
"R  c #5D3605",
"E  c #563A05",
"W  c #563308",
"Q  c #5A3A09",
"!  c #672604",
"~  c #632B04",
"^  c #6E2B04",
"/  c #682609",
"(  c #652808",
")  c #792606",
"_  c #732B04",
"`  c #742B08",
"'  c #702E09",
"]  c #653305",
"[  c #633D06",
"{  c #643109",
"}  c #613C09",
"|  c #693F08",
" . c #683E09",
".. c #6D3E0A",
"X. c #703205",
"o. c #773304",
"O. c #733F07",
"+. c #773209",
"@. c #783609",
"#. c #773C0B",
"$. c #624209",
"%. c #674309",
"&. c #674608",
"*. c #6C400C",
"=. c #6F4C0B",
"-. c #724807",
";. c #714009",
":. c #784108",
">. c #78400B",
",. c #7E4009",
"<. c #764C0B",
"1. c #7A490A",
"2. c #7F4908",
"3. c #79580B",
"4. c #823604",
"5. c #8A3306",
"6. c #8D3B09",
"7. c #8F3D0C",
"8. c #874707",
"9. c #82410B",
"0. c #864008",
"q. c #8D4408",
"w. c #854C08",
"e. c #9E4B03",
"r. c #954608",
"t. c #9B470B",
"y. c #934A09",
"u. c #974B09",
"i. c #914A0C",
"p. c #86500D",
"a. c #89540A",
"s. c #8E570C",
"d. c #81580A",
"f. c #895C0C",
"g. c #975008",
"h. c #91500C",
"j. c #9D550D",
"k. c #95580C",
"l. c #9B5D0D",
"z. c #8B4010",
"x. c #A74F09",
"c. c #A74D0E",
"v. c #A6520D",
"b. c #AB530A",
"n. c #A15B0A",
"m. c #A85908",
"M. c #B95C06",
"N. c #A05D16",
"B. c #8F620D",
"V. c #8F6A0F",
"C. c #896C0F",
"Z. c #9A660D",
"A. c #97790E",
"S. c #AD670D",
"D. c #AA6D0F",
"F. c #BA6407",
"G. c #B6610B",
"H. c #B3600D",
"J. c #B0610F",
"K. c #BD630C",
"L. c #B8660C",
"P. c #B66D0A",
"I. c #A8710C",
"U. c #A3790E",
"Y. c #A97B0C",
"T. c #BE710F",
"R. c #B37A0D",
"E. c #B17F0F",
"W. c #B97E0D",
"Q. c #A36110",
"!. c #A86112",
"~. c #AD6912",
"^. c #B56415",
"/. c #B26910",
"(. c #B47318",
"). c #BA7519",
"_. c #C1640B",
"`. c #C66B0B",
"'. c #CD6B0B",
"]. c #C4770E",
"[. c #C8750E",
"{. c #D1740B",
"}. c #D2790B",
"|. c #D1780F",
" X c #CF7711",
".X c #C27919",
"XX c #A4810D",
"oX c #B3860E",
"OX c #BE800B",
"+X c #B68B0F",
"@X c #B0900C",
"#X c #BD8710",
"$X c #BC9010",
"%X c #BC8424",
"&X c #C6820D",
"*X c #C4890E",
"=X c #CB8B0E",
"-X c #D1810C",
";X c #D98C0E",
":X c #DF970D",
">X c #CA8012",
",X c #D18710",
"<X c #C79610",
"1X c #CD9A11",
"2X c #D3981F",
"3X c #D1A10E",
"4X c None",
/* pixels */
"4X4X4X4X4X4X4X4X4X4X4X4X4X4X4X4X4X4X4X4X4X4X4X4X4X4X4X4X4X4X4X4X4X4X4X4X4X4X4X4X",
"4X4X4X4X4X4X4X4X4X4X4X4X4X4X4X4X4X4X4X4Xm M ( ( ' / x 4X4X4X4X4X4X4X4X4X4X4X4X4X",
"4X4X4X4X4X4X4X4X4X4X4X4X4X4X4X4X4X4Xe + o o # X o 5 k v d h 4X4X4X4X4X4X4X4X4X4X",
"4X4X4X4X4X4X4X4X4X4X4X4X4X4X4X4X4X3 5 p z ! X.L 5   % A :.q.v. X4X4X4X4X4X4X4X4X",
"4X4X4X4X4X4X4X4X4X4X4X4X4X4X4X4X, p H _ _ 0.].:XW.F   5 A O.l.T.}.4X4X4X4X4X4X4X",
"4X4X4X4X4X4X4X4X4X4X4X4X4X4X4X3 p k X.o.8.*XD.2.S.!.: X i C | l.L.{.4X4X4X4X4X4X",
"4X4X4X4X4X4X4X4X4X4X4X4X4X4Xu s k z ,.P.OXh.+.4X4X4X4X, % i C O.g.F.'.4X4X4X4X4X",
"4X4X4X4X4X4X4X4X4X4X4X4X4X4XB P L ,.D.&X0.K 4X4X4X4X4X4X= 5 8 F :.g.M.K.4X4X4X4X",
"4X4X4X4X4X4X4X4X4X4X4X4X4XZ T [ | I.OXk.{ 4X4X4X4X4X4X4X1 % 5 i W 2.e.`.^.4X4X4X",
"4X4X4X4X4X4X4X4X4X4X4X4X4XB F P -.oXd.;.4X4X4X4X4X4X4X4X4XO 5 5 S | 8.L.|.4X4X4X",
"4X4X4X4X4X4X4X4X4X4X4X4Xm f C L U.W.>.4X4X4X4X4X4X4X4X4X4X; * * i W :.l.;X>X4X4X",
"4X4X4X4X4X4X4X4X4X4X4X4XG S T f.<XZ.{ 4X4X4X4X4X4X4X4X4X4X4X% * 5 C | w.P.[.4X4X",
"4X4X4X4X4X4X4X4X4X4X4X4X=.D [ R.Z.U 4X4X4X4X4X4X4X4X4X4X4X4X= * * g Q O.r.`.!.4X",
"4X4X4X4X4X4X4X4X4X4X4X*.A.[ s.#X-.Z 4X4X4X4X4X4X4X4X4X4X4X4X, * $ q F ] 4.x.b.4X",
"4X4X4X4X4X4X4X4X4X4X4X<.@X1.Z.+Xf.} 4X4X4X4X4X4X4X4X4X4X4X4X6 * $ 5 S R q._.G.4X",
"4X4X4X4X4X4X4X4X4X4X4XC.@X| U.3XZ.4X4X4X4X4X4X4X4X4X4X4X4X4X1 & $ % g W g.`.J.4X",
"4X4X4X4X4X4X4X4X4X4X4XA.XXR V.E. .4X4X4X4X4X4X4X4X4X4X4X4X4Xw & # $ a F ~ L.,X(.",
"4X4X4X4X4X4X4X4X4X4X4XA.3.D V.%.G 4X4X4X4X4X4X4X4X4X4X4X4X4X4X% # $ i F b g.&X~.",
"4X4X4X4X4X4X4X4X4X4X4X3.E D Y.f...4X4X4X4X4X4X4X4X4X4X4X4X4X4X& # $ i V H g.,XS.",
"4X4X4X4X4X4X4X4X4X4X4XQ D $.<XB.I 4X4X4X4X4X4X4X4X4X4X4X4X4X4X& # $ q V ~ y.].K.",
"4X4X4X4X4X4X4X4X4X4X4XS T =.oX&.I 4X4X4X4X4X4X4X4X4X4X4X4X4X4X% # $ 0 V n 4.L.K.",
"4X4X4X4X4X4X4X4X4X4X4Xg $.F V.=.Y 4X4X4X4X4X4X4X4X4X4X4X4X4X- $ # # q V n 0.].H.",
"4X4X4X4X4X4X4X4X4X4X4Xg D $.$Xd. .4X4X4X4X4X4X4X4X4X4X4X4X4X7 $ # $ q k ! r.n.N.",
"4X4X4X4X4X4X4X4X4X4X4Xg S B.1X+X1.4X4X4X4X4X4X4X4X4X4X4X4X4Xe $ # & p k o.x.D.!.",
"4X4X4X4X4X4X4X4X4X4X4Xd D 3.U.#Xs.p.4X4X4X4X4X4X4X4X4X4X4X4X> $ # * s l m.-X).4X",
"4X4X4X4X4X4X4X4X4X4X4Xr D T =.*XD.*.4X4X4X4X4X4X4X4X4X4X4X4X= $ $ 8 j ! _.;X/.4X",
"4X4X4X4X4X4X4X4X4X4X4Xe D F Q oXI.<.4X4X4X4X4X4X4X4X4X4X4X4X& % % i k ^ `.].t.4X",
"4X4X4X4X4X4X4X4X4X4X4Xw S F [ E.1Xa.4X4X4X4X4X4X4X4X4X4X4X1 * % 5 s z ^ -X].4X4X",
"4X4X4X4X4X4X4X4X4X4X4X4Xa T | R.3XB.<.4X4X4X4X4X4X4X4X4X4X, * * 0 j H 0.].j.4X4X",
"4X4X4X4X4X4X4X4X4X4X4X4Xr T | a.Y.oX1.#.4X4X4X4X4X4X4X4X4X& % 5 s z o.n.,X9.4X4X",
"4X4X4X4X4X4X4X4X4X4X4X4X- f R P R Y.2.U 4X4X4X4X4X4X4X4X> & # q k ~ q.]..X4X4X4X",
"4X4X4X4X4X4X4X4X4X4X4X4X4X> V k j k.W.a.d 4X4X4X4X4X4X7 @ @ @ t b 4.J.2X4X4X4X4X",
"4X4X4X4X4X4X4X4X4X4X4X4X4X- p ~ H @.a.D.a.( 4X4X4X4X4X+ > o > y _ y.%XN.4X4X4X4X",
"4X4X4X4X4X4X4X4X4X4X4X4X4X4X: V b n l l.=XQ.o.7.4X4XO > @ o t ! q.Q.z.4X4X4X4X4X",
"4X4X4X4X4X4X4X4X4X4X4X4X4X4X4XO j z y b o.m.;X-Xl.a > > . 2 J r.J.6.4X4X4X4X4X4X",
"4X4X4X4X4X4X4X4X4X4X4X4X4X4X4X4X+ t k l N 5.r.] 8 @ * o j ,.u.v.c.4X4X4X4X4X4X4X",
"4X4X4X4X4X4X4X4X4X4X4X4X4X4X4X4X4XO . > 9 9 o X . . @ z h.i.+.4X4X4X4X4X4X4X4X4X",
"4X4X4X4X4X4X4X4X4X4X4X4X4X4X4X4X4X4X< + . X . . . 2 v ) ` 4X4X4X4X4X4X4X4X4X4X4X",
"4X4X4X4X4X4X4X4X4X4X4X4X4X4X4X4X4X4X4X4X1 : > 3 4 c 4X4X4X4X4X4X4X4X4X4X4X4X4X4X",
"4X4X4X4X4X4X4X4X4X4X4X4X4X4X4X4X4X4X4X4X4X4X4X4X4X4X4X4X4X4X4X4X4X4X4X4X4X4X4X4X"
};
