/* XPM */
static char *result[] = {
/* columns rows colors chars-per-pixel */
"40 40 219 2 ",
"   c #150400",
".  c #170500",
"X  c #1A0600",
"o  c #160800",
"O  c #150B00",
"+  c #180C00",
"@  c #1B0C00",
"#  c #1B0D00",
"$  c #1C0C01",
"%  c #1E0E00",
"&  c #200800",
"*  c #230B02",
"=  c #220C01",
"-  c #200F01",
";  c #280901",
":  c #2C0C01",
">  c #2C0D03",
",  c #310801",
"<  c #360801",
"1  c #241201",
"2  c #271002",
"3  c #2A1502",
"4  c #2F1702",
"5  c #2B1104",
"6  c #361101",
"7  c #311307",
"8  c #3B1601",
"9  c #391204",
"0  c #341B02",
"q  c #361D03",
"w  c #3E1A03",
"e  c #381F02",
"r  c #3D1D03",
"t  c #3A1807",
"y  c #3C2602",
"u  c #3F2703",
"i  c #3D2204",
"p  c #500F02",
"a  c #421202",
"s  c #4A1703",
"d  c #451C06",
"f  c #451F07",
"g  c #471E07",
"h  c #4B1A06",
"j  c #4A1F04",
"k  c #491D06",
"l  c #591302",
"z  c #571C02",
"x  c #511905",
"c  c #661B03",
"v  c #661D03",
"b  c #641E03",
"n  c #6F1D02",
"m  c #422603",
"M  c #422204",
"N  c #452104",
"B  c #482603",
"V  c #482206",
"C  c #482605",
"Z  c #492506",
"A  c #442A02",
"S  c #422904",
"D  c #452B05",
"F  c #4D2A04",
"G  c #482D05",
"H  c #4D2E06",
"J  c #512304",
"K  c #532405",
"L  c #502605",
"P  c #562707",
"I  c #592702",
"U  c #5C2504",
"Y  c #532A06",
"T  c #562E05",
"R  c #5E2E04",
"E  c #522E08",
"W  c #5B2808",
"Q  c #4E3405",
"!  c #533306",
"~  c #523605",
"^  c #5C3707",
"/  c #5F3A05",
"(  c #573608",
")  c #5C3709",
"_  c #57390B",
"`  c #5F3808",
"'  c #5F3908",
"]  c #612504",
"[  c #672805",
"{  c #6B2B06",
"}  c #6E2904",
"|  c #6F2E06",
" . c #6D2D0A",
".. c #712105",
"X. c #7C2404",
"o. c #762E03",
"O. c #613104",
"+. c #663605",
"@. c #6E3404",
"#. c #663F07",
"$. c #6D3E08",
"%. c #7B3305",
"&. c #743F07",
"*. c #7E3806",
"=. c #7A3F06",
"-. c #7F3E07",
";. c #753508",
":. c #73350C",
">. c #753F09",
",. c #723A0F",
"<. c #7A3A0A",
"1. c #7E3A0A",
"2. c #793D0A",
"3. c #5F4109",
"4. c #6D4C07",
"5. c #664209",
"6. c #68460A",
"7. c #7F4507",
"8. c #75470A",
"9. c #764F0B",
"0. c #7C4B0B",
"q. c #715406",
"w. c #775108",
"e. c #7E560E",
"r. c #812705",
"t. c #822604",
"y. c #873506",
"u. c #843E05",
"i. c #883F07",
"p. c #803A0A",
"a. c #823D0D",
"s. c #813F0C",
"d. c #923706",
"f. c #953A07",
"g. c #8E4905",
"h. c #82470D",
"j. c #814809",
"k. c #844D09",
"l. c #894908",
"z. c #9A4807",
"x. c #904508",
"c. c #924D0E",
"v. c #865409",
"b. c #8C5208",
"n. c #825D0B",
"m. c #8D590B",
"M. c #9F5007",
"N. c #915008",
"B. c #93520A",
"V. c #955309",
"C. c #9D5809",
"Z. c #965013",
"A. c #9A5F18",
"S. c #AD5107",
"D. c #A45208",
"F. c #A4540A",
"G. c #A05909",
"H. c #A7590A",
"J. c #A55F08",
"K. c #AB5A0C",
"L. c #AF5F0D",
"P. c #B55207",
"I. c #BB5B06",
"U. c #A05E19",
"Y. c #85650A",
"T. c #8B610B",
"R. c #94600B",
"E. c #91650C",
"W. c #9D610A",
"Q. c #996E0D",
"!. c #9C740A",
"~. c #987E0C",
"^. c #9E6210",
"/. c #A96009",
"(. c #AD610A",
"). c #A7680D",
"_. c #A46E0D",
"`. c #AF6C0B",
"'. c #AB6C0E",
"]. c #BF6107",
"[. c #B36009",
"{. c #B86E0B",
"}. c #AA700D",
"|. c #A3780A",
" X c #A6780B",
".X c #A77E0C",
"XX c #B0750C",
"oX c #B67F0C",
"OX c #BC7A0B",
"+X c #A86113",
"@X c #C46308",
"#X c #C0730C",
"$X c #C4720D",
"%X c #C4780A",
"&X c #C87C09",
"*X c #DC7309",
"=X c #D17D09",
"-X c #AE820B",
";X c #B6850D",
":X c #B0880F",
">X c #B19408",
",X c #BE9011",
"<X c #BDAE0E",
"1X c #C0800B",
"2X c #C7870B",
"3X c #CA810C",
"4X c #D48109",
"5X c #D28E0A",
"6X c #DB8809",
"7X c #C4980D",
"8X c #D7930B",
"9X c #DC990F",
"0X c #CEA10E",
"qX c #C9AA09",
"wX c #D5C30E",
"eX c #DACD11",
"rX c #E4D60E",
"tX c #FAEE0B",
"yX c None",
/* pixels */
"yXyXyXyXyXyXyXyXyXyXyXyXyXyXyXyXyXyXyXyXyXyXt.r.c yXyXyXyXyXyXyXyXyXyXyXyXyXyXyX",
"yXyXyXyXyXyXyXyXyXyXyXyXyXyXyXyXyXyXyXyX..X.X.d.d.n p x >.yXyXyXyXyXyXyXyXyXyXyX",
"yXyXyXyXyXyXyXyXyXyXyXyXyXyXyXyXyXyXyXh [ f.z [ ;.v v | /.K.2.yXyXyXyXyXyXyXyXyX",
"yXyXyXyXyXyXyXyXyXyXyXyXyXyXyXyXyXyXx %.I.S.| w 4 j =.N.J.{.3XK.yXyXyXyXyXyXyXyX",
"yXyXyXyXyXyXyXyXyXyXyXyXyXyXyXyXyX .%.].*XI.z.j $ i #.8.7.N.2X9X#XyXyXyXyXyXyXyX",
"yXyXyXyXyXyXyXyXyXyXyXyXyXyXyXyXyXW z.P.x.l.OX;.o 3 Y ' #.&.N.).'.[.yXyXyXyXyXyX",
"yXyXyXyXyXyXyXyXyXyXyXyXyXyXyXyXyXR -.O.7.2X'.%.6 1 M F ' #.@.x.H.G.F.yXyXyXyXyX",
"yXyXyXyXyXyXyXyXyXyXyXyXyXyXyXyXP @.O.$.R.1Xl.{ h % 4 e B _ +.7.3X`.M.yXyXyXyXyX",
"yXyXyXyXyXyXyXyXyXyXyXyXyXyXyXyXZ O.H v.2XW.j.yXP 1 1 3 e M _ #.'.OXN.F.yXyXyXyX",
"yXyXyXyXyXyXyXyXyXyXyXyXyXyXyXyXB A G Q.:X#.5.yX .4 - 1 0 e H _ m.8Xb.V.yXyXyXyX",
"yXyXyXyXyXyXyXyXyXyXyXyXyXyXyXr A y u .XQ.$.yXyXyXw - - 3 0 M H e.'.l.k.A.yXyXyX",
"yXyXyXyXyXyXyXyXyXyXyXyXyXyXyXV A y 4.7XR.! yXyXyXf - % 1 4 i M _ _.XX=.B.yXyXyX",
"yXyXyXyXyXyXyXyXyXyXyXyXyXyXyX! 4.~ Q.|.G L yXyXyXg - % - 3 0 i G R.m.+.u.yXyXyX",
"yXyXyXyXyXyXyXyXyXyXyXyXyXyXyX~.qXT.;XT.u yXyXyXyXV 1 # % 1 3 i T }.2X+.o.yXyXyX",
"yXyXyXyXyXyXyXyXyXyXyXyXyXyXyX<XtX-X-XE.6.yXyXyXyXL 2 # + % - T {.^.`.&.@.a.yXyX",
"yXyXyXyXyXyXyXyXyXyXyXyXyXyXyXwXtX-X7XoX9.yXyXyXyXk 3 # + # % M %X)._.k.R s.yXyX",
"yXyXyXyXyXyXyXyXyXyXyXyXyXyX3.eXtXY.|.E.! yXyXyXyXt 3 + + + % 3 T 0.8XT.J ,.yXyX",
"yXyXyXyXyXyXyXyXyXyXyXyXyXyX3.rXrXq.n.A D yXyXyXyXd 3 + + + % 1 4 T J.#.J :.yXyX",
"yXyXyXyXyXyXyXyXyXyXyXyXyXyX5.wX>X_ .X#.^ yXyXyXyXd 2 O O + - 1 4 ' 5XC.I p.yXyX",
"yXyXyXyXyXyXyXyXyXyXyXyXyXyXE !.q.w.,X#.S yXyXyXyXd 2 O O + - 1 4 ' 7.g.i.*.yXyX",
"yXyXyXyXyXyXyXyXyXyXyXyXyXyXr Q #.6.!.y S yXyXyXyXr 1 O O + % 1 3 Y -.R z.*.yXyX",
"yXyXyXyXyXyXyXyXyXyXyXyXyXyXr G ~ u Y.A D yXyXyXyXk % + O + # 1 w B OX=.} p.yXyX",
"yXyXyXyXyXyXyXyXyXyXyXyXyXyXr y y n.:X~ ` yXyXyXyX9 % + + + % 2 -.F O.J z :.yXyX",
"yXyXyXyXyXyXyXyXyXyXyXyXyXyXd e ~ XX7XT.) yXyXyXyX7 $ # + + % 2 l.O.j a z 1.yXyX",
"yXyXyXyXyXyXyXyXyXyXyXyXyXyXq e G n. XR.0.yXyXyXyX5 % # + # - N &X=.;.z z s.yXyX",
"yXyXyXyXyXyXyXyXyXyXyXyXyXyXyXy e u _.oX8.yXyXyXyX* $ # # % 4 =.6X/.$X] ] a.yXyX",
"yXyXyXyXyXyXyXyXyXyXyXyXyXyXyXu y y Q.-Xw.( yXyXyX= $ % - 1 M H.l.W.{.U | yXyXyX",
"yXyXyXyXyXyXyXyXyXyXyXyXyXyXyXm A Q  X0Xw.^ yXyXyX$ @ # 1 3 0 l.J.H.G.U <.yXyXyX",
"yXyXyXyXyXyXyXyXyXyXyXyXyXyXyXC F H _.7Xw./ yXyXt $ @ # 3 4 e N g.6XC.[ h.yXyXyX",
"yXyXyXyXyXyXyXyXyXyXyXyXyXyXyXV T T $.;X!.#.>.yX> % + - 0 8 N 6 ] D.i.-.yXyXyXyX",
"yXyXyXyXyXyXyXyXyXyXyXyXyXyXyXE R T B m.oX+.` yX* $ o - 0 w w a H.4Xi.c.yXyXyXyX",
"yXyXyXyXyXyXyXyXyXyXyXyXyXyXyXyXO.-.+.C.2X).T g . o o 2 : : 6 | H.H.x.U.yXyXyXyX",
"yXyXyXyXyXyXyXyXyXyXyXyXyXyXyXyXK i.7.b.b.OXk.w o o o : : : s z.=XD.Z.yXyXyXyXyX",
"yXyXyXyXyXyXyXyXyXyXyXyXyXyXyXyXd %.].G.N.1XW.& X o X & ; s } S.z.i.A.yXyXyXyXyX",
"yXyXyXyXyXyXyXyXyXyXyXyXyXyXyXyXyXb I.*XI.i.N   X o ; 6 s v o.y.z.+XyXyXyXyXyXyX",
"yXyXyXyXyXyXyXyXyXyXyXyXyXyXyXyXyX9 %.@X].[ X     & Y 0.k.g./.(.L.yXyXyXyXyXyXyX",
"yXyXyXyXyXyXyXyXyXyXyXyXyXyXyXyXyXyX* 8 6 X     & s -.C.(.&X{.1.yXyXyXyXyXyXyXyX",
"yXyXyXyXyXyXyXyXyXyXyXyXyXyXyXyXyXyXyX.   X   X < l t.d.D.L.yXyXyXyXyXyXyXyXyXyX",
"yXyXyXyXyXyXyXyXyXyXyXyXyXyXyXyXyXyXyXyX> , : a p b ..r.yXyXyXyXyXyXyXyXyXyXyXyX",
"yXyXyXyXyXyXyXyXyXyXyXyXyXyXyXyXyXyXyXyXyXyXyXyXyXyXyXyXyXyXyXyXyXyXyXyXyXyXyXyX"
};
