/* XPM */
static char *result[] = {
/* columns rows colors chars-per-pixel */
"40 40 135 2 ",
"   c #150400",
".  c #180600",
"X  c #1D0500",
"o  c #150800",
"O  c #140900",
"+  c #150900",
"@  c #160A00",
"#  c #170B00",
"$  c #1B0C00",
"%  c #1A0D00",
"&  c #1E0F00",
"*  c #260501",
"=  c #260601",
"-  c #290702",
";  c #210C01",
":  c #240F02",
">  c #2A0A01",
",  c #2F0C01",
"<  c #3F0E02",
"1  c #201000",
"2  c #231201",
"3  c #281202",
"4  c #2B1402",
"5  c #2F1401",
"6  c #2E1803",
"7  c #351304",
"8  c #341902",
"9  c #371B02",
"0  c #3F1903",
"q  c #391E03",
"w  c #3E1B05",
"e  c #3E2205",
"r  c #430B01",
"t  c #4D0D01",
"y  c #411403",
"u  c #451603",
"i  c #4F1204",
"p  c #411B05",
"a  c #431E04",
"s  c #501A03",
"d  c #472102",
"f  c #462505",
"g  c #4B2005",
"h  c #4B2407",
"j  c #4D2904",
"k  c #502406",
"l  c #582405",
"z  c #592607",
"x  c #542B04",
"c  c #522C07",
"v  c #5B2C07",
"b  c #592E06",
"n  c #542408",
"m  c #5C2708",
"M  c #543609",
"N  c #583009",
"B  c #5A3A0B",
"V  c #632405",
"C  c #6F2105",
"Z  c #6F2207",
"A  c #602F05",
"S  c #6C2D07",
"D  c #612909",
"F  c #602F09",
"G  c #662D0C",
"H  c #682908",
"J  c #732906",
"K  c #653306",
"L  c #6C3A07",
"P  c #66310B",
"I  c #6A3108",
"U  c #603809",
"Y  c #653D08",
"T  c #753106",
"R  c #7B3C07",
"E  c #77390B",
"W  c #713F09",
"Q  c #6E450A",
"!  c #6B410C",
"~  c #784207",
"^  c #7D4108",
"/  c #7A490B",
"(  c #7A4A0B",
")  c #812B07",
"_  c #852806",
"`  c #822D04",
"'  c #882A05",
"]  c #8B2E04",
"[  c #8C2D04",
"{  c #872F09",
"}  c #883B07",
"|  c #8E3806",
" . c #993605",
".. c #993D07",
"X. c #80410D",
"o. c #87430E",
"O. c #8D4408",
"+. c #854908",
"@. c #854A0A",
"#. c #8E4E0A",
"$. c #99450A",
"%. c #934C0F",
"&. c #83500B",
"*. c #8B520A",
"=. c #8A5B08",
"-. c #945108",
";. c #92570A",
":. c #9B5309",
">. c #975808",
",. c #935E09",
"<. c #854010",
"1. c #B04C07",
"2. c #A55907",
"3. c #A05C07",
"4. c #A85E0A",
"5. c #AE5E0A",
"6. c #AC5F0D",
"7. c #B1560C",
"8. c #B95709",
"9. c #9E660A",
"0. c #AF6607",
"q. c #A76009",
"w. c #A7600F",
"e. c #A86A08",
"r. c #BA610C",
"t. c #B86E08",
"y. c #AC710A",
"u. c #B07408",
"i. c #BD730A",
"p. c #C76C0A",
"a. c #C27709",
"s. c #C87D09",
"d. c #D18209",
"f. c #D58E08",
"g. c None",
/* pixels */
"g.g.g.g.g.g.g.g.g.g.g.g.g.g.g.g.g.g.g.g.[ ] ] ] $.6.D g.g.g.g.g.g.g.g.g.g.g.g.g.",
"g.g.g.g.g.g.g.g.g.g.g.g.g.g.g.g.g.g.g._  .1. .8.1.p.T * - g.g.g.g.g.g.g.g.g.g.g.",
"g.g.g.g.g.g.g.g.g.g.g.g.g.g.g.g.g.g.) C } #.T ` | p.r.S T o.g.g.g.g.g.g.g.g.g.g.",
"g.g.g.g.g.g.g.g.g.g.g.g.g.g.g.g.g.g.' C l a l S R s.d.q.3.4.g.g.g.g.g.g.g.g.g.g.",
"g.g.g.g.g.g.g.g.g.g.g.g.g.g.g.g.g.g.{ l 4 M U Y Q &.*.&.~ ;.w.g.g.g.g.g.g.g.g.g.",
"g.g.g.g.g.g.g.g.g.g.g.g.g.g.g.g.g.g.Z w 3 k x b b L &.Q Y ~ :.g.g.g.g.g.g.g.g.g.",
"g.g.g.g.g.g.g.g.g.g.g.g.g.g.g.g.g.g.m 3 6 f a j j K t.u.Y Y O.g.g.g.g.g.g.g.g.g.",
"g.g.g.g.g.g.g.g.g.g.g.g.g.g.g.g.g.g.n : e 9 5 q e Y -.q.U B W %.g.g.g.g.g.g.g.g.",
"g.g.g.g.g.g.g.g.g.g.g.g.g.g.g.g.g.g.n : q 3 ; : 8 f 3.f.x f Y @.g.g.g.g.g.g.g.g.",
"g.g.g.g.g.g.g.g.g.g.g.g.g.g.g.g.g.g.g 3 8 1 1 3 4 f ;.#.x e M / g.g.g.g.g.g.g.g.",
"g.g.g.g.g.g.g.g.g.g.g.g.g.g.g.g.g.g.g 4 4 % 1 2 2 6 +.y.&.9 f ! g.g.g.g.g.g.g.g.",
"g.g.g.g.g.g.g.g.g.g.g.g.g.g.g.g.g.g.p 3 4 % 1 & 1 2 K u.U 8 e U g.g.g.g.g.g.g.g.",
"g.g.g.g.g.g.g.g.g.g.g.g.g.g.g.g.g.g.p 3 3 % & & 1 1 9.e.j 4 q x E g.g.g.g.g.g.g.",
"g.g.g.g.g.g.g.g.g.g.g.g.g.g.g.g.g.g.p 3 2 # % % x b >.i.*.2 8 j H g.g.g.g.g.g.g.",
"g.g.g.g.g.g.g.g.g.g.g.g.g.g.g.g.g.g.h 3 1 # # & e.a.;.b ~ 1 6 f P g.g.g.g.g.g.g.",
"g.g.g.g.g.g.g.g.g.g.g.g.g.g.g.g.g.g.N 4 & # # # W 3.e.;.9.1 2 e P g.g.g.g.g.g.g.",
"g.g.g.g.g.g.g.g.g.g.g.g.g.g.g.g.g.g.N 4 & # # # : 2 *.a.=.$ 1 q F g.g.g.g.g.g.g.",
"g.g.g.g.g.g.g.g.g.g.g.g.g.g.g.g.g.g.c 3 $ # @ @ @ O ~ q.f # 1 9 m g.g.g.g.g.g.g.",
"g.g.g.g.g.g.g.g.g.g.g.g.g.g.g.g.g.g.d : $ + O O + O ,.f.0.f & 9 v g.g.g.g.g.g.g.",
"g.g.g.g.g.g.g.g.g.g.g.g.g.g.g.g.g.g.d ; % @ O O @ # =.j j -.q 6 v g.g.g.g.g.g.g.",
"g.g.g.g.g.g.g.g.g.g.g.g.g.g.g.g.g.g.d ; % @ O + @ O W A 4 f R 8 n g.g.g.g.g.g.g.",
"g.g.g.g.g.g.g.g.g.g.g.g.g.g.g.g.g.g.a ; & # @ @ : $ a s.( # K a n g.g.g.g.g.g.g.",
"g.g.g.g.g.g.g.g.g.g.g.g.g.g.g.g.g.g.w ; & # # O b b # x q # : 8 v g.g.g.g.g.g.g.",
"g.g.g.g.g.g.g.g.g.g.g.g.g.g.g.g.g.g.w ; 1 % # + f +.% % $ $ : 8 m g.g.g.g.g.g.g.",
"g.g.g.g.g.g.g.g.g.g.g.g.g.g.g.g.g.g.a : 1 % # % L a.4 0 k $ 3 9 F g.g.g.g.g.g.g.",
"g.g.g.g.g.g.g.g.g.g.g.g.g.g.g.g.g.g.a : & % & 8 i.f.~ >.^ 1 6 0 P g.g.g.g.g.g.g.",
"g.g.g.g.g.g.g.g.g.g.g.g.g.g.g.g.g.g.a : $ # & L 5.-.y.s.,.4 8 a G g.g.g.g.g.g.g.",
"g.g.g.g.g.g.g.g.g.g.g.g.g.g.g.g.g.g.a 3 # + % f 2.L *.L &.5 q f D g.g.g.g.g.g.g.",
"g.g.g.g.g.g.g.g.g.g.g.g.g.g.g.g.g.g.w ; @ + # 2 x t.d.3.~ 5 e k g.g.g.g.g.g.g.g.",
"g.g.g.g.g.g.g.g.g.g.g.g.g.g.g.g.g.g.7 . @ + @ 2 6 f >.d.~ 9 0 z g.g.g.g.g.g.g.g.",
"g.g.g.g.g.g.g.g.g.g.g.g.g.g.g.g.g.g.7 . + + + # 6 a 3.2.A 0 u I g.g.g.g.g.g.g.g.",
"g.g.g.g.g.g.g.g.g.g.g.g.g.g.g.g.g.g.7 . o + O $ 8 l q.t.u > s X.g.g.g.g.g.g.g.g.",
"g.g.g.g.g.g.g.g.g.g.g.g.g.g.g.g.g.g., . . @ @ $ , K ^ #.0 > V o.g.g.g.g.g.g.g.g.",
"g.g.g.g.g.g.g.g.g.g.g.g.g.g.g.g.g.g.,   o @ o X ; L i.,., u T g.g.g.g.g.g.g.g.g.",
"g.g.g.g.g.g.g.g.g.g.g.g.g.g.g.g.g.g.>   O o . , , V T u u V <.g.g.g.g.g.g.g.g.g.",
"g.g.g.g.g.g.g.g.g.g.g.g.g.g.g.g.g.g.>     . , < k W ( &.+.} %.g.g.g.g.g.g.g.g.g.",
"g.g.g.g.g.g.g.g.g.g.g.g.g.g.g.g.g.g.* . . > u s S >.q.q.i.4.g.g.g.g.g.g.g.g.g.g.",
"g.g.g.g.g.g.g.g.g.g.g.g.g.g.g.g.g.g.= X X , r t ` r.r. .O.J g.g.g.g.g.g.g.g.g.g.",
"g.g.g.g.g.g.g.g.g.g.g.g.g.g.g.g.g.g.- y < r r t | 8...Z g.g.g.g.g.g.g.g.g.g.g.g.",
"g.g.g.g.g.g.g.g.g.g.g.g.g.g.g.g.g.g.g.g.g.i H J 7.g.g.g.g.g.g.g.g.g.g.g.g.g.g.g."
};
