/* XPM */
static char *result[] = {
/* columns rows colors chars-per-pixel */
"40 40 193 2 ",
"   c #160B00",
".  c #190802",
"X  c #1B0802",
"o  c #1D0901",
"O  c #1D0A01",
"+  c #1F0A01",
"@  c #1C0903",
"#  c #190C00",
"$  c #1B0E00",
"%  c #1E0E00",
"&  c #230B01",
"*  c #220E01",
"=  c #220C03",
"-  c #260D01",
";  c #240E01",
":  c #270F00",
">  c #221101",
",  c #251201",
"<  c #2B1202",
"1  c #2B1502",
"2  c #281204",
"3  c #2D1204",
"4  c #2C1205",
"5  c #2C1405",
"6  c #2E1504",
"7  c #2F1803",
"8  c #301000",
"9  c #341301",
"0  c #301501",
"q  c #3B1101",
"w  c #381303",
"e  c #321902",
"r  c #371802",
"t  c #331805",
"y  c #351804",
"u  c #341805",
"i  c #351906",
"p  c #341C06",
"a  c #381A03",
"s  c #3C1A02",
"d  c #381C03",
"f  c #3A1B05",
"g  c #3E1806",
"h  c #361B09",
"j  c #361F08",
"k  c #3E2103",
"l  c #382307",
"z  c #3D2105",
"x  c #421602",
"c  c #471A03",
"v  c #421D02",
"b  c #421D04",
"n  c #491A06",
"m  c #4A1F04",
"M  c #521705",
"N  c #501E04",
"B  c #551C05",
"V  c #472306",
"C  c #482703",
"Z  c #482205",
"A  c #492306",
"S  c #4D2106",
"D  c #4F2F05",
"F  c #4F2C07",
"G  c #4A250A",
"H  c #452C09",
"J  c #562604",
"K  c #5C2504",
"L  c #502A06",
"P  c #572A07",
"I  c #5D2906",
"U  c #5F2F05",
"Y  c #5F2A08",
"T  c #5F2B09",
"R  c #5B3007",
"E  c #5E3806",
"W  c #51360B",
"Q  c #5A3D0B",
"!  c #5F3E09",
"~  c #672C05",
"^  c #623405",
"/  c #693303",
"(  c #6F3006",
")  c #653904",
"_  c #6F3C05",
"`  c #61320B",
"'  c #65340B",
"]  c #6B3008",
"[  c #6D3308",
"{  c #6B3709",
"}  c #6A3C08",
"|  c #793205",
" . c #763A05",
".. c #733908",
"X. c #7B3F0A",
"o. c #793F0F",
"O. c #624108",
"+. c #60420A",
"@. c #69480D",
"#. c #704307",
"$. c #784107",
"%. c #79430A",
"&. c #7F4108",
"*. c #7D4408",
"=. c #7A400C",
"-. c #75490A",
";. c #734E0F",
":. c #78500C",
">. c #7B5C17",
",. c #852E04",
"<. c #883504",
"1. c #80390A",
"2. c #843A08",
"3. c #884406",
"4. c #8C4C07",
"5. c #82450A",
"6. c #87400C",
"7. c #88420A",
"8. c #8A4508",
"9. c #8A420C",
"0. c #804809",
"q. c #834B08",
"w. c #844F09",
"e. c #8A4909",
"r. c #89490D",
"t. c #8B4D0C",
"y. c #9B4907",
"u. c #994A06",
"i. c #9E4B07",
"p. c #91450A",
"a. c #8A5008",
"s. c #8E560C",
"d. c #8F5B0B",
"f. c #905106",
"g. c #975209",
"h. c #91500C",
"j. c #95540C",
"k. c #9D5408",
"l. c #9E510F",
"z. c #965F0A",
"x. c #9B580A",
"c. c #9D5B0A",
"v. c #9D5D0F",
"b. c #AA480A",
"n. c #A45E09",
"m. c #AE5E0A",
"M. c #B15109",
"N. c #9E620B",
"B. c #9D6B0F",
"V. c #886A1C",
"C. c #A4620A",
"Z. c #AD6209",
"A. c #A96A0A",
"S. c #AE690B",
"D. c #AD6C0F",
"F. c #B86509",
"G. c #B36909",
"H. c #B06B0C",
"J. c #B16E0F",
"K. c #BF6D0B",
"L. c #AC700B",
"P. c #AD790D",
"I. c #B6730B",
"U. c #B0730C",
"Y. c #B37A0D",
"T. c #B7780C",
"R. c #B4780E",
"E. c #A27616",
"W. c #C15D05",
"Q. c #CD7009",
"!. c #CA720D",
"~. c #C07D0C",
"^. c #C8790B",
"/. c #BE820D",
"(. c #BF850E",
"). c #C5800E",
"_. c #C9860D",
"`. c #CF860F",
"'. c #C68B0E",
"]. c #D78309",
"[. c #DF820D",
"{. c #DB860C",
"}. c #C78F11",
"|. c #D09510",
" X c #D59315",
".X c #E3910D",
"XX c #E5960E",
"oX c #E49C0F",
"OX c #E08C11",
"+X c #D4A10F",
"@X c #DEA110",
"#X c #E8A717",
"$X c None",
/* pixels */
"$X$X$X$X$X$X$X$X$X$X$X$X$X$X$X$X$X$X$X$X$X$X$X$X$X$X$X$X$X$X$X$X$X$X$X$X$X$X$X$X",
"$X$X$X$X$X$X$X$X$X$X$X$X$X$X$X$X$X$X$X$X$X$X$X$X$X$X$X$X$X$X$X$X$X$X$X$X$X$X$X$X",
"$X$X$X$X$X$X$X$X$X$X$X$X$X$X$X$X$Xn w y u d k d a g S $X$X$X$X$X$X$X$X$X$X$X$X$X",
"$X$X$X$X$X$X$X$X$X$X$X$X$X$Xh i u 0 0 0 0 0 1 , > > > 0 V ` $X$X$X$X$X$X$X$X$X$X",
"$X$X$X$X$X$X$X$X$X$X$X$X$Xf e r s s K ~ ( | ( ( K x r , # , F =.$X$X$X$X$X$X$X$X",
"$X$X$X$X$X$X$X$X$X$X$Xh z k Z N c J *.f.C.A.A.I.C.g.y.i.U , $ k %.$X$X$X$X$X$X$X",
"$X$X$X$X$X$X$X$X$X$X5 l D C x  .$.s.N.n.x.Y $X$X$Xv.`..X].g.d   e [ $X$X$X$X$X$X",
"$X$X$X$X$X$X$X$X$Xh l Q U m U c.C.0.$X$X$X$X$X$X$X$X$X$XoXOXF.L # d %.$X$X$X$X$X",
"$X$X$X$X$X$X$X$X$Xj @.-.J q.d.I $X$X$X$X$X$X$X$X$X$X$X$X$X$X[.Q.J # d X.$X$X$X$X",
"$X$X$X$X$X$X$X$X2 Q >.^ q.A.[ $X$X$X$X$X$X$X$X$X$X$X$X$X$X$X$X$XM.k # C h.$X$X$X",
"$X$X$X$X$X$X$X4 H >.V.B.'.j.$X$X$X$X$X$X$X$X$X$X$X$X$X$X$X$X$X$X$X2.% > } $X$X$X",
"$X$X$X$X$X$X$Xj @.@.E.}.5.$X$X$X$X$X$X$X$X$X$X$X$X$X$X$X$X$X$X$X$Xb.N # k t.$X$X",
"$X$X$X$X$X$X3 W ;.*.I.w.B $X$X$X$X$X$X$X$X$X$X$X$X$X$X$X$X$X$X$X$X$X7., % { $X$X",
"$X$X$X$X$X$Xp +.$.g.C...$X$X$X$X$X$X$X$X$X$X$X$X$X$X$X$X$X$X$X$X$X$Xl.m   Z p.$X",
"$X$X$X$X$X$XH @. .T.~.h.$X$X$X$X$X$X$X$X$X$X$X$X$X$X$X$X$X$X$X$X$X$X$X] # 7 X.$X",
"$X$X$X$X$X4 W -.q.(.^.$X$X$X$X$X$X$X$X$X$X$X$X$X$X$X$X$X$X$X$X$X$X$X$X9., % { $X",
"$X$X$X$X$Xi ! _ w.U.&.$X$X$X$X$X$X$X$X$X$X$X$X$X$X$X$X$X$X$X$X$X$X$X$X$Xs # P $X",
"$X$X$X$X$Xt ! ) w.U.=.$X$X$X$X$X$X$X$X$X$X$X$X$X$X$X$X$X$X$X$X$X$X$X$X$XA   C l.",
"$X$X$X$X$Xy ! ) d.).p.$X$X$X$X$X$X$X$X$X$X$X$X$X$X$X$X$X$X$X$X$X$X$X$X$XV   k t.",
"$X$X$X$X$Xu O.-.U.~.$X$X$X$X$X$X$X$X$X$X$X$X$X$X$X$X$X$X$X$X$X$X$X$X$X$XV   k 9.",
"$X$X$X$X$X6 +.d.L.A.$X$X$X$X$X$X$X$X$X$X$X$X$X$X$X$X$X$X$X$X$X$X$X$X$X$XV   v 9.",
"$X$X$X$X$X< ! d.d.L.8.$X$X$X$X$X$X$X$X$X$X$X$X$X$X$X$X$X$X$X$X$X$X$X$X$Xz   v 6.",
"$X$X$X$X$X- D *.z.(.x.$X$X$X$X$X$X$X$X$X$X$X$X$X$X$X$X$X$X$X$X$X$X$X$X$Xa   m p.",
"$X$X$X$X$X2 C _ ~.+XD.$X$X$X$X$X$X$X$X$X$X$X$X$X$X$X$X$X$X$X$X$X$X$X$Xo.1 # P $X",
"$X$X$X$X$X= d #.U.+X/.$X$X$X$X$X$X$X$X$X$X$X$X$X$X$X$X$X$X$X$X$X$X$X$X' $ * ] $X",
"$X$X$X$X$X@ 7 ) a.Y.}.H.$X$X$X$X$X$X$X$X$X$X$X$X$X$X$X$X$X$X$X$X$X$X$XA   9 1.$X",
"$X$X$X$X$X$X; D ~ *.+XR.$X$X$X$X$X$X$X$X$X$X$X$X$X$X$X$X$X$X$X$X$X$X1.1   m $X$X",
"$X$X$X$X$X$X+ e ^ / P.|.J.$X$X$X$X$X$X$X$X$X$X$X$X$X$X$X$X$X$X$X$X$XR   , T $X$X",
"$X$X$X$X$X$X$X* C  .c.@X(.v.$X$X$X$X$X$X$X$X$X$X$X$X$X$X$X$X$X$X$Xr., # v $X$X$X",
"$X$X$X$X$X$X$X+ 1 E 4.G._.S.$X$X$X$X$X$X$X$X$X$X$X$X$X$X$X$X$X$X!.D   1 [ $X$X$X",
"$X$X$X$X$X$X$X$X< k #.4.c./.S.8.$X$X$X$X$X$X$X$X$X$X$X$X$X$X$XOX-.$ * P $X$X$X$X",
"$X$X$X$X$X$X$X$X5 7 k Z k Q B.g.&.$X$X$X$X$X$X$X$X$X$X$X$X#X X:.> % Z o.$X$X$X$X",
"$X$X$X$X$X$X$X$X$X4 0 7 1 * L N.L.e.7.M $X$X$X$X$X$X$X{.XX).E $ % v =.$X$X$X$X$X",
"$X$X$X$X$X$X$X$X$X$X3 0 0 7 r N ( e.~.C.k.m.K.K.!.^.Q.W.u.C $ > s ` $X$X$X$X$X$X",
"$X$X$X$X$X$X$X$X$X$X$X& : 1 e r c N ~ *.| 3.Z.y.<.,.| J 1 $ , b Y $X$X$X$X$X$X$X",
"$X$X$X$X$X$X$X$X$X$X$X$X$Xo * , 0 r 9 8 9 q x c c s , # $ e S $X$X$X$X$X$X$X$X$X",
"$X$X$X$X$X$X$X$X$X$X$X$X$X$X@ . O > , , , , > % $ # O 6 G $X$X$X$X$X$X$X$X$X$X$X",
"$X$X$X$X$X$X$X$X$X$X$X$X$X$X$X$X$XX . O % O O O - w n $X$X$X$X$X$X$X$X$X$X$X$X$X",
"$X$X$X$X$X$X$X$X$X$X$X$X$X$X$X$X$X$X$X$X$X$X$X$X$X$X$X$X$X$X$X$X$X$X$X$X$X$X$X$X",
"$X$X$X$X$X$X$X$X$X$X$X$X$X$X$X$X$X$X$X$X$X$X$X$X$X$X$X$X$X$X$X$X$X$X$X$X$X$X$X$X"
};
