/* XPM */
static char *result[] = {
/* columns rows colors chars-per-pixel */
"40 40 197 2 ",
"   c #130702",
".  c #180B01",
"X  c #1B0A01",
"o  c #1B0B01",
"O  c #190902",
"+  c #190C00",
"@  c #1B0C01",
"#  c #1B0E01",
"$  c #1D0D01",
"%  c #1E0C02",
"&  c #1E1001",
"*  c #200B03",
"=  c #200E01",
"-  c #270F02",
";  c #220E04",
":  c #260F04",
">  c #211002",
",  c #231202",
"<  c #251603",
"1  c #241104",
"2  c #251104",
"3  c #281302",
"4  c #281603",
"5  c #2D1403",
"6  c #291004",
"7  c #291204",
"8  c #2A1305",
"9  c #2D1105",
"0  c #2F1205",
"q  c #2A1803",
"w  c #2D1B03",
"e  c #311103",
"r  c #331403",
"t  c #351703",
"y  c #321704",
"u  c #341505",
"i  c #321A04",
"p  c #371805",
"a  c #311D05",
"s  c #361E04",
"d  c #361C06",
"f  c #3B1C05",
"g  c #331408",
"h  c #2E2004",
"j  c #362405",
"k  c #392005",
"l  c #3B2006",
"z  c #392607",
"x  c #3D2B07",
"c  c #332308",
"v  c #471203",
"b  c #461904",
"n  c #441B05",
"m  c #411D05",
"M  c #411E05",
"N  c #4A1905",
"B  c #481906",
"V  c #4A1B06",
"C  c #481F07",
"Z  c #5F1A05",
"A  c #5A1E06",
"S  c #651C03",
"D  c #621E04",
"F  c #671F05",
"G  c #6B1B04",
"H  c #422606",
"J  c #4D2106",
"K  c #442907",
"L  c #4B2907",
"P  c #452608",
"I  c #482109",
"U  c #4B230A",
"Y  c #442F09",
"T  c #4C2B09",
"R  c #4F2D0C",
"E  c #592506",
"W  c #512A07",
"Q  c #562C05",
"!  c #5F2D07",
"~  c #542709",
"^  c #502808",
"/  c #562C0A",
"(  c #4A3208",
")  c #4D3709",
"_  c #553308",
"`  c #56360A",
"'  c #56310C",
"]  c #59330A",
"[  c #513809",
"{  c #5E3809",
"}  c #593E0B",
"|  c #5F3F0B",
" . c #6E2006",
".. c #662C06",
"X. c #6C2905",
"o. c #692C06",
"O. c #652D08",
"+. c #762306",
"@. c #722604",
"#. c #722506",
"$. c #792307",
"%. c #7A2A03",
"&. c #7A2B03",
"*. c #7C2907",
"=. c #722A0A",
"-. c #712F08",
";. c #7E2A08",
":. c #653507",
">. c #6E3106",
",. c #6D3B07",
"<. c #663208",
"1. c #723307",
"2. c #7D3507",
"3. c #793108",
"4. c #723E09",
"5. c #7E3B08",
"6. c #7F3C09",
"7. c #65450B",
"8. c #6C4B0B",
"9. c #774509",
"0. c #74460B",
"q. c #794109",
"w. c #7F4409",
"e. c #734B0D",
"r. c #79490C",
"t. c #7B520E",
"y. c #812D05",
"u. c #8E2F07",
"i. c #873706",
"p. c #8D3206",
"a. c #8F3907",
"s. c #8C3F07",
"d. c #823909",
"f. c #923A06",
"g. c #953806",
"h. c #993C06",
"j. c #913609",
"k. c #973D08",
"l. c #9C3808",
"z. c #854308",
"x. c #89440A",
"c. c #804B0A",
"v. c #874C0A",
"b. c #924207",
"n. c #9A4007",
"m. c #9A430A",
"M. c #9D4309",
"N. c #9E4309",
"B. c #994608",
"V. c #904A0A",
"C. c #934E0B",
"Z. c #9C4A0A",
"A. c #8D500A",
"S. c #935509",
"D. c #985209",
"F. c #9B5C0A",
"G. c #A74407",
"H. c #A54308",
"J. c #A14D09",
"K. c #A94E0A",
"L. c #AE4E0A",
"P. c #B34B09",
"I. c #A05309",
"U. c #A85309",
"Y. c #AF540B",
"T. c #A2580A",
"R. c #A25E0B",
"E. c #A85E0A",
"W. c #AF5F0B",
"Q. c #B95209",
"!. c #B35E0F",
"~. c #BA5B0A",
"^. c #93600D",
"/. c #AC650B",
"(. c #AC6C0E",
"). c #B5670C",
"_. c #BF620A",
"`. c #B76C09",
"'. c #B6730D",
"]. c #BD7109",
"[. c #BE7A0E",
"{. c #A16610",
"}. c #C25C0C",
"|. c #C56F0B",
" X c #C06B0C",
".X c #CB750B",
"XX c #CE710C",
"oX c #C37A0C",
"OX c #C47C0F",
"+X c #CB7B0C",
"@X c #D1700B",
"#X c #D3780A",
"$X c #D77B0B",
"%X c #C6810D",
"&X c #D6820D",
"*X c #D18C0E",
"=X c None",
/* pixels */
"=X=X=X=X=X=X=X=X=X=X=X=X=X=X=X=XC I U M M J ^ ~ =X=X=X=X=X=X=X=X=X=X=X=X=X=X=X=X",
"=X=X=X=X=X=X=X=X=X=X=X=X=Xu r 5 , = = $ $ & , 4 y M ' =X=X=X=X=X=X=X=X=X=X=X=X=X",
"=X=X=X=X=X=X=X=X=X=X=X6 7 = & < z ( ) ( [ [ ( x h > , d ^ =X=X=X=X=X=X=X=X=X=X=X",
"=X=X=X=X=X=X=X=X=Xu 1 $ < j Y _ { w.S.c.9.A.S.c.0.| x h 3 l ' =X=X=X=X=X=X=X=X=X",
"=X=X=X=X=X=X=X=Xr $ & K ` Q 4.S././.F.{.F.S.R.oXA.v.0.} ) w 3 T =X=X=X=X=X=X=X=X",
"=X=X=X=X=X=X=Xy @ < _ ! q.I.Z.z.6.O.n V A J m o.1.v.'.q.k [ z > H =X=X=X=X=X=X=X",
"=X=X=X=X=X=X7 @ w _ ! S.].M.Z B =X=X=X=X=X=X=X=Xv N <.4.t.L | Y > m =X=X=X=X=X=X",
"=X=X=X=X=X8 $ a ] >.R.J.p.=X=X=X=X=X=X=X=X=X=X=X=X=Xg r L e.r.| Y < P =X=X=X=X=X",
"=X=X=X=X; $ a ! 2.).K.=X=X=X=X=X=X=X=X=X=X=X=X=X=X=X=X=Xe b ^.(.` x > J =X=X=X=X",
"=X=X=Xu > , L 1.J.Y.=X=X=X=X=X=X=X=X=X=X=X=X=X=X=X=X=X=X=XD 2.OX9.( c 4 ' =X=X=X",
"=X=X=X7 + k E T.n.=X=X=X=X=X=X=X=X=X=X=X=X=X=X=X=X=X=X=X=X=Xg._.%X,.) , l =X=X=X",
"=X=X6 & 4 W 5.k.m.=X=X=X=X=X=X=X=X=X=X=X=X=X=X=X=X=X=X=X=X=X=XN.+X].9.Y , R =X=X",
"=X=X2 @ K E J.j.=X=X=X=X=X=X=X=X=X=X=X=X=X=X=X=X=X=X=X=X=X=X=X=X~.&X[.e.< m =X=X",
"=Xg $ < ! C.M.=X=X=X=X=X=X=X=X=X=X=X=X=X=X=X=X=X=X=X=X=X=X=X=X=XL..X*XF.z q =X=X",
"=X0 @ k x.W.N.=X=X=X=X=X=X=X=X=X=X=X=X=X=X=X=X=X=X=X=X=X=X=X=X=X=XM.[.R.L , ^ =X",
"=X8 + W V.U.=X=X=X=X=X=X=X=X=X=X=X=X=X=X=X=X=X=X=X=X=X=X=X=X=X=X=Xj.V.w.L 4 f =X",
"=X- > ! b.~.=X=X=X=X=X=X=X=X=X=X=X=X=X=X=X=X=X=X=X=X=X=X=X=X=X=X=X;.3.z.! a i =X",
"9 = < ..E.$X=X=X=X=X=X=X=X=X=X=X=X=X=X=X=X=X=X=X=X=X=X=X=X=X=X=X=X=X@./.x.s q =X",
"e $ w >.).@X=X=X=X=X=X=X=X=X=X=X=X=X=X=X=X=X=X=X=X=X=X=X=X=X=X=X=X=X&.+Xx.s 3 ' ",
"6 $ w 5. XXX=X=X=X=X=X=X=X=X=X=X=X=X=X=X=X=X=X=X=X=X=X=X=X=X=X=X=X=Xi.+X1.s 3 / ",
"0 @ w D.#XXX=X=X=X=X=X=X=X=X=X=X=X=X=X=X=X=X=X=X=X=X=X=X=X=X=X=X=X=Xa.).X.k 3 / ",
"6 $ q C._.@X=X=X=X=X=X=X=X=X=X=X=X=X=X=X=X=X=X=X=X=X=X=X=X=X=X=X=X=Xa.W.>.s 3 ' ",
"* = < w.U.$X=X=X=X=X=X=X=X=X=X=X=X=X=X=X=X=X=X=X=X=X=X=X=X=X=X=X=XB s.W...a 5 =X",
"% , # ,.U.#X=X=X=X=X=X=X=X=X=X=X=X=X=X=X=X=X=X=X=X=X=X=X=X=X=X=X=XV '.`.<.4 y =X",
"=X2 + _ B.|.}.=X=X=X=X=X=X=X=X=X=X=X=X=X=X=X=X=X=X=X=X=X=X=X=X=X=X-.*XE.W > f =X",
"=X; @ k V.U.Q.=X=X=X=X=X=X=X=X=X=X=X=X=X=X=X=X=X=X=X=X=X=X=X=X=X=.w.[.x.k = V =X",
"=X9 > = r.b.H.P.=X=X=X=X=X=X=X=X=X=X=X=X=X=X=X=X=X=X=X=X=X=X=X=X-.5.!.w.< 3 =X=X",
"=X=X7 . Y V.B.G.=X=X=X=X=X=X=X=X=X=X=X=X=X=X=X=X=X=X=X=X=X=X=Xm.../.U.L # p =X=X",
"=X=X0 > & 0.B.Z.l.=X=X=X=X=X=X=X=X=X=X=X=X=X=X=X=X=X=X=X=X=X=Xf.T.W.,., = B =X=X",
"=X=X=X3 @ j C.n.n.g.=X=X=X=X=X=X=X=X=X=X=X=X=X=X=X=X=X=X=X=Xh.+X+XD.k + r =X=X=X",
"=X=X=X: > # | ). Xk.u.=X=X=X=X=X=X=X=X=X=X=X=X=X=X=X=X=X=Xy.|.*Xb.Q # 3 B =X=X=X",
"=X=X=X=XX $ > 8.(.R.i.*.=X=X=X=X=X=X=X=X=X=X=X=X=X=X=XD S I.oXs.! < = I =X=X=X=X",
"=X=X=X=X=Xo $ & 7.{.C.F.%.+.=X=X=X=X=X=X=X=X=X=X=X .F X.I.).5.Q < & M =X=X=X=X=X",
"=X=X=X=X=X=Xo $ # } S.I.Z.d.@.G $.=X=X=X=X=X .+.#.d.(.).J.5.W , $ f =X=X=X=X=X=X",
"=X=X=X=X=X=X% o # # Y t.x.2.F.D.s.b.b.%.%.B.J.E.S.v.A.T.q.K # $ f =X=X=X=X=X=X=X",
"=X=X=X=X=X=X=X=XX @ . < ) { 0.R././.`.`.W.E.v.w.A.q.:._ w @ 3 n =X=X=X=X=X=X=X=X",
"=X=X=X=X=X=X=X=X=X  . @ + & j [ 8.e.0.c.c.9.7.| } x > @ = t ~ =X=X=X=X=X=X=X=X=X",
"=X=X=X=X=X=X=X=X=X=X=X; . @ . . & < h h h h q & @ @ , y V =X=X=X=X=X=X=X=X=X=X=X",
"=X=X=X=X=X=X=X=X=X=X=X=X=X  o @ & & & = = > , 3 y M C =X=X=X=X=X=X=X=X=X=X=X=X=X",
"=X=X=X=X=X=X=X=X=X=X=X=X=X=X=X=XO * 6 6 e u C ~ =X=X=X=X=X=X=X=X=X=X=X=X=X=X=X=X"
};
