/* XPM */
static char *e90dc3baa06443bcd44f755324dd196cgs1IdBRSFIONc7wx[] = {
/* columns rows colors chars-per-pixel */
"64 64 151 2 ",
"   c None",
".  c #6B0200",
"X  c #740500",
"o  c #7C0600",
"O  c #730800",
"+  c #751900",
"@  c #7D1C00",
"#  c #830C00",
"$  c #8F0D00",
"%  c #8B1400",
"&  c #811900",
"*  c #8E1D00",
"=  c #911500",
"-  c #921C00",
";  c #9C1C00",
":  c #A11F00",
">  c #8D2400",
",  c #8C2800",
"<  c #942400",
"1  c #9C2400",
"2  c #962900",
"3  c #9C2A00",
"4  c #9B3100",
"5  c #A32400",
"6  c #A92600",
"7  c #A42D00",
"8  c #AB2B00",
"9  c #B32600",
"0  c #B42C00",
"q  c #BA2D00",
"w  c #A33700",
"e  c #AB3400",
"r  c #A33A00",
"t  c #AE3C00",
"y  c #B43400",
"u  c #BA3300",
"i  c #B43D00",
"p  c #BC3A00",
"a  c #C43500",
"s  c #CB3700",
"d  c #C33C00",
"f  c #CC3B00",
"g  c #A44300",
"h  c #AD4400",
"j  c #B44200",
"k  c #BC4300",
"l  c #BB4A00",
"z  c #B25400",
"x  c #BE5200",
"c  c #C34500",
"v  c #CC4300",
"b  c #C34D00",
"n  c #CE4B00",
"m  c #D34400",
"M  c #D44B00",
"N  c #C35100",
"B  c #CD5300",
"V  c #CD5B00",
"C  c #D55400",
"Z  c #DC5300",
"A  c #D35A00",
"S  c #DB5900",
"D  c #E14E00",
"F  c #E15600",
"G  c #E45C00",
"H  c #EC5B00",
"J  c #C26500",
"K  c #CC6200",
"L  c #CE6C00",
"P  c #D46400",
"I  c #DA6400",
"U  c #D46D00",
"Y  c #DB6A00",
"T  c #CC7200",
"R  c #D07300",
"E  c #DD7200",
"W  c #DF7E00",
"Q  c #E56400",
"!  c #EB6700",
"~  c #E36A00",
"^  c #EB6900",
"/  c #F36C00",
"(  c #F86800",
")  c #E57500",
"_  c #EC7200",
"`  c #E17A00",
"'  c #ED7C00",
"]  c #F27500",
"[  c #FB7400",
"{  c #F27A00",
"}  c #FC7C00",
"|  c #FC7E09",
" . c #DE8500",
".. c #DF8E00",
"X. c #EB8500",
"o. c #E28901",
"O. c #ED8D00",
"+. c #F58300",
"@. c #FD8300",
"#. c #F78D00",
"$. c #FE8D00",
"%. c #FF8A0B",
"&. c #E49100",
"*. c #EB9500",
"=. c #E19C01",
"-. c #EA9E00",
";. c #F59300",
":. c #FC9401",
">. c #F39B00",
",. c #FD9C00",
"<. c #E7A201",
"1. c #EFA501",
"2. c #EBA901",
"3. c #F5A500",
"4. c #FEA301",
"5. c #F4AA00",
"6. c #FFAD00",
"7. c #FCAC00",
"8. c #FFAA01",
"9. c #F2B000",
"0. c #F6B003",
"q. c #FCB202",
"w. c #FEB500",
"e. c #F5BA01",
"r. c #FFBA03",
"t. c #FABD03",
"y. c #FFBC03",
"u. c #F1C301",
"i. c #F9C700",
"p. c #FFC400",
"a. c #FEC700",
"s. c #FFC105",
"d. c #FCC706",
"f. c #FFC701",
"g. c #FBCC01",
"h. c #FFCB05",
"j. c #FFC008",
"k. c #F7D101",
"l. c #FFD701",
"z. c #FED402",
"x. c #FADA01",
"c. c #FEDC02",
"v. c #FEE403",
"b. c #FFF303",
"n. c #FFF108",
"m. c #F9C629",
"M. c #F8C12F",
"N. c #FFD022",
"B. c #F3CC35",
"V. c #FBDB35",
"C. c #FFDE38",
/* pixels */
"                                                                                                                                ",
"                                                                                                                                ",
"                                                                                                                                ",
"                                                                                                                                ",
"                                                                                                                                ",
"                                                                                                                                ",
"                                                                                                                                ",
"                                                                                                                                ",
"                                                                                                                                ",
"                                                                                                                                ",
"                                                                                                                                ",
"                                                                                                                                ",
"                                                                                                                                ",
"                                                                                                                                ",
"                                                                                                                                ",
"                                                                                                                                ",
"                                                                                                                                ",
"                                                                                                                                ",
"                                                                                                                                ",
"                                                                                                                                ",
"                                                                                                                                ",
"                                                                                                                                ",
"                                                            *. .T J J R &.e.x.k.1.                                              ",
"                                                      ' Y b w < 2 7 q s s p E g.l.7.:.                                          ",
"                                                  ' A t 4 r 3 p ~ Q Q S C e ; l i.s.,.$.,.-.                                    ",
"                                              +.Q i 3 ; b O.' ) I k N y 7 j > % ..f.,.} @.$.3.                                  ",
"                                          ;.{ M u p E C M P P e - = 7             t.$.( H { 6.;.                                ",
"                                        ;.] F F ~ { O.V x > 3 8                   m.%.H m n Y ,.^                               ",
"                                      :.} ( [ +.>. .z g 4 7                       M.| Z f 0 0 N A M                             ",
"                                    :.} } ^ ' 5.o.J 3 8 y                         4./ m u c B : = 0                             ",
"                                  ,.@.[ ^ E 5.*.B A p                           -.} Z p 8 n C 7 o %                             ",
"                                5.:.$.+.X.7.o.P A y                             #.G a 8 8 8 n d # O                             ",
"                              9.6.$.@.8.q.X.A c t                             *.^ d 8 3 y 0 q 6 $ X                             ",
"                              g.6.:.,.:.8.Y u 7                               _ d 5 2 > - p % = o #                             ",
"                            B.C.6.,.8.r.;.S p %                             ) d 1 - , h 7 c 2 1 .                               ",
"                            V.N.8.8.8.s.{ M y                             ) d 6 < @ @ 3 p y * O .                               ",
"                            z.s.8.r.y.j.:.M 7                           ) c 0 5 & + @ k C ; X .                                 ",
"                            c.l.y.6.h.h.,.G y                         ~ d 0 q 1 @ @ j A f q # O                                 ",
"                            v.v.z.j.z.c.4.}                        .S 0 0 a 8 k t x ~ M q 9 %                                   ",
"                            x.b.v.c.v.n.z.4.P                   Y d ; 9 f 0 2 j N C I f 9 ;                                     ",
"                            2.b.n.c.l.c.v.p.`               Y c 1 $ 9 f u 3 h K j e v m                                         ",
"                              <.v.b.v.l.s.w.#.         .P k 1 % ; a s d i l l w 3 y s                                           ",
"                                L =.u.k.l.g.w.>.o.U N e < % 1 0 s f v B A l 2 3 y                                               ",
"                                    i l l l l t 7 2 3 1 8 a C G S Y B t i k 8                                                   ",
"                                          0 0 0 u a G Z m M S B j x 3 % 7                                                       ",
"                                                    v C C e 5 %                                                                 ",
"                                                                                                                                ",
"                                                                                                                                ",
"                                                                                                                                ",
"                                                                                                                                ",
"                                                                                                                                ",
"                                                                                                                                ",
"                                                                                                                                ",
"                                                                                                                                ",
"                                                                                                                                ",
"                                                                                                                                ",
"                                                                                                                                ",
"                                                                                                                                ",
"                                                                                                                                ",
"                                                                                                                                ",
"                                                                                                                                ",
"                                                                                                                                ",
"                                                                                                                                ",
"                                                                                                                                "
};
