/* XPM */
static char *result[] = {
/* columns rows colors chars-per-pixel */
"40 40 209 2 ",
"   c #0F0501",
".  c #140401",
"X  c #180701",
"o  c #1B0601",
"O  c #150801",
"+  c #170B00",
"@  c #190C00",
"#  c #1B0D01",
"$  c #1C0904",
"%  c #200500",
"&  c #230400",
"*  c #220703",
"=  c #200F01",
"-  c #230C02",
";  c #280902",
":  c #290B02",
">  c #2E0902",
",  c #2D0E06",
"<  c #320D02",
"1  c #310F02",
"2  c #231100",
"3  c #241201",
"4  c #271102",
"5  c #261601",
"6  c #271602",
"7  c #271603",
"8  c #281301",
"9  c #2B1102",
"0  c #2C1003",
"q  c #2B1503",
"w  c #2A1702",
"e  c #2E1603",
"r  c #2A1801",
"t  c #2C1901",
"y  c #2D1803",
"u  c #2E1B02",
"i  c #371003",
"p  c #361302",
"a  c #361203",
"s  c #331602",
"d  c #311004",
"f  c #3B1702",
"g  c #361F03",
"h  c #321B04",
"j  c #351B05",
"k  c #301C04",
"l  c #3F1D04",
"z  c #3B2203",
"x  c #3A2306",
"c  c #3F2803",
"v  c #450F05",
"b  c #401702",
"n  c #4B1304",
"m  c #451F06",
"M  c #481B05",
"N  c #4A1D06",
"B  c #401E08",
"V  c #511D03",
"C  c #581E04",
"Z  c #6D1E03",
"A  c #402005",
"S  c #412404",
"D  c #432406",
"F  c #442604",
"G  c #452605",
"H  c #492204",
"J  c #4D2604",
"K  c #452C04",
"L  c #4F2B06",
"P  c #472608",
"I  c #492B08",
"U  c #4B280B",
"Y  c #4D2A08",
"T  c #4F2B08",
"R  c #4E2B09",
"E  c #4F290A",
"W  c #502504",
"Q  c #522707",
"!  c #572604",
"~  c #5E2006",
"^  c #5F2507",
"/  c #502907",
"(  c #542906",
")  c #552C05",
"_  c #5B2A05",
"`  c #5D2B05",
"'  c #522108",
"]  c #57260A",
"[  c #5A2308",
"{  c #512A09",
"}  c #5C2A09",
"|  c #5D2B0A",
" . c #5B2E0B",
".. c #4D3205",
"X. c #5D3105",
"o. c #543608",
"O. c #54360A",
"+. c #55340C",
"@. c #58310B",
"#. c #5B300A",
"$. c #5F3809",
"%. c #642504",
"&. c #692705",
"*. c #672E05",
"=. c #692C05",
"-. c #6C2E05",
";. c #702906",
":. c #7B2A07",
">. c #752E0A",
",. c #663306",
"<. c #603405",
"1. c #6D3204",
"2. c #633008",
"3. c #663309",
"4. c #66310A",
"5. c #68370A",
"6. c #6D3B09",
"7. c #6D3A0D",
"8. c #703206",
"9. c #723206",
"0. c #773304",
"q. c #763505",
"w. c #753407",
"e. c #7D3507",
"r. c #713509",
"t. c #72350C",
"y. c #7E3608",
"u. c #7B360D",
"i. c #773C08",
"p. c #723A0D",
"a. c #7A3F08",
"s. c #7B3F0D",
"d. c #5F4107",
"f. c #674008",
"g. c #634C0A",
"h. c #6E4F09",
"j. c #7B4207",
"k. c #73400B",
"l. c #704709",
"z. c #7F430C",
"x. c #7A4E0A",
"c. c #76590B",
"v. c #79670C",
"b. c #8C3406",
"n. c #873209",
"m. c #85330A",
"M. c #843408",
"N. c #85350C",
"B. c #8A340A",
"V. c #833D0A",
"C. c #8E3A0B",
"Z. c #9B3C07",
"A. c #953B0B",
"S. c #953C09",
"D. c #83410D",
"F. c #81430C",
"G. c #8E420B",
"H. c #80490C",
"J. c #88490A",
"K. c #8F4D0D",
"L. c #914607",
"P. c #825309",
"I. c #845D0C",
"U. c #8F580A",
"Y. c #8E5D0B",
"T. c #955B0E",
"R. c #9B5D0A",
"E. c #9D590C",
"W. c #955610",
"Q. c #AD4E09",
"!. c #A65709",
"~. c #A6560E",
"^. c #AB520C",
"/. c #A15F0A",
"(. c #B75D0C",
"). c #98670D",
"_. c #936E0D",
"`. c #9D6F0A",
"'. c #9A720D",
"]. c #A1670B",
"[. c #A9640C",
"{. c #A66B0A",
"}. c #AC6A0A",
"|. c #B1640A",
" X c #B16B08",
".X c #A4770F",
"XX c #A9740D",
"oX c #B3770C",
"OX c #BF7209",
"+X c #B67F0D",
"@X c #C25E0B",
"#X c #CE7409",
"$X c #C37C0D",
"%X c #CF7D0D",
"&X c #97800D",
"*X c #AD820D",
"=X c #B78A0C",
"-X c #A1910E",
";X c #C1860C",
":X c #CE8308",
">X c #CD9D0E",
",X c #D1900C",
"<X c #C28B12",
"1X c #C5AE0E",
"2X c #D5A30D",
"3X c #C8B90F",
"4X c #E4D40D",
"5X c #F2DC0D",
"6X c None",
/* pixels */
"6X6X6X6X6X6X6X6X6X6X6X6X6X6X6X6XS.b.e.i.j.j.z.J.6X6X6X6X6X6X6X6X6X6X6X6X6X6X6X6X",
"6X6X6X6X6X6X6X6X6X6X6X6X6XB.n.e.6.<.X.X.<.<.,.6.a.J.6X6X6X6X6X6X6X6X6X6X6X6X6X6X",
"6X6X6X6X6X6X6X6X6X6X6X6Xn.;.2.o...T ` ,.*.-.*.2.` ,.F.6X6X6X6X6X6X6X6X6X6X6X6X6X",
"6X6X6X6X6X6X6X6X6X6X^.M.C J I I J 1.|.$X[.|.!.C H H ! r.6X6X6X6X6X6X6X6X6X6X6X6X",
"6X6X6X6X6X6X6X6X6X@XZ.C f z z J =.Q.%XE.K./.oX{./.i.! W r.6X6X6X6X6X6X6X6X6X6X6X",
"6X6X6X6X6X6X6X6XA.e.^ s h g S  .6X6X6Xa ~ ;.%.}.,XH.*.J H 4.6X6X6X6X6X6X6X6X6X6X",
"6X6X6X6X6X6X6Xn.C B B e h g { 6X6X6X6X6X6Xm M -.k.oX].2.h N 6X6X6X6X6X6X6X6X6X6X",
"6X6X6X6X6X6XN.L.h 6 h w h A 6X6X6X6X6X6X6X6Xa p W Y.XXf.3 h } 6X6X6X6X6X6X6X6X6X",
"6X6X6X6X6X6XV.@.  = w 6 h / 6X6X6X6X6X6X6X6X6Xa 9 w h._.g g A 6X6X6X6X6X6X6X6X6X",
"6X6X6X6X6X:.i.h   e 2 6 A 6X6X6X6X6X6X6X6X6X6X6Xq 3 h _.I.$.h / 6X6X6X6X6X6X6X6X",
"6X6X6X6X6X>.T   = w = w P 6X6X6X6X6X6X6X6X6X6X6X6X5 3 d.>XY.K l 6X6X6X6X6X6X6X6X",
"6X6X6X6Xm.p.o.  e 3 = e U 6X6X6X6X6X6X6X6X6X6X6X6X7 6 d.+XI.d.o.| 6X6X6X6X6X6X6X",
"6X6X6X6X>.W 6 O h # = j 6X6X6X6X6X6X6X6X6X6X6X6X6X6Xr F )..Xc.&XY 6X6X6X6X6X6X6X",
"6X6X6XC.e.U.O # w @ 2 D 6X6X6X6X6X6X6X6X6X6X6X6X6X6X4 J T.XX_.3XO.6X6X6X6X6X6X6X",
"6X6X6XS.V.k.O 8 3 @ 3 m 6X6X6X6X6X6X6X6X6X6X6X6X6X6Xt @.H.=X=X4Xg.6X6X6X6X6X6X6X",
"6X6X6X(.W.@.X s = @ 8 R 6X6X6X6X6X6X6X6X6X6X6X6X6X6X6XS 5.'.>X5Xv.6X6X6X6X6X6X6X",
"6X6X6XG.[.f.# s # @ w U 6X6X6X6X6X6X6X6X6X6X6X6X6X6X6Xl T d.'.1X&XR 6X6X6X6X6X6X",
"6X6X6X^ i.e = 9 # @ e 6X6X6X6X6X6X6X6X6X6X6X6X6X6X6X6Xx z o.I.&X-XE 6X6X6X6X6X6X",
"6X6X6X' ].) = 9 @ @ e 6X6X6X6X6X6X6X6X6X6X6X6X6X6X6X6Xu z ...X_.&XY 6X6X6X6X6X6X",
"6X6X6XM $.,.s 3 @ + e 6X6X6X6X6X6X6X6X6X6X6X6X6X6X6X6Xu c x.=XP.h.P 6X6X6X6X6X6X",
"6X6X6Xd T H ` - # + e 6X6X6X6X6X6X6X6X6X6X6X6X6X6X6X6Xu o.l.`.K K P 6X6X6X6X6X6X",
"6X6X6X, l.F B 9 # + e +.6X6X6X6X6X6X6X6X6X6X6X6X6X6X6Xx I c I.c g P 6X6X6X6X6X6X",
"6X6X6XN 9 X - 9 = + 8 R 6X6X6X6X6X6X6X6X6X6X6X6X6X6X6Xk z I._.z K m 6X6X6X6X6X6X",
"6X6X6X] e . o 9 2 + 3 / 6X6X6X6X6X6X6X6X6X6X6X6X6X6X6Xw l.<X*X$.S E 6X6X6X6X6X6X",
"6X6X6Xz.k.B X d 8 @ 2 G 6X6X6X6X6X6X6X6X6X6X6X6X6X6Xy w c.'.'.$.z Q 6X6X6X6X6X6X",
"6X6X6Xu.E.R.- p 8 @ = l 6X6X6X6X6X6X6X6X6X6X6X6X6X6X0 6 c ).U.6.z 6X6X6X6X6X6X6X",
"6X6X6X6Xp.H.h f 9 # # s 6X6X6X6X6X6X6X6X6X6X6X6X6X6XD K ..*Xx.g A 6X6X6X6X6X6X6X",
"6X6X6X6X] K.T d 9 # # 8 Y 6X6X6X6X6X6X6X6X6X6X6X6X6X) l.`.+X$.6 L 6X6X6X6X6X6X6X",
"6X6X6X6X0 X.k.; - @ # 2 l 6X6X6X6X6X6X6X6X6X6X6X6X_ ` /.2XY.z h 4.6X6X6X6X6X6X6X",
"6X6X6X6X6X: i.d % X # = s Q 6X6X6X6X6X6X6X6X6X6XQ ! 0.].XXT z F 6X6X6X6X6X6X6X6X",
"6X6X6X6X6X4 k.! % o # = 9 D 6X6X6X6X6X6X6X6X6X6Xl f 5.+XP.H S #.6X6X6X6X6X6X6X6X",
"6X6X6X6X6X6Xl 5.9 o X = 8 s Q 6X6X6X6X6X6X6X6Xq.0.0.E.}.` J J 7.6X6X6X6X6X6X6X6X",
"6X6X6X6X6X6X$ k.5.. X = w 9 N 6X6X6X6X6X6X6X&.0.!.:X$X!.*.F #.6X6X6X6X6X6X6X6X6X",
"6X6X6X6X6X6X6X4 M o . O 3 e p ( 6X6X6X6Xn N ;.V. X$XV.0.) J 6X6X6X6X6X6X6X6X6X6X",
"6X6X6X6X6X6X6X6X* % o   o e s f _ ~.@Xb.Z ;.[.;XR.2.V ! W r.6X6X6X6X6X6X6X6X6X6X",
"6X6X6X6X6X6X6X6X6X& i p O - s p b 1.|.#X#X:XOXL.%.C J W 3.6X6X6X6X6X6X6X6X6X6X6X",
"6X6X6X6X6X6X6X6X6X6X6Xt.< . - p p b ! j.L.L.e.;.8.` ! t.6X6X6X6X6X6X6X6X6X6X6X6X",
"6X6X6X6X6X6X6X6X6X6X6X6X4.: o ; 1 f b M ! ` ` ! ! %.s.6X6X6X6X6X6X6X6X6X6X6X6X6X",
"6X6X6X6X6X6X6X6X6X6X6X6X6X6X0 > p b V V V C C %.9.D.6X6X6X6X6X6X6X6X6X6X6X6X6X6X",
"6X6X6X6X6X6X6X6X6X6X6X6X6X6X6X6Xv n [ ~ &.w.r.y.6X6X6X6X6X6X6X6X6X6X6X6X6X6X6X6X"
};
