/* XPM */
static char *result[] = {
/* columns rows colors chars-per-pixel */
"40 40 184 2 ",
"   c #160B00",
".  c #170B00",
"X  c #1D0B01",
"o  c #1E0802",
"O  c #1A0D00",
"+  c #1D0F00",
"@  c #1D0D04",
"#  c #1E1103",
"$  c #1F1203",
"%  c #210A01",
"&  c #210B03",
"*  c #230B03",
"=  c #200F01",
"-  c #230F03",
";  c #250F02",
":  c #270B04",
">  c #240D04",
",  c #300B03",
"<  c #370E03",
"1  c #221002",
"2  c #241201",
"3  c #271002",
"4  c #251202",
"5  c #271302",
"6  c #241304",
"7  c #2A1102",
"8  c #2A1302",
"9  c #2F1103",
"0  c #2C1703",
"q  c #2A1706",
"w  c #2C1606",
"e  c #2A1806",
"r  c #2B1908",
"t  c #321502",
"y  c #361502",
"u  c #3B1702",
"i  c #321B04",
"p  c #351A07",
"a  c #361E04",
"s  c #381902",
"d  c #3B1B02",
"f  c #3E1A02",
"g  c #3B1A06",
"h  c #3E1F04",
"j  c #331C08",
"k  c #431803",
"l  c #491A03",
"z  c #4A1904",
"x  c #4E1E08",
"c  c #501F06",
"v  c #531F06",
"b  c #591B03",
"n  c #472402",
"m  c #432105",
"M  c #4B2305",
"N  c #432A05",
"B  c #492904",
"V  c #4B2E04",
"C  c #402408",
"Z  c #41280B",
"A  c #522205",
"S  c #532705",
"D  c #5E2306",
"F  c #5C2604",
"G  c #552D04",
"H  c #572408",
"J  c #562D0B",
"K  c #5A2A09",
"L  c #4B330C",
"P  c #543205",
"I  c #5E3203",
"U  c #5A3405",
"Y  c #5F3706",
"T  c #50370D",
"R  c #593D0A",
"E  c #602905",
"W  c #682C05",
"Q  c #642B09",
"!  c #752F06",
"~  c #623007",
"^  c #6E3106",
"/  c #633D05",
"(  c #6D3B04",
")  c #653809",
"_  c #6D380B",
"`  c #7A3406",
"'  c #743A07",
"]  c #713B0A",
"[  c #70390D",
"{  c #783D09",
"}  c #7A3D0B",
"|  c #7C3D09",
" . c #7F3D08",
".. c #7F3A0C",
"X. c #694207",
"o. c #60430D",
"O. c #6F4109",
"+. c #6C410C",
"@. c #754006",
"#. c #734806",
"$. c #7C4609",
"%. c #7C4909",
"&. c #7A4D0B",
"*. c #7C4E09",
"=. c #78480C",
"-. c #7C490D",
";. c #7F5209",
":. c #812F09",
">. c #873C06",
",. c #8B3A07",
"<. c #803808",
"1. c #893D09",
"2. c #893C0D",
"3. c #963D0F",
"4. c #824009",
"5. c #8A4608",
"6. c #834C09",
"7. c #884E0B",
"8. c #8D4F0C",
"9. c #944C0B",
"0. c #865407",
"q. c #8F500A",
"w. c #8D520A",
"e. c #8D520B",
"r. c #89500E",
"t. c #8A580B",
"y. c #8F5A0B",
"u. c #8A5C0B",
"i. c #9C5109",
"p. c #9E5009",
"a. c #9D510D",
"s. c #975B0A",
"d. c #8C4913",
"f. c #965518",
"g. c #AF520A",
"h. c #A45B0A",
"j. c #AF590D",
"k. c #B7570B",
"l. c #B0530E",
"z. c #B15F0C",
"x. c #B85909",
"c. c #94620C",
"v. c #9D6409",
"b. c #986819",
"n. c #A46409",
"m. c #A9660B",
"M. c #A06A0B",
"N. c #A76C09",
"B. c #A4680D",
"V. c #B66308",
"C. c #BF630B",
"Z. c #BA650E",
"A. c #BA690C",
"S. c #A7710E",
"D. c #AE750C",
"F. c #B5740B",
"G. c #B67A0E",
"H. c #B57F0E",
"J. c #B46611",
"K. c #B37510",
"L. c #C0640C",
"P. c #C4700D",
"I. c #CE720A",
"U. c #CD700C",
"Y. c #D0730F",
"T. c #D27E0B",
"R. c #C3830F",
"E. c #C7840E",
"W. c #C28F0D",
"Q. c #D9830E",
"!. c #DE830F",
"~. c #CB970F",
"^. c #CD940D",
"/. c #C08410",
"(. c #CA8313",
"). c #C48C10",
"_. c #CE8E13",
"`. c #D78210",
"'. c #D69A10",
"]. c #D09F10",
"[. c #E48E0C",
"{. c #E5A011",
"}. c #EDAC13",
"|. c None",
/* pixels */
"|.|.|.|.|.|.|.|.|.|.|.|.|.|.|.|.|.|.|.|.|.|.|.|.|.|.|.|.|.|.|.|.|.|.|.|.|.|.|.|.",
"|.|.|.|.|.|.|.|.|.|.|.|.|.|.|.|.|.|.|.|.|.z c K K H |.|.|.|.|.|.|.|.|.|.|.|.|.|.",
"|.|.|.|.|.|.|.|.|.|.|.|.|.|.|.|.|.|.g 3 ; 0 i i i m S v x |.|.|.|.|.|.|.|.|.|.|.",
"|.|.|.|.|.|.|.|.|.|.|.|.|.|.|.|.g 5 2 7 y u k A S h a h M ~ } |.|.|.|.|.|.|.|.|.",
"|.|.|.|.|.|.|.|.|.|.|.|.|.|.& 1 0 M E W ! ! >.V.T.V.W s 0 t G 8.J.|.|.|.|.|.|.|.",
"|.|.|.|.|.|.|.|.|.|.|.|.|.& = d F ^ W  .v.F.v.n.R.{.I.,.M 0 ; m 7.Z.|.|.|.|.|.|.",
"|.|.|.|.|.|.|.|.|.|.|.|.o 5 M F W ` m.N.s.9.|.|.|.|.|.|.|.g 2 = h 5.Z.|.|.|.|.|.",
"|.|.|.|.|.|.|.|.|.|.|.|.8 P O.' h.G.B.D |.|.|.|.|.|.|.|.|.|.e 2 = B i.Z.|.|.|.|.",
"|.|.|.|.|.|.|.|.|.|.|.4 B X.#.M.G.{ H |.|.|.|.|.|.|.|.|.|.|.|.- = 2 U i.J.|.|.|.",
"|.|.|.|.|.|.|.|.|.|.> N S I c.W.y.H |.|.|.|.|.|.|.|.|.|.|.|.|.|.3 + i @.A.|.|.|.",
"|.|.|.|.|.|.|.|.|.|.C Y G ( ~./.r.|.|.|.|.|.|.|.|.|.|.|.|.|.|.|.q + + B s.P.|.|.",
"|.|.|.|.|.|.|.|.|.j o.P @.F.H.b.|.|.|.|.|.|.|.|.|.|.|.|.|.|.|.|.|.4 O 0 O.A.|.|.",
"|.|.|.|.|.|.|.|.|.C R Y M.H.=.|.|.|.|.|.|.|.|.|.|.|.|.|.|.|.|.|.|.& O + B p.Y.|.",
"|.|.|.|.|.|.|.|.|.T U 7.G.S.] |.|.|.|.|.|.|.|.|.|.|.|.|.|.|.|.|.|.|.O O a ` L.|.",
"|.|.|.|.|.|.|.|.p o.Y y.~.S.&.|.|.|.|.|.|.|.|.|.|.|.|.|.|.|.|.|.|.|.$ . 2 E g.|.",
"|.|.|.|.|.|.|.|.Z o.) t.].K.|.|.|.|.|.|.|.|.|.|.|.|.|.|.|.|.|.|.|.|.- . X S h.!.",
"|.|.|.|.|.|.|.|.L o.I *.S.-.|.|.|.|.|.|.|.|.|.|.|.|.|.|.|.|.|.|.|.|.@ . O m q.`.",
"|.|.|.|.|.|.|.|.L P n u.*._ |.|.|.|.|.|.|.|.|.|.|.|.|.|.|.|.|.|.|.|.r . O h 7.U.",
"|.|.|.|.|.|.|.|.N V B S.v.r.|.|.|.|.|.|.|.|.|.|.|.|.|.|.|.|.|.|.|.|.r .   d 5.C.",
"|.|.|.|.|.|.|.|.N V O.).M.+.|.|.|.|.|.|.|.|.|.|.|.|.|.|.|.|.|.|.|.|.r . . d 4.C.",
"|.|.|.|.|.|.|.|.a P O.D.*.+.|.|.|.|.|.|.|.|.|.|.|.|.|.|.|.|.|.|.|.|.r . . s <.x.",
"|.|.|.|.|.|.|.|.a Y U u.;.K |.|.|.|.|.|.|.|.|.|.|.|.|.|.|.|.|.|.|.|.q . . s  .x.",
"|.|.|.|.|.|.|.|.i P / H.y._ |.|.|.|.|.|.|.|.|.|.|.|.|.|.|.|.|.|.|.|.w . . f 5.g.",
"|.|.|.|.|.|.|.|.8 V t.'.W.e.|.|.|.|.|.|.|.|.|.|.|.|.|.|.|.|.|.|.|.|.6   O l i.k.",
"|.|.|.|.|.|.|.|.4 V ;.H.].M.|.|.|.|.|.|.|.|.|.|.|.|.|.|.|.|.|.|.|.|.#   = A z.Y.",
"|.|.|.|.|.|.|.|.- N / ;.G./.r.|.|.|.|.|.|.|.|.|.|.|.|.|.|.|.|.|.|.|.O . 7 ^ x.|.",
"|.|.|.|.|.|.|.|.& a U I v./.w.|.|.|.|.|.|.|.|.|.|.|.|.|.|.|.|.|.|.e . O u  .l.|.",
"|.|.|.|.|.|.|.|.|.8 U / 6.^.D.$.|.|.|.|.|.|.|.|.|.|.|.|.|.|.|.|.|.$ O 2 S <.3.|.",
"|.|.|.|.|.|.|.|.|.* V X.0.^.W.7.|.|.|.|.|.|.|.|.|.|.|.|.|.|.|.|.j O + s ' 2.|.|.",
"|.|.|.|.|.|.|.|.|.|.a / #.B.W.N.| |.|.|.|.|.|.|.|.|.|.|.|.|.|.|.1 O 7 S 5.:.|.|.",
"|.|.|.|.|.|.|.|.|.|.6 B O.@.@.D.%.Q |.|.|.|.|.|.|.|.|.|.|.|.|.6 + 2 f 4.a.|.|.|.",
"|.|.|.|.|.|.|.|.|.|.|.1 n h t ) B.c.J |.|.|.|.|.|.|.|.|.|.|.- = O t ^ f.|.|.|.|.",
"|.|.|.|.|.|.|.|.|.|.|.@ ; d f M 6.B.t.q.Q |.|.|.|.|.|.|.|.w = O = A d.|.|.|.|.|.",
"|.|.|.|.|.|.|.|.|.|.|.|.- 7 h u A F q.E.m.q.a.j.Q.}.(.1.C ; X X k ..|.|.|.|.|.|.",
"|.|.|.|.|.|.|.|.|.|.|.|.|.- 7 s k k l W ` i.T.U.[._.O.y ; X . k ..|.|.|.|.|.|.|.",
"|.|.|.|.|.|.|.|.|.|.|.|.|.|.> 7 t u y y k b ` >.' m ; = . 7 S ] |.|.|.|.|.|.|.|.",
"|.|.|.|.|.|.|.|.|.|.|.|.|.|.|.|.: 9 9 9 9 9 7 7 ; = . % m [ |.|.|.|.|.|.|.|.|.|.",
"|.|.|.|.|.|.|.|.|.|.|.|.|.|.|.|.|.o * 8 ; ; % X X % < D |.|.|.|.|.|.|.|.|.|.|.|.",
"|.|.|.|.|.|.|.|.|.|.|.|.|.|.|.|.|.|.|.|.|.o & & , |.|.|.|.|.|.|.|.|.|.|.|.|.|.|.",
"|.|.|.|.|.|.|.|.|.|.|.|.|.|.|.|.|.|.|.|.|.|.|.|.|.|.|.|.|.|.|.|.|.|.|.|.|.|.|.|."
};
