/* XPM */
static char *result[] = {
/* columns rows colors chars-per-pixel */
"40 40 213 2 ",
"   c #0C0500",
".  c #110400",
"X  c #140600",
"o  c #180500",
"O  c #180501",
"+  c #190602",
"@  c #1A0702",
"#  c #1C0400",
"$  c #1C0702",
"%  c #160900",
"&  c #170B00",
"*  c #180A01",
"=  c #1C0901",
"-  c #1E0A03",
";  c #1A0D00",
":  c #1C0C01",
">  c #1E0F01",
",  c #210601",
"<  c #250702",
"1  c #200802",
"2  c #220903",
"3  c #200D02",
"4  c #240E02",
"5  c #280902",
"6  c #340E02",
"7  c #211101",
"8  c #231002",
"9  c #261202",
"0  c #2A1001",
"q  c #2E1202",
"w  c #281402",
"e  c #2C1901",
"r  c #2C1A02",
"t  c #301502",
"y  c #321405",
"u  c #301705",
"i  c #381503",
"p  c #3B1406",
"a  c #341803",
"s  c #301C03",
"d  c #341F01",
"f  c #341F03",
"g  c #371E02",
"h  c #391A03",
"j  c #3E1904",
"k  c #3C1E04",
"l  c #382103",
"z  c #3C2403",
"x  c #3F2503",
"c  c #3D2605",
"v  c #450D03",
"b  c #470E02",
"n  c #451903",
"m  c #4E1B05",
"M  c #421B09",
"N  c #531202",
"B  c #5B1602",
"V  c #511F06",
"C  c #422105",
"Z  c #442505",
"A  c #4B2103",
"S  c #4B2706",
"D  c #4A2707",
"F  c #4C2505",
"G  c #412804",
"H  c #462805",
"J  c #452A06",
"K  c #4A2905",
"L  c #4D2C05",
"P  c #4C2D06",
"I  c #4E2B09",
"U  c #542603",
"Y  c #562607",
"T  c #502A05",
"R  c #522E04",
"E  c #502D06",
"W  c #572C06",
"Q  c #5D2806",
"!  c #592509",
"~  c #512A08",
"^  c #4C3305",
"/  c #533207",
"(  c #5D3005",
")  c #573806",
"_  c #573409",
"`  c #5C3609",
"'  c #652405",
"]  c #642707",
"[  c #642B07",
"{  c #632F06",
"}  c #622F07",
"|  c #6B2F06",
" . c #712306",
".. c #732705",
"X. c #7F2605",
"o. c #712D07",
"O. c #772E07",
"+. c #792E05",
"@. c #663006",
"#. c #6B3906",
"$. c #643108",
"%. c #653608",
"&. c #6C3208",
"*. c #69370B",
"=. c #6B380B",
"-. c #6D3A09",
";. c #7D3607",
":. c #783B07",
">. c #703509",
",. c #723508",
"<. c #70370B",
"1. c #743408",
"2. c #733A08",
"3. c #763C10",
"4. c #604207",
"5. c #614407",
"6. c #664707",
"7. c #6B4105",
"8. c #6C4E07",
"9. c #674209",
"0. c #72410A",
"q. c #764608",
"w. c #7B400A",
"e. c #754E0A",
"r. c #7E4A09",
"t. c #715609",
"y. c #74530D",
"u. c #794713",
"i. c #823106",
"p. c #8A3606",
"a. c #803806",
"s. c #863B0A",
"d. c #953306",
"f. c #9A3F09",
"g. c #A23A05",
"h. c #834409",
"j. c #86430C",
"k. c #8C4008",
"l. c #83480A",
"z. c #884B08",
"x. c #9D4707",
"c. c #944208",
"v. c #98450D",
"b. c #924809",
"n. c #974D08",
"m. c #9B4F0D",
"M. c #9D4E0C",
"N. c #855207",
"B. c #84560D",
"V. c #955207",
"C. c #9B5409",
"Z. c #905B08",
"A. c #995B0A",
"S. c #9E5A0B",
"D. c #8B5110",
"F. c #8D5717",
"G. c #9B5610",
"H. c #A04E07",
"J. c #A64009",
"K. c #A3500D",
"L. c #AA5208",
"P. c #A75E0A",
"I. c #AD5F0A",
"U. c #B85606",
"Y. c #B8570B",
"T. c #B9590C",
"R. c #B9580E",
"E. c #A05F1C",
"W. c #89660B",
"Q. c #89600C",
"!. c #826B0B",
"~. c #97630A",
"^. c #96660C",
"/. c #976E0D",
"(. c #967D0B",
"). c #9E6417",
"_. c #AD650A",
"`. c #A0680B",
"'. c #AC6A09",
"]. c #BC600B",
"[. c #B46D0B",
"{. c #AF760C",
"}. c #A67E0D",
"|. c #BE730A",
" X c #B77A0D",
".X c #B87E0E",
"XX c #BA6110",
"oX c #A87110",
"OX c #C46408",
"+X c #C8730B",
"@X c #CC7C0A",
"#X c #9C890D",
"$X c #AE800F",
"%X c #B88B0E",
"&X c #AC990E",
"*X c #BA950A",
"=X c #BB8811",
"-X c #BF9211",
";X c #C0840C",
":X c #CD890B",
">X c #D78A0B",
",X c #D3940D",
"<X c #D99F0C",
"1X c #CFA40F",
"2X c #D2AF0B",
"3X c #D1BA0C",
"4X c #E2CD0C",
"5X c #F5DB0B",
"6X c #F3E00B",
"7X c #F0E30B",
"8X c #FAF109",
"9X c #FFFC0B",
"0X c None",
/* pixels */
"0X0X0X0X0X0X0X0X0X0X0X0X0X0X0X0XXXR.J.g.d.s.b.c.0X0X0X0X0X0X0X0X0X0X0X0X0X0X0X0X",
"0X0X0X0X0X0X0X0X0X0X0X0X0X0XK.Y.T.d.f.p.k.C.H.x.M.K.0X0X0X0X0X0X0X0X0X0X0X0X0X0X",
"0X0X0X0X0X0X0X0X0X0X0X0X0Xv.T.].p.;.>.2.h.n.I.].L.P.0X0X0X0X0X0X0X0X0X0X0X0X0X0X",
"0X0X0X0X0X0X0X0X0X0X0X0X .f.].s.U F ` #.z.I.+XOXH.k.G.0X0X0X0X0X0X0X0X0X0X0X0X0X",
"0X0X0X0X0X0X0X0X0X0X0XX...k.&.q w W ` 0.S.S.;X`.0.b.h.).0X0X0X0X0X0X0X0X0X0X0X0X",
"0X0X0X0X0X0X0X0X0X0X .i.a.F & % k F / r.b.' 2.,X X%.#.l.0X0X0X0X0X0X0X0X0X0X0X0X",
"0X0X0X0X0X0X0X0X0Xm ( %.z.N.* e C k W l.$.V Q z. Xq.2.#.F.0X0X0X0X0X0X0X0X0X0X0X",
"0X0X0X0X0X0X0X0X0Xq f ` r.%.s H t a ( j.0Xy a W oX X0.R <.0X0X0X0X0X0X0X0X0X0X0X",
"0X0X0X0X0X0X0X0Xu   . 2. XH C g 9 g { 0X0X0Xw e L {./ g T 0X0X0X0X0X0X0X0X0X0X0X",
"0X0X0X0X0X0X0X0X3   s w.z.k k 9 7 g @.0X0X0Xu w e W.y./ H 0X0X0X0X0X0X0X0X0X0X0X",
"0X0X0X0X0X0X0XM .   L A.Z.C t 7 7 g $.0X0X0X8 e w 4.-XB.z ! 0X0X0X0X0X0X0X0X0X0X",
"0X0X0X0X0X0X0Xy   . k {.7.k w > 7 k =.0X0X0X0Xr e 6.-XQ.G I 0X0X0X0X0X0X0X0X0X0X",
"0X0X0X0X0X0X0X9   X N.~.H a 4 > 7 C *.0X0X0X0Xu s 9.$XW.8.P 0X0X0X0X0X0X0X0X0X0X",
"0X0X0X0X0X0X0X* : t Z.:X/ t 3 ; > Z 0X0X0X0X0Xr s 9.=X2X3X5.0X0X0X0X0X0X0X0X0X0X",
"0X0X0X0X0X0Xp . #.A.u.D.Z w : ; > H 0X0X0X0X0X0Xz 0.}.6X9X!.0X0X0X0X0X0X0X0X0X0X",
"0X0X0X0X0X0XM . r.[.'.`.k w ; & > S 0X0X0X0X0X0Xl / }.8X9X#X0X0X0X0X0X0X0X0X0X0X",
"0X0X0X0X0X0Xu % A >.@XZ.4 9 ; & > T 0X0X0X0X0X0Xx ` t.7X9X&X0X0X0X0X0X0X0X0X0X0X",
"0X0X0X0X0X0Xu : i U I.A : 7 ; & > T 0X0X0X0X0X0Xc G 4.4X9X&X~ 0X0X0X0X0X0X0X0X0X",
"0X0X0X0X0X0Xy : t ( :XS.a > ; & 7 T 0X0X0X0X0X0Xd f ^ 2X5X(.K 0X0X0X0X0X0X0X0X0X",
"0X0X0X0X0X0X2 * q %.0.{ h.w ; % > T 0X0X0X0X0X0Xd f 8.1X*X6.K 0X0X0X0X0X0X0X0X0X",
"0X0X0X0X0X0X2 * 0 A w.i >.#.; & > T 0X0X0X0X0X0Xd R 9.%X4.z K 0X0X0X0X0X0X0X0X0X",
"0X0X0X0X0X0X2 4 i q '.q.q 2.9 & > S 0X0X0X0X0X0XJ ` H /.^ f K 0X0X0X0X0X0X0X0X0X",
"0X0X0X0X0X0X$ 4 &.j F F 0 t 7 & : F 0X0X0X0X0X0Xc L Q.%X^ ^ K 0X0X0X0X0X0X0X0X0X",
"0X0X0X0X0X0X- X W { 0 h a 9 > & : C 0X0X0X0X0X0Xl 9..X1Xe.L D 0X0X0X0X0X0X0X0X0X",
"0X0X0X0X0X0X1 X :._.n >.a 4 7 ; ; k *.0X0X0X0X0Xz 6./.%Xr._ 0X0X0X0X0X0X0X0X0X0X",
"0X0X0X0X0X0X8 = n.@XV.I.a ; 7 ; ; h ] 0X0X0X0Xr f G Q.;XD./ 0X0X0X0X0X0X0X0X0X0X",
"0X0X0X0X0X0X0X@ k.L.'.|.Z % : ; > a [ 0X0X0X0Xu e s /.}.4.l 0X0X0X0X0X0X0X0X0X0X",
"0X0X0X0X0X0X0XO j n.C.w.` X % * > t } 0X0X0X0Xl e 4.$X^.) x 0X0X0X0X0X0X0X0X0X0X",
"0X0X0X0X0X0X0X$ , n P._.0.% % % > q { 0X0X0X~ L R `.-X^ g E 0X0X0X0X0X0X0X0X0X0X",
"0X0X0X0X0X0X0X+ , , i V.S.3 % % > q ( 0X0X0Xm U #.^.$XZ G $.0X0X0X0X0X0X0X0X0X0X",
"0X0X0X0X0X0X0X0XO , 6 C.C.q X % : q U 3.0X0XY U Q {.~.H L =.0X0X0X0X0X0X0X0X0X0X",
"0X0X0X0X0X0X0X0X1 # , h._.U X % & w A ,.0X[ ' ;.P.:XA.R ( 0X0X0X0X0X0X0X0X0X0X0X",
"0X0X0X0X0X0X0X0X0XO . Z h.w.4 % % 4 j &.+.a.p.x.>X{.q.( -.0X0X0X0X0X0X0X0X0X0X0X",
"0X0X0X0X0X0X0X0X0X+ o : D.[.a X X = 6 ( O.O.a.'.:Xr.#.#.<.0X0X0X0X0X0X0X0X0X0X0X",
"0X0X0X0X0X0X0X0X0X0X$ o a V @ . X X 5 U 1.i.[.<XV.w.b.:.0X0X0X0X0X0X0X0X0X0X0X0X",
"0X0X0X0X0X0X0X0X0X0X0X2 # @ . . X X , n 2...|.>XOXOXH.o.0X0X0X0X0X0X0X0X0X0X0X0X",
"0X0X0X0X0X0X0X0X0X0X0X0X< # q h F q 5 n | :...L.U.x.O.0X0X0X0X0X0X0X0X0X0X0X0X0X",
"0X0X0X0X0X0X0X0X0X0X0X0X0X1 Y h.%.4 5 V 1.h.>.N B ' ! 0X0X0X0X0X0X0X0X0X0X0X0X0X",
"0X0X0X0X0X0X0X0X0X0X0X0X0X0X0X<.m.Q 6 b ' a.D.D.u.3.0X0X0X0X0X0X0X0X0X0X0X0X0X0X",
"0X0X0X0X0X0X0X0X0X0X0X0X0X0X0X0X0XXX] m v  .v.E.0X0X0X0X0X0X0X0X0X0X0X0X0X0X0X0X"
};
