/* XPM */
static char *result[] = {
/* columns rows colors chars-per-pixel */
"40 40 196 2 ",
"   c #140501",
".  c #170701",
"X  c #170702",
"o  c #1A0702",
"O  c #1A0901",
"+  c #1A0A01",
"@  c #1C0902",
"#  c #1C0D01",
"$  c #1F0D01",
"%  c #1F1101",
"&  c #200A01",
"*  c #230F02",
"=  c #230E03",
"-  c #240D03",
";  c #270C02",
":  c #260F03",
">  c #260E04",
",  c #2A0D04",
"<  c #231302",
"1  c #271102",
"2  c #251202",
"3  c #251501",
"4  c #261603",
"5  c #251004",
"6  c #291103",
"7  c #291503",
"8  c #2B1304",
"9  c #2C1204",
"0  c #2C1304",
"q  c #2F1604",
"w  c #2A1803",
"e  c #2D1B04",
"r  c #2C1509",
"t  c #2F1608",
"y  c #341302",
"u  c #341703",
"i  c #361707",
"p  c #301A03",
"a  c #341903",
"s  c #351804",
"d  c #371C05",
"f  c #341E05",
"g  c #3F1A03",
"h  c #3B1E03",
"j  c #3A1904",
"k  c #3B1A05",
"l  c #3D1D04",
"z  c #3F1D05",
"x  c #361809",
"c  c #3D1F0A",
"v  c #362207",
"b  c #3C2205",
"n  c #3F2909",
"m  c #431401",
"M  c #491502",
"N  c #431F05",
"B  c #401C06",
"V  c #441D05",
"C  c #4A1E05",
"Z  c #4F1C04",
"A  c #401E0A",
"S  c #541C03",
"D  c #511A04",
"F  c #5C1D02",
"G  c #581F04",
"H  c #422207",
"J  c #452305",
"K  c #462707",
"L  c #492205",
"P  c #4B2306",
"I  c #4F2607",
"U  c #4C2A07",
"Y  c #48210A",
"T  c #4F2208",
"R  c #4D2708",
"E  c #452D0A",
"W  c #492C08",
"Q  c #562405",
"!  c #5C2304",
"~  c #572907",
"^  c #582A06",
"/  c #5B2E05",
"(  c #522C08",
")  c #522E0A",
"_  c #552C09",
"`  c #5E2C08",
"'  c #5C2F0A",
"]  c #54340A",
"[  c #5C3309",
"{  c #642506",
"}  c #682504",
"|  c #6C2805",
" . c #612E09",
".. c #612D0B",
"X. c #6A2E08",
"o. c #722C04",
"O. c #792E06",
"+. c #6A3207",
"@. c #623B07",
"#. c #663909",
"$. c #683A0B",
"%. c #763306",
"&. c #7E3405",
"*. c #7A3A06",
"=. c #743708",
"-. c #73360C",
";. c #7A360A",
":. c #743A0A",
">. c #743C09",
",. c #75380C",
"<. c #703F0C",
"1. c #6B410A",
"2. c #6F430A",
"3. c #7C4009",
"4. c #7D4208",
"5. c #863305",
"6. c #8F3B06",
"7. c #843B09",
"8. c #864608",
"9. c #82410C",
"0. c #87410E",
"q. c #8A4009",
"w. c #8F430C",
"e. c #87480B",
"r. c #874F0A",
"t. c #8B4E0B",
"y. c #8F4F0E",
"u. c #944107",
"i. c #9D4306",
"p. c #9D4C06",
"a. c #934C09",
"s. c #964E0D",
"d. c #984F0A",
"f. c #905209",
"g. c #92550C",
"h. c #9A500A",
"j. c #9C540B",
"k. c #93580B",
"l. c #98580C",
"z. c #9A5C0E",
"x. c #9D5D0F",
"c. c #8A4A10",
"v. c #A54B07",
"b. c #A44E0F",
"n. c #B14E05",
"m. c #A6510B",
"M. c #A65509",
"N. c #AC560C",
"B. c #A1580B",
"V. c #A65F0B",
"C. c #A85A09",
"Z. c #AC5C0A",
"A. c #B75907",
"S. c #B45D09",
"D. c #9F630A",
"F. c #A3620C",
"G. c #AE620B",
"H. c #A8630D",
"J. c #AB620D",
"K. c #AF630C",
"L. c #AE6E0E",
"P. c #BF6007",
"I. c #B2610A",
"U. c #B0670E",
"Y. c #BA660A",
"T. c #BE640B",
"R. c #B66F0B",
"E. c #B56A0E",
"W. c #BC6E0B",
"Q. c #BC730E",
"!. c #BA760D",
"~. c #C05F0B",
"^. c #C06608",
"/. c #C1640D",
"(. c #C6680A",
"). c #C76F0C",
"_. c #C96B09",
"`. c #C2710A",
"'. c #C6700A",
"]. c #C0760A",
"[. c #CE7609",
"{. c #CC730D",
"}. c #CC770C",
"|. c #C6780A",
" X c #CF7B0C",
".X c #D1730B",
"XX c #D0750F",
"oX c #BD820F",
"OX c #D4840B",
"+X c #D88D0B",
"@X c #D58713",
"#X c #DA8611",
"$X c #D09111",
"%X c #E2980A",
"&X c #E1AD16",
"*X c None",
/* pixels */
"*X*X*X*X*X*X*X*X*X*X*X*X*X*X*X*X*X*X*X....*X*X*X*X*X*X*X*X*X*X*X*X*X*X*X*X*X*X*X",
"*X*X*X*X*X*X*X*X*X*X*X*X*X*XY B z u 0 7 q p u z L _ *X*X*X*X*X*X*X*X*X*X*X*X*X*X",
"*X*X*X*X*X*X*X*X*X*X*XA i 0 7 e v f h H b a f v e q l R *X*X*X*X*X*X*X*X*X*X*X*X",
"*X*X*X*X*X*X*X*X*X*Xk 6 w n W K V G } o.&.o.X./ H v e 4 p ( *X*X*X*X*X*X*X*X*X*X",
"*X*X*X*X*X*X*X*XY q 7 E ] V y Q a.a.g.D.L.R.R.G.8.g a v e 2 J <.*X*X*X*X*X*X*X*X",
"*X*X*X*X*X*X*Xc 6 v ] ^ m >.D.V.d.k.x.e.` f.z.t.l.r. .C a f < d $.*X*X*X*X*X*X*X",
"*X*X*X*X*X*Xt 6 n ] Z ! >.h.K.*X*X*X*X*X*X*X*X*X*X:.9.l.^ y d < p $.*X*X*X*X*X*X",
"*X*X*X*X*Xt 1 E I m *.g.3.*X*X*X*X*X*X*X*X*X*X*X*X*X*Xe.y.4.S I w p #.*X*X*X*X*X",
"*X*X*X*Xr 2 n [ M r.E.0.*X*X*X*X*X*X*X*X*X*X*X*X*X*X*X*X*XU.W.p.+.4 h ,.*X*X*X*X",
"*X*X*X*X0 p ) S j.Q.s.*X*X*X*X*X*X*X*X*X*X*X*X*X*X*X*X*X*X*XT.P.i./ % U *X*X*X*X",
"*X*X*Xt 7 W m 4.j.,.*X*X*X*X*X*X*X*X*X*X*X*X*X*X*X*X*X*X*X*X*XT.A.u.d 2 $.*X*X*X",
"*X*X*X3 b Q =.H.-.*X*X*X*X*X*X*X*X*X*X*X*X*X*X*X*X*X*X*X*X*X*X*X(.n.*.% b *X*X*X",
"*X*Xt 2 ^ | g.c.*X*X*X*X*X*X*X*X*X*X*X*X*X*X*X*X*X*X*X*X*X*X*X*X/._.i.h % ~ *X*X",
"*X*X8 a %.q.oXx.*X*X*X*X*X*X*X*X*X*X*X*X*X*X*X*X*X*X*X*X*X*X*X*X*X{.n.Q % N *X*X",
"*Xx 1 K 7.B.Q.*X*X*X*X*X*X*X*X*X*X*X*X*X*X*X*X*X*X*X*X*X*X*X*X*X*X}.P.} 4 p *X*X",
"*Xi 1 ^ O.H.3.*X*X*X*X*X*X*X*X*X*X*X*X*X*X*X*X*X*X*X*X*X*X*X*X*X*X*X[.5.j 2 ' *X",
"*X0 e Q | B.D *X*X*X*X*X*X*X*X*X*X*X*X*X*X*X*X*X*X*X*X*X*X*X*X*X*X*X.Xv.C % ( *X",
"*X8 p S | V.*X*X*X*X*X*X*X*X*X*X*X*X*X*X*X*X*X*X*X*X*X*X*X*X*X*X*X*XXXS.G % P *X",
"*X1 d F 8.E.*X*X*X*X*X*X*X*X*X*X*X*X*X*X*X*X*X*X*X*X*X*X*X*X*X*X*X*X).v.G < N *X",
", * h | Z.E.*X*X*X*X*X*X*X*X*X*X*X*X*X*X*X*X*X*X*X*X*X*X*X*X*X*X*X*X).a.S < z *X",
", * h &.S.C.*X*X*X*X*X*X*X*X*X*X*X*X*X*X*X*X*X*X*X*X*X*X*X*X*X*X*X*X#Xu.S < z *X",
"*X* d &.i.Z.*X*X*X*X*X*X*X*X*X*X*X*X*X*X*X*X*X*X*X*X*X*X*X*X*X*X*X*XXX6.Z < N *X",
"*X= p *.6.Y.*X*X*X*X*X*X*X*X*X*X*X*X*X*X*X*X*X*X*X*X*X*X*X*X*X*X*X*X{.q.V % P *X",
"*X5 7 =.M.+XN.*X*X*X*X*X*X*X*X*X*X*X*X*X*X*X*X*X*X*X*X*X*X*X*X*X*X*XOX*.j * ~ *X",
"*X: < / S.%X|.*X*X*X*X*X*X*X*X*X*X*X*X*X*X*X*X*X*X*X*X*X*X*X*X*X*X@X!.Z q 1 ` *X",
"*X- 2 b j.+X+X*X*X*X*X*X*X*X*X*X*X*X*X*X*X*X*X*X*X*X*X*X*X*X*X*X*X#X8.g < u *X*X",
"*X*X1 7 *.W.OX).*X*X*X*X*X*X*X*X*X*X*X*X*X*X*X*X*X*X*X*X*X*X*X*X*X'.{ d # k *X*X",
"*X*X9 2 / p.Y. X*X*X*X*X*X*X*X*X*X*X*X*X*X*X*X*X*X*X*X*X*X*X*X*XXXZ.C 4 * T *X*X",
"*X*X> 0 p 4.v.^.`.*X*X*X*X*X*X*X*X*X*X*X*X*X*X*X*X*X*X*X*X*X*X~.P.%.d # l *X*X*X",
"*X*X*X9 2 W j.S.%XF.*X*X*X*X*X*X*X*X*X*X*X*X*X*X*X*X*X*X*X*X}._.u.Q % 6 ' *X*X*X",
"*X*X*X*X0 2 @.V.$X&XF.*X*X*X*X*X*X*X*X*X*X*X*X*X*X*X*X*X*Xb.Y.i.&.f $ P *X*X*X*X",
"*X*X*X*X; 1 7 2.L.$X$Xd.*X*X*X*X*X*X*X*X*X*X*X*X*X*X*X*XN.M.6.q.K # l *X*X*X*X*X",
"*X*X*X*X*X& * w 1.B.i.M.h.w.*X*X*X*X*X*X*X*X*X*X*X*Xb.m.j.5.7.K # u ..*X*X*X*X*X",
"*X*X*X*X*X*X@ * 7 [ =.F 7.W.H.;.w.*X*X*X*X*X*X/.).J.q.} | >.f # a ` *X*X*X*X*X*X",
"*X*X*X*X*X*X*X@ $ * b K C %.q.7.H.Z.G.I.Q.'.].V.8.! S X.[ w # j ` *X*X*X*X*X*X*X",
"*X*X*X*X*X*X*X*Xo $ $ 7 b I Q G { 7.a.%.+.>.=.G Z I ) v % 1 N *X*X*X*X*X*X*X*X*X",
"*X*X*X*X*X*X*X*X*X*X. + $ 4 v K H g V J H j h W n e % 2 s T *X*X*X*X*X*X*X*X*X*X",
"*X*X*X*X*X*X*X*X*X*X*X  . + # % % % < 4 4 % % % < q z T *X*X*X*X*X*X*X*X*X*X*X*X",
"*X*X*X*X*X*X*X*X*X*X*X*X*X*XX . O # # $ $ = 0 k R *X*X*X*X*X*X*X*X*X*X*X*X*X*X*X",
"*X*X*X*X*X*X*X*X*X*X*X*X*X*X*X*X*X*X*X, *X*X*X*X*X*X*X*X*X*X*X*X*X*X*X*X*X*X*X*X"
};
