/* XPM */
static char *result[] = {
/* columns rows colors chars-per-pixel */
"40 40 135 2 ",
"   c #120500",
".  c #150500",
"X  c #180501",
"o  c #180700",
"O  c #1C0600",
"+  c #1C0702",
"@  c #1D0702",
"#  c #140800",
"$  c #160A00",
"%  c #170C00",
"&  c #1A0C00",
"*  c #1C0E00",
"=  c #1E1000",
"-  c #240701",
";  c #200B01",
":  c #230A03",
">  c #200F01",
",  c #220D02",
"<  c #230C03",
"1  c #250F01",
"2  c #270E03",
"3  c #240D04",
"4  c #2B0803",
"5  c #2D0B01",
"6  c #2A0C04",
"7  c #390902",
"8  c #221001",
"9  c #241201",
"0  c #281301",
"q  c #291002",
"w  c #2C1202",
"e  c #2A1502",
"r  c #2F1403",
"t  c #2D1904",
"y  c #341602",
"u  c #3D1603",
"i  c #381206",
"p  c #3C1306",
"a  c #371C03",
"s  c #311A04",
"d  c #3B1F04",
"f  c #3D2103",
"g  c #4F0B01",
"h  c #4F0F03",
"j  c #501302",
"k  c #5C1504",
"l  c #591E05",
"z  c #671F08",
"x  c #751D03",
"c  c #422304",
"v  c #482706",
"b  c #472804",
"n  c #4F2805",
"m  c #4C2B05",
"M  c #532506",
"N  c #582506",
"B  c #502906",
"V  c #542C06",
"C  c #5B2A06",
"Z  c #5F2906",
"A  c #582F04",
"S  c #5E2E08",
"D  c #5E2F09",
"F  c #543306",
"G  c #5E3E07",
"H  c #5E3709",
"J  c #642005",
"K  c #6E2104",
"L  c #692506",
"P  c #682B06",
"I  c #63270A",
"U  c #6E2208",
"Y  c #682E08",
"T  c #682E09",
"R  c #732107",
"E  c #762506",
"W  c #702E08",
"Q  c #683406",
"!  c #6B3607",
"~  c #6F3A06",
"^  c #663708",
"/  c #6F3F08",
"(  c #783E07",
")  c #74330A",
"_  c #793F0A",
"`  c #7A3610",
"'  c #694008",
"]  c #744508",
"[  c #794708",
"{  c #7E480A",
"}  c #822704",
"|  c #902C05",
" . c #873207",
".. c #87310A",
"X. c #863809",
"o. c #803E0E",
"O. c #9C3506",
"+. c #9F3905",
"@. c #8E4507",
"#. c #87440A",
"$. c #844908",
"%. c #8F4E09",
"&. c #984F07",
"*. c #88500A",
"=. c #975B07",
"-. c #925508",
";. c #98510C",
":. c #8B4611",
">. c #A64A0A",
",. c #A85508",
"<. c #AD590A",
"1. c #AA5C0B",
"2. c #BE5807",
"3. c #B2590F",
"4. c #9F6009",
"5. c #A96707",
"6. c #A76209",
"7. c #AC6509",
"8. c #B56709",
"9. c #B46E0C",
"0. c #BC6A0A",
"q. c #AD7209",
"w. c #BC7208",
"e. c #B87909",
"r. c #C66309",
"t. c #C07808",
"y. c #C87D0A",
"u. c #CF7D09",
"i. c #D5760D",
"p. c #BF8008",
"a. c #CC8C09",
"s. c #DD8C09",
"d. c #E1890B",
"f. c #EC9809",
"g. c None",
/* pixels */
"g.g.g.g.g.g.g.g.g.g.g.g.g.g.g.g.g.g.O.+.r.i.>.} j 4 g.g.g.g.g.g.g.g.g.g.g.g.g.g.",
"g.g.g.g.g.g.g.g.g.g.g.g.g.g.g.g...| 2.r.d.u.} x J ) g.g.g.g.g.g.g.g.g.g.g.g.g.g.",
"g.g.g.g.g.g.g.g.g.g.g.g.g.g.g.U x  .,.u.u.7.K K %.8.g.g.g.g.g.g.g.g.g.g.g.g.g.g.",
"g.g.g.g.g.g.g.g.g.g.g.g.g.g.z K P Z C 9.9.! C ( $.1.3.g.g.g.g.g.g.g.g.g.g.g.g.g.",
"g.g.g.g.g.g.g.g.g.g.g.g.g.g.E l q ; V / S H H ' / ;...g.g.g.g.g.g.g.g.g.g.g.g.g.",
"g.g.g.g.g.g.g.g.g.g.g.g.g.g.Z 1 # s ^ &.~ n V A ^ @.o.g.g.g.g.g.g.g.g.g.g.g.g.g.",
"g.g.g.g.g.g.g.g.g.g.g.g.g.I a # e m $.8.5.u v m H %.o.g.g.g.g.g.g.g.g.g.g.g.g.g.",
"g.g.g.g.g.g.g.g.g.g.g.g.g.p > s v m =.=.-.q y f m $._ g.g.g.g.g.g.g.g.g.g.g.g.g.",
"g.g.g.g.g.g.g.g.g.g.g.g.g.* 8 c v f ( y.] ; 1 s v [ T g.g.g.g.g.g.g.g.g.g.g.g.g.",
"g.g.g.g.g.g.g.g.g.g.g.g.i $ s f a y *.! ^ * 0 t c ( D g.g.g.g.g.g.g.g.g.g.g.g.g.",
"g.g.g.g.g.g.g.g.g.g.g.g.6 * d s e 1 $.e.[ & 9 0 f ( B g.g.g.g.g.g.g.g.g.g.g.g.g.",
"g.g.g.g.g.g.g.g.g.g.g.g.: 9 d 0 9 9 Q =.a * 8 9 d ! b g.g.g.g.g.g.g.g.g.g.g.g.g.",
"g.g.g.g.g.g.g.g.g.g.g.g.< t a 1 9 a t.5.a * * > s Q b g.g.g.g.g.g.g.g.g.g.g.g.g.",
"g.g.g.g.g.g.g.g.g.g.g.g.2 t s w ~ n %.9.v % & = t Q b g.g.g.g.g.g.g.g.g.g.g.g.g.",
"g.g.g.g.g.g.g.g.g.g.g.g., s e V s.$.^ ~ v $ % & e [ G g.g.g.g.g.g.g.g.g.g.g.g.g.",
"g.g.g.g.g.g.g.g.g.g.g.g.q y 0 d 7.[ 6.q.F # % % 9 { ' g.g.g.g.g.g.g.g.g.g.g.g.g.",
"g.g.g.g.g.g.g.g.g.g.g.g.w w 9 8 9 v 7.q.t $ % % 9 / F g.g.g.g.g.g.g.g.g.g.g.g.g.",
"g.g.g.g.g.g.g.g.g.g.g.g.w 1 8 = $ a 6.~ & $ % % 9 ! F g.g.g.g.g.g.g.g.g.g.g.g.g.",
"g.g.g.g.g.g.g.g.g.g.g.i q 8 = = $ m a.w.( & # $ 9 Q H g.g.g.g.g.g.g.g.g.g.g.g.g.",
"g.g.g.g.g.g.g.g.g.g.g.i 1 ; = = $ F ' q @.Q $ $ 9 C c g.g.g.g.g.g.g.g.g.g.g.g.g.",
"g.g.g.g.g.g.g.g.g.g.g.3 ; 8 8 = % f ! a 1 #.n # 8 M f g.g.g.g.g.g.g.g.g.g.g.g.g.",
"g.g.g.g.g.g.g.g.g.g.g.3 ; 1 9 0 0 > 4.e.> y S % 8 M f g.g.g.g.g.g.g.g.g.g.g.g.g.",
"g.g.g.g.g.g.g.g.g.g.g.3 ; q 8 f ( * c A & % 8 % 8 M F g.g.g.g.g.g.g.g.g.g.g.g.g.",
"g.g.g.g.g.g.g.g.g.g.g.g.; r 0 e %.a % & % % % % 8 N V g.g.g.g.g.g.g.g.g.g.g.g.g.",
"g.g.g.g.g.g.g.g.g.g.g.g.; y 9 a w./ * C 9 % % & 1 Z ^ g.g.g.g.g.g.g.g.g.g.g.g.g.",
"g.g.g.g.g.g.g.g.g.g.g.g.q y 8 ^ f.-./ ;.v & * * 1 C V g.g.g.g.g.g.g.g.g.g.g.g.g.",
"g.g.g.g.g.g.g.g.g.g.g.g.2 u 1 #.0.~ p.y.H * = > e N v g.g.g.g.g.g.g.g.g.g.g.g.g.",
"g.g.g.g.g.g.g.g.g.g.g.g.2 r o M %.V ( ] ' % 9 9 r N V g.g.g.g.g.g.g.g.g.g.g.g.g.",
"g.g.g.g.g.g.g.g.g.g.g.g.< O $ $ V 7.8.$.' # 9 e y N A g.g.g.g.g.g.g.g.g.g.g.g.g.",
"g.g.g.g.g.g.g.g.g.g.g.g.+ O $ # # a =.y.{   8 s y N C g.g.g.g.g.g.g.g.g.g.g.g.g.",
"g.g.g.g.g.g.g.g.g.g.g.g.@ - o # # $ ~ %.~ # & r u N S g.g.g.g.g.g.g.g.g.g.g.g.g.",
"g.g.g.g.g.g.g.g.g.g.g.g.g.O O # # o 4.w.$.. $ r y Z Y g.g.g.g.g.g.g.g.g.g.g.g.g.",
"g.g.g.g.g.g.g.g.g.g.g.g.g.X o o # . { S { ; o w 5 Z Y g.g.g.g.g.g.g.g.g.g.g.g.g.",
"g.g.g.g.g.g.g.g.g.g.g.g.g.+ . .     ] 6.q.r o - 5 P ) g.g.g.g.g.g.g.g.g.g.g.g.g.",
"g.g.g.g.g.g.g.g.g.g.g.g.g.g.o       c #.A O O 5 5 ) :.g.g.g.g.g.g.g.g.g.g.g.g.g.",
"g.g.g.g.g.g.g.g.g.g.g.g.g.g.: .     o r . o 5 u M ) ` g.g.g.g.g.g.g.g.g.g.g.g.g.",
"g.g.g.g.g.g.g.g.g.g.g.g.g.g.g.O . . o O y u W P *.%.T g.g.g.g.g.g.g.g.g.g.g.g.g.",
"g.g.g.g.g.g.g.g.g.g.g.g.g.g.g.6 - O O C #.#.l J @.1.L g.g.g.g.g.g.g.g.g.g.g.g.g.",
"g.g.g.g.g.g.g.g.g.g.g.g.g.g.g.g.i p 7 J >.1.j g K  .z g.g.g.g.g.g.g.g.g.g.g.g.g.",
"g.g.g.g.g.g.g.g.g.g.g.g.g.g.g.g.g.g.g.h X.<.I k R g.g.g.g.g.g.g.g.g.g.g.g.g.g.g."
};
