/* XPM */
static char *result[] = {
/* columns rows colors chars-per-pixel */
"40 40 199 2 ",
"   c #130501",
".  c #150702",
"X  c #180701",
"o  c #170801",
"O  c #160B00",
"+  c #180A02",
"@  c #1C0B02",
"#  c #180C00",
"$  c #1B0D00",
"%  c #1C0E01",
"&  c #220B02",
"*  c #200D01",
"=  c #200F01",
"-  c #270C03",
";  c #240E03",
":  c #2A0F02",
">  c #201101",
",  c #241001",
"<  c #241301",
"1  c #271103",
"2  c #271302",
"3  c #2A1402",
"4  c #2B1703",
"5  c #281005",
"6  c #291005",
"7  c #2B1104",
"8  c #281205",
"9  c #2D1306",
"0  c #2F1803",
"q  c #2E1B04",
"w  c #321202",
"e  c #341303",
"r  c #361303",
"t  c #301403",
"y  c #331703",
"u  c #301206",
"i  c #331404",
"p  c #371504",
"a  c #3D1103",
"s  c #3E1606",
"d  c #311A04",
"f  c #371806",
"g  c #331E04",
"h  c #381B02",
"j  c #3D1902",
"k  c #3E1F03",
"l  c #3B1B04",
"z  c #391806",
"x  c #391C05",
"c  c #3B1D06",
"v  c #3E1E04",
"b  c #372205",
"n  c #3D2606",
"m  c #411704",
"M  c #451B05",
"N  c #4E1F06",
"B  c #4A1F09",
"V  c #541C03",
"C  c #571D05",
"Z  c #651F05",
"A  c #6C1D04",
"S  c #432206",
"D  c #442104",
"F  c #462307",
"G  c #492104",
"H  c #482105",
"J  c #4A2207",
"K  c #4F2204",
"L  c #492605",
"P  c #422608",
"I  c #4D2308",
"U  c #402A08",
"Y  c #442F09",
"T  c #572005",
"R  c #502606",
"E  c #592504",
"W  c #5F2605",
"Q  c #522B06",
"!  c #592F06",
"~  c #5F2E04",
"^  c #562308",
"/  c #542A0A",
"(  c #542F0A",
")  c #4B370B",
"_  c #4E3B0D",
"`  c #523309",
"'  c #57330E",
"]  c #593708",
"[  c #59350B",
"{  c #58300C",
"}  c #52390C",
"|  c #5B3E0C",
" . c #632A05",
".. c #672906",
"X. c #622E05",
"o. c #6A2F05",
"O. c #792602",
"+. c #623507",
"@. c #633F0A",
"#. c #6B3B0A",
"$. c #713306",
"%. c #7E3105",
"&. c #713907",
"*. c #7F3E07",
"=. c #77360A",
"-. c #773D08",
";. c #554310",
":. c #66440C",
">. c #694B0F",
",. c #7C4309",
"<. c #754B0B",
"1. c #7A480B",
"2. c #8D3304",
"3. c #8E3507",
"4. c #833A05",
"5. c #863B06",
"6. c #853D06",
"7. c #8A3B07",
"8. c #963D08",
"9. c #8E4307",
"0. c #824309",
"q. c #85430A",
"w. c #85470A",
"e. c #834C09",
"r. c #8F4F09",
"t. c #9E4206",
"y. c #954C07",
"u. c #9B4408",
"i. c #944E0D",
"p. c #9C4E08",
"a. c #87510C",
"s. c #81540C",
"d. c #89540D",
"f. c #8C590D",
"g. c #91570A",
"h. c #98530B",
"j. c #9F560A",
"k. c #96580A",
"l. c #965C0E",
"z. c #9D5C0B",
"x. c #894B10",
"c. c #805A11",
"v. c #A34A09",
"b. c #AF5208",
"n. c #A25B0B",
"m. c #A9580A",
"M. c #AE5F0B",
"N. c #BA5C0A",
"B. c #BE5F08",
"V. c #9F650C",
"C. c #946712",
"Z. c #996711",
"A. c #A06008",
"S. c #A6610B",
"D. c #AB620B",
"F. c #A9670B",
"G. c #A16F0E",
"H. c #AF690A",
"J. c #AA6D0D",
"K. c #B3660B",
"L. c #B56C0B",
"P. c #BA6B0A",
"I. c #B8710C",
"U. c #BE730D",
"Y. c #A76213",
"T. c #B07010",
"R. c #C26408",
"E. c #CA640D",
"W. c #CE6A0A",
"Q. c #CE6C0A",
"!. c #D56F09",
"~. c #D16B0C",
"^. c #C6710A",
"/. c #C17D0D",
"(. c #CA780F",
"). c #D37609",
"_. c #D0750C",
"`. c #D3760F",
"'. c #D6750C",
"]. c #DC750A",
"[. c #DE790A",
"{. c #DB7F0B",
"}. c #DE7D0A",
"|. c #DA7910",
" X c #BD870F",
".X c #CD800E",
"XX c #D1870E",
"oX c #D5870D",
"OX c #DE830A",
"+X c #D3910E",
"@X c #C58A12",
"#X c #CB8812",
"$X c #D49A10",
"%X c #DF9D19",
"&X c #E3860B",
"*X c #E28C0F",
"=X c #E68E0F",
"-X c #E0A112",
";X c None",
/* pixels */
";X;X;X;X;X;X;X;X;X;X;X;X;X;X;X;X{ ( R H R T ^ / ;X;X;X;X;X;X;X;X;X;X;X;X;X;X;X;X",
";X;X;X;X;X;X;X;X;X;X;X;X;XJ H y 3 < > > < < 3 0 x S / ;X;X;X;X;X;X;X;X;X;X;X;X;X",
";X;X;X;X;X;X;X;X;X;X;Xp t , % = 2 0 k k k j h 0 3 < 4 P { ;X;X;X;X;X;X;X;X;X;X;X",
";X;X;X;X;X;X;X;X;Xm 7 = % 2 h K E X.*.z.g.&.&.w.+.Q U q 0 H ;X;X;X;X;X;X;X;X;X;X",
";X;X;X;X;X;X;X;Xz , $ < D ..5.p.S.D.z.r.S.k.A.I./.q.-.+.) g g [ ;X;X;X;X;X;X;X;X",
";X;X;X;X;X;X;Xf = # 4 X.n.XX(.Y.i.=.I s ^ T C ..r.w.T.l.! } U 4 ( ;X;X;X;X;X;X;X",
";X;X;X;X;X;Xc = # 3 -.#X-X%X;X;X;X;X;X;X;X;X;X;Xa w 1.g.s.n } ) 4 ( ;X;X;X;X;X;X",
";X;X;X;X;Xi = # w *.oX*X;X;X;X;X;X;X;X;X;X;X;X;X;X;Xu w @.c.] :.) q { ;X;X;X;X;X",
";X;X;X;X9 , # 3 5.OX{.;X;X;X;X;X;X;X;X;X;X;X;X;X;X;X;X- : L C.f.| _ b ;X;X;X;X;X",
";X;X;X;X8 # = $.).Q.;X;X;X;X;X;X;X;X;X;X;X;X;X;X;X;X;X;Xe t ]  X:._ b P ;X;X;X;X",
";X;X;Xu * O G R.!.;X;X;X;X;X;X;X;X;X;X;X;X;X;X;X;X;X;X;X;Xe y Z.s.g ;.q ' ;X;X;X",
";X;X;X8 # 2 y.].;X;X;X;X;X;X;X;X;X;X;X;X;X;X;X;X;X;X;X;X;X;Xp D Z.:.) Y x ;X;X;X",
";X;X9 = # Q _.;X;X;X;X;X;X;X;X;X;X;X;X;X;X;X;X;X;X;X;X;X;X;X;XN x.l.<.>.q { ;X;X",
";X;X1 # = r.=X;X;X;X;X;X;X;X;X;X;X;X;X;X;X;X;X;X;X;X;X;X;X;X;X4.9.G.G.c.U c ;X;X",
";X;X2 O h U.;X;X;X;X;X;X;X;X;X;X;X;X;X;X;X;X;X;X;X;X;X;X;X;X;X;X6.F.@Xf.) d ;X;X",
";Xs = O ! '.;X;X;X;X;X;X;X;X;X;X;X;X;X;X;X;X;X;X;X;X;X;X;X;X;X;XT *. X<._ g ;X;X",
";Xz $ $ 0.`.;X;X;X;X;X;X;X;X;X;X;X;X;X;X;X;X;X;X;X;X;X;X;X;X;X;Xm K d.+.} b I ;X",
";Xf # = h.Q.;X;X;X;X;X;X;X;X;X;X;X;X;X;X;X;X;X;X;X;X;X;X;X;X;X;X;Xj 1.e.#.b F ;X",
";X7 # 2 m.B.;X;X;X;X;X;X;X;X;X;X;X;X;X;X;X;X;X;X;X;X;X;X;X;X;X;X;XV a.H.&.b S ;X",
";X5 O 4 M.;X;X;X;X;X;X;X;X;X;X;X;X;X;X;X;X;X;X;X;X;X;X;X;X;X;X;X;XW f.V.Q b v ;X",
";X5 O 4 K.B.;X;X;X;X;X;X;X;X;X;X;X;X;X;X;X;X;X;X;X;X;X;X;X;X;X;X;X6.z.e.L g v ;X",
";X; # 2 M.W.;X;X;X;X;X;X;X;X;X;X;X;X;X;X;X;X;X;X;X;X;X;X;X;X;X;X;X9.n.g.! q S ;X",
";X1 $ > h.~.;X;X;X;X;X;X;X;X;X;X;X;X;X;X;X;X;X;X;X;X;X;X;X;X;X;X;X$.S.w.+.4 F ;X",
";X6 * # 1.'.;X;X;X;X;X;X;X;X;X;X;X;X;X;X;X;X;X;X;X;X;X;X;X;X;X;Xr r.+Xr.+.2 J ;X",
";X9 = O ` _.;X;X;X;X;X;X;X;X;X;X;X;X;X;X;X;X;X;X;X;X;X;X;X;X;X;XH J.$Xh.k 3 ;X;X",
";X;X, O g P.W.;X;X;X;X;X;X;X;X;X;X;X;X;X;X;X;X;X;X;X;X;X;X;X;X;X$.T.L.0.q t ;X;X",
";X;X7 $ % a.'.;X;X;X;X;X;X;X;X;X;X;X;X;X;X;X;X;X;X;X;X;X;X;X;Xi.9.I.M.#.< v ;X;X",
";X;Xr , O Y ^.Q.;X;X;X;X;X;X;X;X;X;X;X;X;X;X;X;X;X;X;X;X;X;X7.p.S.J.,.g 2 I ;X;X",
";X;X;X: $ % a.}.;X;X;X;X;X;X;X;X;X;X;X;X;X;X;X;X;X;X;X;X;X;Xu.P.+Xz.L < x ;X;X;X",
";X;X;X1 = O U I.[.;X;X;X;X;X;X;X;X;X;X;X;X;X;X;X;X;X;X;X;X3.b.-XH.+.g 2 J ;X;X;X",
";X;X;X;X* $ # :.(.&X;X;X;X;X;X;X;X;X;X;X;X;X;X;X;X;X;X;X8.2.L.F.o.k < l ;X;X;X;X",
";X;X;X;X& * # > <..X&X|.;X;X;X;X;X;X;X;X;X;X;X;X;X;X;Xv.t.j.k.o.G 2 y ;X;X;X;X;X",
";X;X;X;X;XX $ # > >.U.OX*X|.;X;X;X;X;X;X;X;X;X;X;XM %.^.^.k. .L < 2 I ;X;X;X;X;X",
";X;X;X;X;X;Xo % # > :.S.(.}.'.E.;X;X;X;X;X;XA Z V ..I.+XL. .D < , M ;X;X;X;X;X;X",
";X;X;X;X;X;X;Xo % $ % ) d.m.N.N.b.t.t.2.O.%.j.j.J.V.*.%.o.k > 2 M ;X;X;X;X;X;X;X",
";X;X;X;X;X;X;X;X. $ $ # q | -.,.h.M.L.K.H.P.F.,.~ X.E D 4 = y J ;X;X;X;X;X;X;X;X",
";X;X;X;X;X;X;X;X;X  + % % # < n ` +.#.X. .o.E G j 0 > % 2 l ;X;X;X;X;X;X;X;X;X;X",
";X;X;X;X;X;X;X;X;X;X;X. % = % # $ % < 4 2 < < = % * 3 x J ;X;X;X;X;X;X;X;X;X;X;X",
";X;X;X;X;X;X;X;X;X;X;X;X;X. @ = , , = = = = , 3 t c B ;X;X;X;X;X;X;X;X;X;X;X;X;X",
";X;X;X;X;X;X;X;X;X;X;X;X;X;X;X;X- & p i i r s / ;X;X;X;X;X;X;X;X;X;X;X;X;X;X;X;X"
};
