/* XPM */
static char *result[] = {
/* columns rows colors chars-per-pixel */
"40 40 203 2 ",
"   c #170501",
".  c #180501",
"X  c #190601",
"o  c #190701",
"O  c #150A00",
"+  c #170C00",
"@  c #190A00",
"#  c #1D0800",
"$  c #190C00",
"%  c #1E0D01",
"&  c #1C0E00",
"*  c #260B03",
"=  c #230D02",
"-  c #240F02",
";  c #211001",
":  c #211200",
">  c #241201",
",  c #241003",
"<  c #261002",
"1  c #261102",
"2  c #261202",
"3  c #291301",
"4  c #291003",
"5  c #2B1103",
"6  c #2B1203",
"7  c #291701",
"8  c #281503",
"9  c #2F1701",
"0  c #2C1602",
"q  c #2D1803",
"w  c #2F1B02",
"e  c #2D1804",
"r  c #2E1D05",
"t  c #311303",
"y  c #3C1103",
"u  c #3B1403",
"i  c #3F1605",
"p  c #331B02",
"a  c #371B03",
"s  c #361C02",
"d  c #361F04",
"f  c #3E1B03",
"g  c #391C03",
"h  c #3D1C03",
"j  c #381804",
"k  c #381805",
"l  c #391C04",
"z  c #3B1E04",
"x  c #3A1E08",
"c  c #3B2003",
"v  c #382204",
"b  c #3D2305",
"n  c #3D2207",
"m  c #3D2809",
"M  c #4E1704",
"N  c #431A03",
"B  c #401F02",
"V  c #471D03",
"C  c #411804",
"Z  c #401D04",
"A  c #431F04",
"S  c #411C07",
"D  c #451E04",
"F  c #4A1D04",
"G  c #491E06",
"H  c #4E1E08",
"J  c #541404",
"K  c #541F04",
"L  c #581F07",
"P  c #422103",
"I  c #462107",
"U  c #4C2103",
"Y  c #4A2207",
"T  c #4F2105",
"R  c #4E2307",
"E  c #492605",
"W  c #4E2405",
"Q  c #412906",
"!  c #462A06",
"~  c #492B07",
"^  c #482509",
"/  c #4E2708",
"(  c #552003",
")  c #512304",
"_  c #512507",
"`  c #572605",
"'  c #542607",
"]  c #5B2304",
"[  c #542804",
"{  c #562A07",
"}  c #5C2A05",
"|  c #5F2906",
" . c #5F2907",
".. c #5D2A07",
"X. c #562208",
"o. c #532F08",
"O. c #552D08",
"+. c #5A2909",
"@. c #5B2B08",
"#. c #4B3308",
"$. c #4D310A",
"%. c #4B340C",
"&. c #5E3207",
"*. c #573309",
"=. c #55310A",
"-. c #5B3508",
";. c #5A350A",
":. c #5F340A",
">. c #5E360A",
",. c #54380D",
"<. c #57380C",
"1. c #533D0C",
"2. c #593A0A",
"3. c #5E380A",
"4. c #5F390C",
"5. c #612504",
"6. c #672607",
"7. c #602B04",
"8. c #662906",
"9. c #682A0A",
"0. c #6D2809",
"q. c #762301",
"w. c #772F05",
"e. c #623107",
"r. c #633206",
"t. c #683806",
"y. c #68300A",
"u. c #6F360A",
"i. c #673A0C",
"p. c #6F3D0E",
"a. c #7B3106",
"s. c #7F3A07",
"d. c #713508",
"f. c #77330D",
"g. c #78320A",
"h. c #7C3E08",
"j. c #5E400A",
"k. c #624408",
"l. c #6B440F",
"z. c #67490B",
"x. c #71410A",
"c. c #714B0A",
"v. c #74500D",
"b. c #7E560C",
"n. c #71590F",
"m. c #624712",
"M. c #822C06",
"N. c #803907",
"B. c #8B3B07",
"V. c #88370A",
"C. c #823809",
"Z. c #8E3F0F",
"A. c #903104",
"S. c #943C06",
"D. c #993F0E",
"F. c #8A4407",
"G. c #824509",
"H. c #92430F",
"J. c #904D08",
"K. c #865B0E",
"L. c #8E5F0E",
"P. c #9F5507",
"I. c #96500A",
"U. c #975C0C",
"Y. c #8D4510",
"T. c #BB4F06",
"R. c #B04808",
"E. c #A45D0C",
"W. c #BB5407",
"Q. c #98640F",
"!. c #9C690E",
"~. c #9D6E0E",
"^. c #806011",
"/. c #936910",
"(. c #A4640A",
"). c #AF630B",
"_. c #A8630C",
"`. c #AA6E0B",
"'. c #B36607",
"]. c #B66C0A",
"[. c #B06C0D",
"{. c #B0710F",
"}. c #B3740C",
"|. c #BB780B",
" X c #BF7A0D",
".X c #A87610",
"XX c #AC7611",
"oX c #B27D10",
"OX c #C05707",
"+X c #C8610A",
"@X c #C2770E",
"#X c #D17707",
"$X c #B88910",
"%X c #BE8811",
"&X c #DE830A",
"*X c #D18F0C",
"=X c #DD900D",
"-X c #C48510",
";X c #C49512",
":X c #E3850D",
">X c #E58A0C",
",X c #EFAD15",
"<X c None",
/* pixels */
"<X<X<X<X<X<X<X<X<X<X<X<X<X<X<Xp.d.e.&.-.&.>.i.<X<X<X<X<X<X<X<X<X<X<X<X<X<X<X<X<X",
"<X<X<X<X<X<X<X<X<X<X<X<X<Xy.[ P c d s a s v Q $.>.p.<X<X<X<X<X<X<X<X<X<X<X<X<X<X",
"<X<X<X<X<X<X<X<X<X<X<XL W b w 0 9 h U H ) V h g v Q <.l.<X<X<X<X<X<X<X<X<X<X<X<X",
"<X<X<X<X<X<X<X<X<X<XF a w 7 p ` F.[.).F.I._.7.} r.E d ! 4.<X<X<X<X<X<X<X<X<X<X<X",
"<X<X<X<X<X<X<X<X0.i 3 > 0 U B.W.&X,X[.h.J.(.(.|.@Xh.` h d o.<X<X<X<X<X<X<X<X<X<X",
"<X<X<X<X<X<X<X9.S 2 : 9 ] M.R.T.<X<X<XC L 6.5.h.|._.I.u.a w o.<X<X<X<X<X<X<X<X<X",
"<X<X<X<X<X<X+.h 2 % 9 | <X<X<X<X<X<X<X<X<X<Xy N V t.-XE.E 7 w O.<X<X<X<X<X<X<X<X",
"<X<X<X<X<X<Xk 2 & > R <X<X<X<X<X<X<X<X<X<X<X<X<X1 g r.L.v.p d v ;.<X<X<X<X<X<X<X",
"<X<X<X<X<XG ; & & f <X<X<X<X<X<X<X<X<X<X<X<X<X<X<X, 4 h K.K.3.Q Q :.<X<X<X<X<X<X",
"<X<X<X<Xg.4 ; $ 0 <X<X<X<X<X<X<X<X<X<X<X<X<X<X<X<X<X6 3 c ~.~.2.1.~ <X<X<X<X<X<X",
"<X<X<X<X) > $ % j <X<X<X<X<X<X<X<X<X<X<X<X<X<X<X<X<X<X1 > z.%X-.1.#.:.<X<X<X<X<X",
"<X<X<XV.t ; + 5 <X<X<X<X<X<X<X<X<X<X<X<X<X<X<X<X<X<X<X<X1 *..Xc.Q z./ <X<X<X<X<X",
"<X<X<X8.> $ $ z <X<X<X<X<X<X<X<X<X<X<X<X<X<X<X<X<X<X<X<X8 7 K.XX! n.$.<X<X<X<X<X",
"<X<XZ.S ; + ; C <X<X<X<X<X<X<X<X<X<X<X<X<X<X<X<X<X<X<X<X<Xe x.Q.L./.1.T <X<X<X<X",
"<X<XH.t % + 1 <X<X<X<X<X<X<X<X<X<X<X<X<X<X<X<X<X<X<X<X<X<X- E ~.$XoXn.I <X<X<X<X",
"<X<XC.4 & + q <X<X<X<X<X<X<X<X<X<X<X<X<X<X<X<X<X<X<X<X<X<X<Xc 3.$X!.^.! <X<X<X<X",
"<X<Xu.2 $ + j <X<X<X<X<X<X<X<X<X<X<X<X<X<X<X<X<X<X<X<X<X<X<Xn d ^.! n.#.<X<X<X<X",
"<XY.H 2 + $ x <X<X<X<X<X<X<X<X<X<X<X<X<X<X<X<X<X<X<X<X<X<X<Xq > v.k.v.#.Y <X<X<X",
"<XZ.V = + $ l <X<X<X<X<X<X<X<X<X<X<X<X<X<X<X<X<X<X<X<X<X<X<X< : b./.j.! { <X<X<X",
"<XD.H % + $ l <X<X<X<X<X<X<X<X<X<X<X<X<X<X<X<X<X<X<X<X<X<X<X1 d !.~.Q b { <X<X<X",
"<XD.H % + $ l <X<X<X<X<X<X<X<X<X<X<X<X<X<X<X<X<X<X<X<X<X<X<Xz E K.c.w d { <X<X<X",
"<Xf.i ; + $ x <X<X<X<X<X<X<X<X<X<X<X<X<X<X<X<X<X<X<X<X<X<X<XO.d j.z.7 w { <X<X<X",
"<XX.t > @ + ^ <X<X<X<X<X<X<X<X<X<X<X<X<X<X<X<X<X<X<X<X<X<X<XA ! /.j.v p ' <X<X<X",
"<X<Xi = & O m <X<X<X<X<X<X<X<X<X<X<X<X<X<X<X<X<X<X<X<X<X<X<XE Q.;Xz.! p X.<X<X<X",
"<X<X .= ; O r <X<X<X<X<X<X<X<X<X<X<X<X<X<X<X<X<X<X<X<X<X<XY *./.;Xc.p g <X<X<X<X",
"<X<Xy.= 2 O : m.<X<X<X<X<X<X<X<X<X<X<X<X<X<X<X<X<X<X<X<X<Xf b b.Q.x.b A <X<X<X<X",
"<X<Xf.4 3 + + %.<X<X<X<X<X<X<X<X<X<X<X<X<X<X<X<X<X<X<X<X<XV p ~.!.*.w R <X<X<X<X",
"<X<X<Xk 4 & O r <X<X<X<X<X<X<X<X<X<X<X<X<X<X<X<X<X<X<X<Xd.5.x.oXx.v p X.<X<X<X<X",
"<X<X<XR = ; + & ,.<X<X<X<X<X<X<X<X<X<X<X<X<X<X<X<X<X<Xl ` E.*X(.t.d D <X<X<X<X<X",
"<X<X<X<X5 # $ + w <X<X<X<X<X<X<X<X<X<X<X<X<X<X<X<X<X<X( ` {.oX7.P p ' <X<X<X<X<X",
"<X<X<X<Xx # @ $ & ~ <X<X<X<X<X<X<X<X<X<X<X<X<X<X<X<XN.w.u..Xr.) p Z <X<X<X<X<X<X",
"<X<X<X<X<X< # $ + > =.<X<X<X<X<X<X<X<X<X<X<X<X<X<XK r.P.}.x.V B g +.<X<X<X<X<X<X",
"<X<X<X<X<X<XX @ & $ 0 @.<X<X<X<X<X<X<X<X<X<X<X0.S.B.[.*X].] B s _ <X<X<X<X<X<X<X",
"<X<X<X<X<X<X<Xo @ & & 9 | a.<X<X<X<X<X<X<XJ M 5.s.).].P.F.U s G <X<X<X<X<X<X<X<X",
"<X<X<X<X<X<X<X* o & % % 0 } S.+X>X:XOXA.q.w.E.`.`.U.w.8.U s N <X<X<X<X<X<X<X<X<X",
"<X<X<X<X<X<X<X<X* X % ; ; 2 U F. X=X&X#X'.).].J.] i V P s N <X<X<X<X<X<X<X<X<X<X",
"<X<X<X<X<X<X<X<X<X<X. % 2 2 > 0 P t.G.F.w.] ` U P c d B K <X<X<X<X<X<X<X<X<X<X<X",
"<X<X<X<X<X<X<X<X<X<X<X  o 4 0 3 3 0 p g c g s s g h W ..<X<X<X<X<X<X<X<X<X<X<X<X",
"<X<X<X<X<X<X<X<X<X<X<X<X<X- 1 t t t 9 p g g h B F @.<X<X<X<X<X<X<X<X<X<X<X<X<X<X",
"<X<X<X<X<X<X<X<X<X<X<X<X<X<X<X* y j u I / ^ T <X<X<X<X<X<X<X<X<X<X<X<X<X<X<X<X<X"
};
