/* XPM */
static char *result[] = {
/* columns rows colors chars-per-pixel */
"64 64 177 2 ",
"   c #091416",
".  c #0A1417",
"X  c #0A1517",
"o  c #0C1819",
"O  c #0D1E1B",
"+  c #0F1A1E",
"@  c #111B1D",
"#  c #111F21",
"$  c #162326",
"%  c #1A272A",
"&  c #1E2B2E",
"*  c #153329",
"=  c #222E32",
"-  c #233236",
";  c #273336",
":  c #203B37",
">  c #26363A",
",  c #2A3538",
"<  c #2E373B",
"1  c #26383C",
"2  c #26383D",
"3  c #25393E",
"4  c #28383C",
"5  c #29383C",
"6  c #28383D",
"7  c #2A393D",
"8  c #3B3436",
"9  c #34373A",
"0  c #5F2F2D",
"q  c #443335",
"w  c #4C3133",
"e  c #563130",
"r  c #5F3637",
"t  c #642C2A",
"y  c #7C2B27",
"u  c #722C28",
"i  c #6F322B",
"p  c #69302D",
"a  c #633F3F",
"s  c #783835",
"d  c #1F4A37",
"f  c #27423C",
"g  c #2D3D40",
"h  c #2D3E42",
"j  c #303F41",
"k  c #373F41",
"l  c #384345",
"z  c #3A4344",
"x  c #394446",
"c  c #364549",
"v  c #4E4D4F",
"b  c #404E52",
"n  c #495252",
"m  c #4A5556",
"M  c #4C5455",
"N  c #515855",
"B  c #5E6666",
"V  c #646C6D",
"C  c #86271F",
"Z  c #98261D",
"A  c #9F291C",
"S  c #A7251A",
"D  c #AD291A",
"F  c #B52316",
"G  c #BC2113",
"H  c #963722",
"J  c #9F352C",
"K  c #B23E33",
"L  c #CC1F0F",
"P  c #D71C0C",
"I  c #ED1707",
"U  c #FE1401",
"Y  c #FD1402",
"T  c #F61B05",
"R  c #FB1803",
"E  c #FB1E04",
"W  c #F81F0D",
"Q  c #DE200A",
"!  c #D02E13",
"~  c #C23115",
"^  c #E72108",
"/  c #F92404",
"(  c #F52B06",
")  c #FB2A06",
"_  c #FA270F",
"`  c #E33109",
"'  c #EC3D0B",
"]  c #F73307",
"[  c #FD3305",
"{  c #F53B08",
"}  c #FB3D09",
"|  c #EE2E1C",
" . c #F62918",
".. c #F72A18",
"X. c #EF3211",
"o. c #F13E17",
"O. c #F3311C",
"+. c #EF3B2B",
"@. c #F33323",
"#. c #EE3E30",
"$. c #BA5338",
"%. c #D7440E",
"&. c #CA4013",
"*. c #E34309",
"=. c #F84D07",
"-. c #F4440C",
";. c #FB4608",
":. c #EF5A0A",
">. c #FC5207",
",. c #F45F06",
"<. c #F45209",
"1. c #F85609",
"2. c #E5411B",
"3. c #E85611",
"4. c #E1660D",
"5. c #F96307",
"6. c #FB6906",
"7. c #F26E0D",
"8. c #FC7206",
"9. c #FB790A",
"0. c #F5641C",
"q. c #F4492A",
"w. c #F15723",
"e. c #F7512D",
"r. c #F14033",
"t. c #F54535",
"y. c #FA4436",
"u. c #EE6831",
"i. c #EA733A",
"p. c #F37233",
"a. c #AE5342",
"s. c #EC624F",
"d. c #F36950",
"f. c #FA8305",
"g. c #FB9A04",
"h. c #F2861B",
"j. c #F99110",
"k. c #FCA104",
"l. c #FCAC03",
"z. c #FDB302",
"x. c #FEB901",
"c. c #FEBB00",
"v. c #FEBD01",
"b. c #F28530",
"n. c #EFAD25",
"m. c #FCC50C",
"M. c #FBD116",
"N. c #F6C62B",
"B. c #F6DD29",
"V. c #FBCC3A",
"C. c #F7E42B",
"Z. c #F5E832",
"A. c #F3B94E",
"S. c #F59765",
"D. c #EEA066",
"F. c #ECB46C",
"G. c #F8B37D",
"H. c #F9CD46",
"J. c #FACE47",
"K. c #F9CC48",
"L. c #F9CE49",
"P. c #FACF50",
"I. c #F7D157",
"U. c #F8D253",
"Y. c #F8D255",
"T. c #F9D255",
"R. c #F8D258",
"E. c #FAD45B",
"W. c #FAD45E",
"Q. c #F9D563",
"!. c #F8D668",
"~. c #F7D86A",
"^. c #F6DA72",
"/. c #F7DF83",
"(. c #F6DE8B",
"). c #F8E294",
"_. c None",
/* pixels */
"_._._._._._._._._._._._._._._._._._._._._._._._._._._._._._._._._._._._._._._._._._._._._._._._._._._._._._._._._._._._._._._._.",
"_._._._._._._._._._._._._._._._._._._._._._._._._._._._._._._._._._._._._._._._._._._._._._._._._._._._._._._._._._._._._._._._.",
"_._._._._._._._._._._._._._._._._._._._._._._._._._._._._._._._._._._._._._._._._._._._._._._._._._._._._._._._._._._._._._._._.",
"_._._._._._._._._._._._._._._._._._._._._._._._._._._._._._._._._._._._._._._._._._._._._._._._._._._._._._._._._._._._._._._._.",
"_._._._._._._._._._._._._._._._._._._._._._._._._._._._._._._._._._._._._._._._._._._._._._._._._._._._._._._._._._._._._._._._.",
"_._._._._._._._._._._._._._._._._._._._._._._._._._._._._._._._._._._._._._._._._.J.E.U.I.!.I._._._._._._._._._._._._._._._._._.",
"_._._._._._._._._._._._._._._._._._._._._._._._._._._._._._._._._._._._._._._.H.P._._._._._._.T.P._._._._._._._._._._._._._._._.",
"_._._._._._._._._._._._._._._._._._._._._._._._._._.^.W._._._._._._._._._._.L._._._._._._._._._._.Q._._._._._._._._._._._._._._.",
"_._._._._._._._._._._._._._._._._._._._._._._._._._._._.I._._._._._._._._.L._._._._._._._._._._._._._._._._._._._._._._._._._._.",
"_._._._._._._._._._._._._._._._._._._._._._._._._._._._.T._._._._._._._.L._._._._._._._._._._._._._._._._._._._._._._._._._._._.",
"_._._._._._._._._._._._._._._._._._._.M x _._._._._._._._.H._._._._._.T.T._._._._._._._._._._._._._._.^._._._._._._._._._._._._.",
"_._._._._._._._._._._._._._._._._._._.M x _._._._._._._._.K.^._._._._.J._._._._._._._._._._._._._._._._._._._._._._._._._._._._.",
"_._._._._._._._._._._.R.H.W.R.K.V.P._._._._._._._._._._._._.Q._._._._.P._._._._._._._._._._._._._._._.(._._._._._._._._._._._._.",
"_._._._._._._._._._.Q._._._._._._._.J._._._._._._._._._._._.U._._._.J._._._._._._._._._._._._.v _._._._.Q._._._._._._._._._._._.",
"_._._._._._._._._.R._._._._._._._._._.J.R._._._._._._._._._.I._._._.J._._._._._._._._._._._._.B _._._._._._._._._._._._._._._._.",
"_._._._._._._._.^._._._._._._._._._._._.V._._._._._._._._._.E.)._._.P._._._._._._._._._._._._._._._._._._._._._._._._._._._._._.",
"_._._._._._._.^._._._._._._._._._._._._._.L._._._._._._._._.V._._.R._._._._._._._._._._._._._._._._._._._._._._._._._._._._._._.",
"_._._._._._._._._._._._._._._._._._._._._.~.V._._._._._._._.V._._.I._._._._.O.S._._.H.E.~.!.W._._._._._.B n _._._._._._._._._._.",
"_._._._._._.)._._._._._._._._._._._._._._._.J._._._._._._._.V._._.U._._._. .} _._.H._._._._._.!._._._._.V l _._._._._._._._._._.",
"_._._._._.N _._._._._._._._._._._._._._._._._.H._._.)._._._.V._._.I._._._.X.S.R.H._._._._._._._.P._._._._._._._._._._._._._._._.",
"_._._._._.x _._._._._._._._._._._._._._._._._.K.A.#.p._._._.V._._.Q._._.#.S.(.J._._._._._._._._._._._._._._._._._._._._._._._._.",
"_._._._._._._._._._._._._._._._._._.#._._._._._.h.] ( e._._.J._._.T._._.d.).E._._._._._._._._._.).!._._._._._._._._._._._._._._.",
"_._._._._._._._._._._._._._._._._._.@.O._._._._.7.<.] { _._.E.)._./._._._./.T._._.D._._._._._._._.)._._._._._._._._._._._._._._.",
"_._._._._._._._._._._._._._._._.V.J.P.d.r._._.w.} 1.{ ] O._.E.)._.F.D._._.~._.s.w._ W O.S._._._._._._._._._._._._._._._._._._._.",
"_._._._._._._._._._._._._.^.L._._.!.Y.Y.D._._.o.) 1.-.] Y _ b.i.i.3.(  .i.b.o.' R Y ) -. ._._._._._._._._._._._._._._._._._._._.",
"_._._._._._._._._._._._._.I._._._._._.W.N._._.X./ =.{ ( Y ) ,.] ;.-.T E -.{ ( / Y E { T E _._._._._.V x _._._._._._._._._._._._.",
"_._._._._._._._._._._._.Q._._._._._._._._.J.u.T E } ] ] Y ) ,.( } -.] ] -./ ( Y R { / Y W _._._._._.V l _._._._._._._._._._._._.",
"_._._._._._._._._.@. ...q.s._._._._._._._._.h.E Y ) ] ] R ) :.( ;.f.l.g.<.R R Y ] ( Y Y  ._._._._._._._._._._._._._._._._._._._.",
"_._._._._._._.| R R _ e.t._.s._._._.s._._.r.5.<.R E ] ) / / :.( 9.v.c.v.5.Y Y / { R Y Y y._._._._._._._._._._._._._._._._._._._.",
"_._._._._._._.|  .y.G._._._._._._.W R W W R ) ,.] R ;.=.( / -.=.z.c.c.v.8.Y R { E Y R _ G._._._._._._._._._._._._._._._._._._._.",
"_._._._._._._._._._._._._._._._._.W R R Y Y R =.{ ] g.z.5.E -.f.v.c.c.v.9.Y ( ( R R / e._.I.K.T._._.K.J._._._._._._._._._._._._.",
"_._._._._._._._._._._._._._._._._.@./ E R Y Y ) { 1.z.c.l.1.0.l.c.c.c.v.f.E ( R R R ] b.U._._._._._._._.P.H._._._._._._._._._._.",
"_._._._._._._._._._._._._._._._._._.o.{ { / R / { 8.c.c.c.z.l.x.c.x.x.c.g.{ E R Y ) ,.w._._.#...W  .t._._._.H._._._._._._._._._.",
"_._._._._._._._._._._._._._.P.U.U.Q.p.-.] ] =.f.k.z.c.c.c.c.x.x.c.c.c.x.x.g.f./ ) <.( R @._._._.+.W R y._._._.K._._._._._._._._.",
"_._._._._._._._._._._.K.J.P._._._._._.u.=.{ 9.v.c.c.c.x.c.m.M.v.c.x.x.c.c.c.z.-.-./ Y Y _ _._._._._. ..._._._.R._._._._._._._._.",
"_._.M z _._._._._.K.H._._._._._._._._._.O./ 5.x.x.x.x.M.B.C.Z.B.M.M.m.v.x.c.z.,.T Y Y _ t._._._._._._._._._._._.T._._._._.M _._.",
"_._._.V _._._._.U._._._._._._._._._._._._._ E f.c.c.m.C.Z.Z.Z.Z.Z.Z.C.B.M.v.c.l.=.R W _._._._._._._._._._._._._._._._._.n l _._.",
"_._._._._._._.U._._._._._._._._._._._._._.#.R ] g.m.C.Z.Z.Z.Z.Z.Z.Z.Z.Z.B.m.c.v.j.E .._._._._._._._._._._._._._._._._._.B m _._.",
"_._._._._._.R._._._._._._._._._._._._.+.@...R Y ;.g.m.B.Z.C.B.N.n.j.7.:.<.6.g.l.,.R ..+.t._._._._._._._._._._._._.)._._._._._._.",
"_._._._._.^._._._._._._._._._._.#...T R Y R E Y Y E ( -.:.<.{ ( T R Y Y Y Y / { R R R R R  ._._._._._._._._._._._._._._._._._._.",
"_._._._._._._._._._._._._.+. .] } ) R Y R 8.j.8.1.;.} [ [ ;.5.[ U U U [ 9.>.) Y Y U Y Y Y Y W r._._._._._._._._._._._._._._._._.",
"_._._.n _._._._._._._.N r G >.k.z.,.R Y R 6.z.z.f.9.f.f.g.k.f.( P L L ( 6.g.k.8.>.;.;.) Y E 8.<.s _._._._._._._._._._._._._._._.",
"_._.M < V _._._.M l 7 3 q ! k.z.,.A Z I U U ;.9.T L G ^ ] ( ^ C 8 < 8 u P ) 8.z.x.z.k.=.Y >.x.4.w g m _._._._._._.n _._._._._._.",
"_._._.n _._.B x 7 1 9 p L [ g.=.L 8 9 L I G P ] A 8 < u I Y Z 1 1 1 1 2 w F T >.l.k.*.G I 6.v.:.t 3 7 l _._._._.V < 7 _._._._._.",
"_._._._.B x 7 1 < 0 G T U 1.,.W y c p I Z 5 u P q 3 2 7 S Y C 3 4 4 4 4 2 9 Z T >.f.L 8 y ` k.8.F 9 3 4 j _._._._.N j _._._._._.",
"_._._.l 7 4 2 q A I U E ;.=.X.J c v ~ ^ w < D Z 1 6 6 3 0 T F < 4 4 4 4 4 2 < A R 5.*.0 6 u ' 9.{ D q 2 1 g m _._._._._._._._._.",
"_.l 7 5 4 7 p L / } >.5.*.G a c v a.-.J 7 e Q e 2 4 > 2 8 P I e 3 6 4 4 4 6 2 9 A ( 8.~ 9 3 u ` 5.>.! 0 1 6 7 n _._._._._._._._.",
"g , 5 5 < y ' 6.9.,.%.A t 9 h v $.0.! q 1 q u < 6 = + = < F [ A 5 6 4 4 4 4 5 6 < C :.7.p 3 h e D :.9.*.p 6 6 7 l _._._._._._._.",
"4 5 1 9 H 7.j.,.! C q < 3 c v $.j.2.u 1 4 6 1 4 > # . & 6 Z ;.*.e 3 4 4 4 4 4 4 4 5 H f.&.q 7 h 9 u &.f.4.0 6 5 5 x _._._._.m _.",
"4 1 9 J 9.f.` C 8 4 6 4 c b J 9.7.Z , 1 4 4 4 7 = o . & 3 Z ) 6.D < 1 4 4 4 4 4 5 2 e X./ S 8 2 7 2 8 H 7.%.e 2 5 5 j _._._._._.",
"2 9 A 5.5.L 0 4 1 5 7 c b b K 2.S 8 1 4 4 4 4 > $ . + ; 3 A U >.:.u 1 4 4 4 4 4 5 2 p I I R F 8 2 6 2 < i Q P e 1 6 > = m _._._.",
"q D 1.<.G q 2 4 4 - - b b c v a 9 2 4 4 4 4 4 & X X & 5 < F U E 8.%.w 1 4 4 4 4 2 8 Z t 0 F T S < 2 6 6 2 e Q P w 2 6 $ @ k _._.",
"! <.-.G q 2 4 4 = % & b b b h c 7 4 4 4 4 4 & o   # > 1 8 P R P X.8.~ q 2 4 4 4 6 < 8 2 3 9 S P q 2 6 6 6 2 t L p 2 6 %   @ k _.",
"5.{ F q 2 4 4 = & = , c c h 5 5 5 4 4 4 1 & o   X = 7 1 i T G q t &.5.F q 3 4 6 6 6 2 6 6 3 9 e < 6 6 6 6 6 7 8 < 6 7 & X   @ k ",
"` Z 8 1 7 h - & = ; = c 7 5 5 5 5 4 4 4 & X     + > 4 8 &.( t 3 3 w &.=.~ e 1 2 6 6 6 6 6 6 2 3 6 6 6 > $ & 4 6 7 6 7 & X X X o ",
"t < 2 5 c c = , $ & = ; , > 5 4 4 4 4 - +   .   $ 5 5 H 1.D < 1 7 3 w ! >.*.C q 5 3 3 3 2 6 6 6 6 6 6 > + X $ > 7 6 7 % . X X . ",
"3 6 6 7 c c & & & o X o + # 4 5 4 4 5 % . . .   % 4 e 4.*.e 3 6 4 > 2 p ^ 5.6.%.A p w q 8 7 3 6 6 6 6 6 $   X + & > - + . X X X ",
"6 7 c 4 % = = + $ o . .   # > 5 5 5 5 $ . . . . % 5 H 5.Z 5 7 - $ + % 4 u Q >.9.8.,.3.3.%.D w 6 6 6 6 7 & X X X o + + . . X X X ",
"h c b & X o % % . . . .   # 5 5 5 5 > # . . .   $ 5 u S q 4 & + X   o & 7 e A L ` ' <.f.,.T y 2 6 6 6 7 = X X X X X X . . X X X ",
"b b , ; + . X o X X   . . + ; 5 5 5 > + . . . . + > < < 7 & o X X X X o % > 6 8 w t u u u t 8 6 6 6 6 7 = X X X X . . . . X X X ",
"c 5 = ; % . . . X X   . . X % 5 5 7 - o . . . . X & 7 7 > # . X X X X X X # % - 3 3 3 3 3 3 6 6 6 6 - % + X X X X . . . . . X X ",
"= # , , & . . . . . . . X X + > 5 7 - X . . . . . + ; 7 > + X X X X X X X X X + % - 6 6 6 6 6 6 > % o . . . . X X X X . . . X o ",
"; ; ; , # . . . . . . . . . X = 7 7 = . . . . . . . $ 5 5 #   . . . . . X X X . . + % > 6 6 7 - # X . . . . . X X X X . . . + # ",
"# % = $ . . X X X o o O O O # & f f : $ * * * * * * * f f * # # # O O O O O O o o o o # = 6 = +       . . . . . . . . X o # * d "
};
