/* XPM */
static char *d2FsbGwrJTI4MSUyOS4_[] = {
/* columns rows colors chars-per-pixel */
"64 64 132 2 ",
"   c #0D0D0F",
".  c #141315",
"X  c #1A1916",
"o  c #161619",
"O  c #191719",
"+  c #1C1B1D",
"@  c #201F1D",
"#  c #21211E",
"$  c #1E1D21",
"%  c #211E21",
"&  c #1F2022",
"*  c #232324",
"=  c #282626",
"-  c #262827",
";  c #292925",
":  c #262529",
">  c #29272A",
",  c #27282B",
"<  c #2C2B2C",
"1  c #302E2E",
"2  c #2F302B",
"3  c #32312E",
"4  c #2E2D31",
"5  c #312F31",
"6  c #2F3033",
"7  c #343334",
"8  c #383635",
"9  c #363835",
"0  c #3A3936",
"q  c #363639",
"w  c #38373A",
"e  c #37383C",
"r  c #3B3B3C",
"t  c #403E3C",
"y  c #3F403C",
"u  c #43413E",
"i  c #48453E",
"p  c #373741",
"a  c #3E3D41",
"s  c #403E43",
"d  c #3F4044",
"f  c #444344",
"g  c #494645",
"h  c #474844",
"j  c #4B4A46",
"k  c #454549",
"l  c #48464B",
"z  c #47484D",
"x  c #4B4B4B",
"c  c #514D46",
"v  c #514E4C",
"b  c #4F504B",
"n  c #53514E",
"m  c #59564F",
"M  c #474751",
"N  c #484651",
"B  c #4D4D51",
"V  c #514E53",
"C  c #504E5B",
"Z  c #4F5055",
"A  c #565556",
"S  c #535353",
"D  c #595653",
"F  c #5A5957",
"G  c #5B5954",
"H  c #555358",
"J  c #54535B",
"K  c #56555A",
"L  c #52515F",
"P  c #55555F",
"I  c #56565E",
"U  c #55545A",
"Y  c #58565B",
"T  c #595759",
"R  c #5C5A5B",
"E  c #5B595C",
"W  c #595A5F",
"Q  c #5D5B5E",
"!  c #5B5A5B",
"~  c #605F5D",
"^  c #615E5C",
"/  c #64615F",
"(  c #575761",
")  c #595961",
"_  c #5B5B63",
"`  c #5C5B61",
"'  c #5B5C61",
"]  c #595866",
"[  c #5D5C64",
"{  c #5D5D65",
"}  c #5E5D63",
"|  c #5F5E6C",
" . c #615E65",
".. c #625C66",
"X. c #615F62",
"o. c #605E6B",
"O. c #646361",
"+. c #656462",
"@. c #616065",
"#. c #606165",
"$. c #636164",
"%. c #616066",
"&. c #646265",
"*. c #676664",
"=. c #636263",
"-. c #6A6967",
";. c #66636A",
":. c #63616C",
">. c #67666E",
",. c #656469",
"<. c #6A6569",
"1. c #69646B",
"2. c #696768",
"3. c #6C6869",
"4. c #6A686D",
"5. c #6D686E",
"6. c #6C6B6D",
"7. c #726E6F",
"8. c #656370",
"9. c #666670",
"0. c #686673",
"q. c #686775",
"w. c #696870",
"e. c #706B71",
"r. c #706E71",
"t. c #716F74",
"y. c #737270",
"u. c #767175",
"i. c #737174",
"p. c #797377",
"a. c #79767D",
"s. c #807E81",
/* pixels */
"z ` ` ( ( ` { < f ;.H $.A 7 s v S Y &.i.a.1.l ..^ j < v *.+.i.r v p.e.5...5.&.: N q.C &.B < s N H U ;.8.q._ ( | ) e : M { { Z q ",
"k ` >.w._ H U 4 q I l x k ; u v v S V x S U <.p.T u < g D n v r g 3.7.t.R x S 4 e k k k a < e k B M a k d p L ( d 6 , z k d d q ",
"e s k B B s B r : k v V x 7 8 g j j u 7 8 < 3 u i 8 * j +.E x t t h k x b u x 9 , h b b x < u f u a p 7 7 6 7 p r 6 : M B Z d q ",
"r k f k z h B 7 * f v S v 7 7 f 8 u r g j u 7 j j j 1 v +.R V 8 t v j h j h b 3 * f n b x < 9 y r 6 r f r 7 f q f 0 6 B B B d 6 ",
": r a r r q q + . 3 7 f s + > 2 - - * q 1 3 1 1 < < @ 3 t r g 7 : r q 7 q 7 7   O 7 > 9 5 o : , < $ : 4 4 4 * < > + o < q q p , ",
"< < - < < $ < q 2 7 8 7 < > - r } k B f k g * r u < 1 < < ; 3 3 < 7 7 r q $ 7 f q r f r 7 q : a Z B Z p Z M $ B p 7 7 q 4 , 0 p ",
"f r h R Q 7 7 k z f U z h x 7 h O.j U h v E 1 X.*.l f f u h g j v g n 3.+.< 7 k f z B N a s 7 k H Z k d z k 7 N V a e p d d k f ",
"f l V B k > < a r z f h a a 7 7 n S x v f g < r j f 8 g u u t t g c m j h * 7 p a k k s a s 7 7 x b Z z k a : r k r 7 a r p 0 r ",
"u h x x f 6 q 7 r u r f f r 6 < j S x A x k < r h j 8 9 j r t t g c n j u 7 r 7 7 f r r r 7 < < M z z M k p : p a f q 5 f w 7 r ",
"7 u h d 0 7 r > > 6 7 w 5 7 * - r k f f p 0 % 7 0 r r < 0 u 0 t 8 g u t 7 7 7 - < < q r 4 < & - w a a e q 4 $ 4 4 e 4 : 7 e r r ",
"7 7 2 < * O - - + $ - 4 < 4 * * 1 1 5 ; 9 7 * > 7 6 < O = 3 5 ; 8 3 ; 1 ; X - < $ * > < 4 < 4 < < < , 4 p e 4 4 q w 4 $ 4 5 7 - ",
"w h x z r 9 r - 7 k z k a , h z s w ; % j ,.t.s.Q K g j n x v t 7 G D x u f j - p S S z a 4 k a h w : & k ( { w.J N s k B B N q ",
"x S n l k h B r 5 z S B k 4 l j h f 8 ; g B A T S j k S E v v 8 h m j j j f j 7 4 z B B z 7 M z u u 7 4 k M M M C s s C L B k 5 ",
"r r r h h y f 7 < p z Z z h r r k f r > f f z x j f z j x V x 8 3 h h j j u h 7 w a h z z r 7 r r f 7 < p a f k s a s a s a a 4 ",
"3 r j h h k z 4 4 a f d 8 8 > r h f 7 & r f f d f r f 0 8 t t 5 3 i j j j h f < 7 r d y a 7 > 0 a p - - e a a p p p p q 7 q s 7 ",
"3 7 7 r r r 7 & * 5 < 2 9 < * : * * + . q 0 9 6 - , & & * : 1 @ ; 8 8 8 r r 4 o * 7 > > < > * * % % . $ 7 0 4 , : $ $ $ % * : o ",
"q 7 a < : w 7 4 < 0 p e , 7 f 7 q < r r 7 7 r z f o r S S a s 8 r u c < - d r 9 a h x f < p f p 7 w k w a 4 p Y w $ B o.C N s s ",
"S j b r 7 h x v A U Q A e r B z k r z b g r s B x 1 T i. .T ^ D n j D 3 u j G F E S S A q r k j a p s k a q p r s 5 B ] C B B M ",
"a 7 f 7 < r k V j j x B 7 < f j r f j h f j t 7 1 + 7 t n v i j u u i 0 0 i i n j j n j - 8 f f a a z z k s a 4 $ $ 7 f k a f a ",
"f r f 7 7 w r h d f r k 9 7 f h 7 r z j j x j f < + r g g j j j u i u 3 3 u u j j u i x 3 7 f a < a f s z N k p : % q k k f f f ",
"f d d 7 3 r r f f f r h q 2 r 7 7 r s g h h h r r $ r h u j j u g g t 1 r h x j h u t h < 7 e 4 7 f f r a a w 7 5 $ q e e a a w ",
"3 7 2 , > r r 9 < e 4 7 + O , & + 7 7 5 7 < 7 2 > * < 7 7 7 8 7 1 7 1 ; 7 r 8 7 1 8 5 7 $ * > $ * < 7 q < - 7 4 4 $ 5 q q q 5 4 ",
"7 0 0 6 q r r 7 S a + 4 k S z $ k V Q E v * 8 j j 0 i m S D b 3 8 h 8 t r h f f ^ r + r S ` z % B H ` I z 7 f h k a j B S j a 5 ",
"q p p 0 p a d f k s < e k B Z 7 s c V V Q 8 j x n G c j n n i 0 1 g s r f u h h u r < f j x k 7 k k k k z < r j x x f f j f r 7 ",
"7 0 p 6 6 p e q 6 q , q z r 0 6 7 r r r r < 0 i m n j c j j i 0 7 f t 7 3 r r 0 t 8 ; f j t 8 5 7 r r 0 8 ; r g n j h k f r r 7 ",
", 6 p e : & , 6 6 0 & , r r 6 & 1 8 7 3 < : 0 j j i y 9 8 r u 3 + 8 w w < * - 8 8 3 @ 1 r 7 ; % 7 7 8 5 > # r f r q 4 4 7 7 7 > ",
"4 4 4 4 , , , o & 9 + # : < * + * : * 7 7 # # 1 # > ; 2 4 7 7 7 r w 7 r q 7 3 . 3 8 ; 2 7 r < 5 7 * ; s 7 * - * & < 4 6 q r r 7 ",
"Z Z Z J I { #.k 0 Q b h j b A O.Q h 3 g n j t 3 > f S A S S S S T R T X.T 6.u.a c / m m n D D +./ r 1 g S x u 1 < z A B B z z Z ",
"M B M M d d Z k , Z S S S f r f f u 3 3 2 0 u 8 2 j U S x x B x S D x j h g S 7 3 G G / m c g g y u 3 3 8 0 t 8 6 M B M k s s z ",
"k k d d e p p 4 - h j h j u l x r r < - 3 r u 8 < f j h z j h k g h g g f u g - t G i i c i c v u u 1 8 0 i t 2 6 k d d k a a a ",
"d d d d d k p 7 : h f u y r h h x h 7 3 9 2 9 r 6 d h k j j k f h f x B h f h ; 0 j i i j i v v x t 1 t y r r 2 2 d d d d p a p ",
"e 2 6 q e , & , O 8 < 7 7 9 q 5 6 < + # 3 2 3 > O 4 7 7 e e 7 q 7 4 7 7 7 > % + ; 7 7 7 0 7 5 < 3 = @ 3 7 7 7 * + < 4 6 p q q q ",
"r z 0 a 0 7 h * % B k x j * * 3 r r g j l k 5 k g k % r } O.G r s S x g g x x @ 8 D s T x @ 8 t s c D N V s p Y V w $ k ..H H 6 ",
"a H H U Z A T 7 > g k l x 7 3 g j S V V v l D 6.^ c < u S A j 8 g ^ G m n G ^ 1 t m c v c 1 i m m n D n x f D  .n 8 < k x z p 6 ",
"r r f Z x d k f % w h g v 8 < h h f f 8 8 < 3 f t 3 # u j n j 0 t j g S m j n u ; i m m m 3 t c n v t t r 3 t j h 3 * h j B f 7 ",
"r f k h f k k h * w x A n r < u t r r 8 r t 8 h j g 3 h b b S r u m n i j j n 9 # c m ^ D 3 i c t t 8 t j u u c x u 3 n Z j h 7 ",
"6 r f r r s w < O < r f r > * 3 : < # 3 3 7 3 3 r 7 + 7 f h j 7 * t g t y u r X @ 8 0 t 8 @ ; 0 3 = < 8 8 r 1 8 8 > X 7 f d f , ",
"7 , < 6 7 - $ < % < 7 7 3 : * - h f 8 r r f * < 8 - $ < 1 3 4 5 1 ; < 7 7 * > 3 - 0 u t 7 3 = 8 D g j i h u ; 8 r > < 3 < < 6 7 ",
"h f d f k 7 < a a h j z k s a 7 #.Z A h h A 7 u A l t s r r u j v c v v j 3 r j j n S c j j 8 j / ^ G n G n 1 D T s u j u h f z ",
"f f z b M 7 - r r a k k a s p 4 h z S z k g < r f f 7 u i i i i g c G m j < 3 i s c c c c g 8 t G n D G n g ; c c t 9 j u y u 0 ",
"u f j x h 6 4 4 r r p s a a q < k B M Z j h > 7 k k e 7 h y y u g c c c g 2 8 8 u t g h g t 1 8 D D S D m i = u j j 8 8 j f 8 r ",
"h r d d a 7 7 6 - 7 a a q 4 < % e k f f f a , 7 0 r y < 9 i 0 u t g j i t 7 8 > 1 1 s u w 7 % 1 g g j g u 9 # u r a 9 : 9 7 y r ",
"7 6 6 < > * - < $ % % > 5 4 < $ < 7 7 6 q 4 + $ 6 7 7 O @ 7 3 2 7 7 < < ; + 1 1 % = < 8 8 7 > % 3 8 7 5 r 4 + : q 7 < $ 4 7 0 , ",
"r 0 r 0 7 > 7 7 - p k k p > r z q 7 , O q a z V S Z f r h h j r 1 g h i t r t 1 7 V v s 8 > v S t 8 ; : h V S Q R S k x Z H j 7 ",
"f a h f h d f r > r f N z 7 r f f f r , f z B H A z h b A B x 8 t D v c j c x 9 < j v n n 0 n g c j t 8 S n U T S x x G S b h 7 ",
"r r f d f f f r : r f z B e q d a f r * a a z z z d z k j j j w 8 i t j c g i 8 3 u j n c u t x j j 3 = h h x n h f j k j f h < ",
"7 r f y f r d 8 > p p a s e < 7 r f q * r a k s f r d r p f h w ; c g j g v j 1 0 f t g u 0 < t g f 2 = j h z f h a f e y d f < ",
"3 7 q 0 f d e > $ 5 5 4 7 e : > : < $ . 5 w r 4 , < * - < , 7 + = t 8 t r 0 5 + * 8 7 5 r 1 ; ; % = X + a r w < , - * * : < , O ",
"7 6 q 7 - 7 q 4 : 6 7 0 4 & 7 7 7 : 2 7 7 4 4 f k $ , C M f t < 7 r f < > d a r w r k s > w k s w 7 k l r 5 l S a O k { V l k w ",
"x f f d < d z j S Z B Z d 6 f f h r h z f a r a z 7 j 2.&.D D S j j x 0 8 x A G ^ D G n 8 t x v g g x j v g u g k 7 U ,.I B v x ",
"h r d r , e d z z f z x e * r k f q d f k j r 4 < + 4 h h g g j u u i 9 3 i j n v j n n 1 3 x n u h n n v j t 1 * + r g j g g s ",
"f r y y , 9 y d f r r h r < f f 7 r h z k z z f > O 4 f f j i g u u i 9 3 y u j i t g j 3 0 j g 9 u j n v n m s ; + r k k x g f ",
"j a r e < e e d a a a k 0 : 0 q 4 q a d a k h a 0 & 7 f r f f g h l t 7 7 d h k g h h l 7 7 r 7 1 g t s l s s t 7 @ y y r f f a ",
"d 7 q 6 , q q e 7 q 7 7 - $ , $ $ < 7 7 7 < 4 < 6 $ , 7 7 q w 7 7 q 7 < 7 r r 0 7 7 4 < $ : > O @ 8 t t 8 1 7 8 4 + 9 y r r 0 < ",
"r 6 p 7 6 e p e a p : % e r p * * p f h r : 7 f d r r h x n f 1 3 r r q r f u r g r : 7 a z f : ^ ^ ^ ^ t 1 j c S h j n D x f < ",
"r 7 a 7 q e a p a a 4 , s z z q 7 f f j z 7 9 h B S j h j j h r 6 y r 9 y y f f f r - r j x h 1 t c c v t 3 i v m S j j b u f 2 ",
"d 6 e 6 , q p q q q > 4 p a w 7 4 q p a q 4 7 f b x j z j h f 0 6 d q e q q 0 p 8 s < r f g r 1 r t t u 0 ; h c m v j h h f f 1 ",
"0 , p q 4 & : , 7 q : > w a 4 $ < 4 5 e q 4 < u h y r 7 0 r 0 8 * 7 0 q : & , 6 5 5 @ 7 r 8 * @ 1 5 7 8 1 @ 0 j t r 7 2 7 r 7 > ",
"p - 6 4 q , * $ $ 4 % + - < , % < - * - : @ @ < * - < < 4 6 6 < > 7 6 0 7 6 < + 5 t % % 5 7 1 1 5 > ; 8 r ; 1 # @ 7 7 7 7 q w 7 ",
"x f k M M M z d > z B k l k B N b d < 7 s f r 7 : r z B z M j z j Z x S Z A Z 7 t ^ D n S S S S S s 5 g n x j 2 < n A A Z B z B ",
"k B z z a p M k * f B B x k f a p a 7 < 3 7 e r > f S B M M z z z B x l d h x 7 1 m n m v t t x u t ; 8 0 0 u 8 7 B V M z z k k ",
"x d d p a 7 a q - f l k k a f k f f 7 < 7 9 y 0 < p k k d k k k h h k s r d k < 3 n v j j g c c i t 3 0 0 0 u 8 4 k k s z k k d ",
"d e d d k p p a $ p k s s a f k f f 2 < 3 2 q 9 , q d k k k k a a s z z k e p 4 < l s s s g x l x s < 8 w r t 5 < f z k M a a p ",
"z q e e p w : 4 O q w e p w a w a e - < 7 6 q q & 4 q q p q 7 q a q w p w < < $ % w 7 q w 5 r w 7 5 % 7 7 5 7 5 + < q e e 6 q q "
};
